SplineFontDB: 3.0
FontName: FFFForward
FullName: FFF Forward
FamilyName: FFF Forward
Weight: Book
Copyright: (c)2003 - FFF Fonts For Flash  -  www.fontsforflash.com
Version: 1
ItalicAngle: 0
UnderlinePosition: -146.432
UnderlineWidth: 20.48
Ascent: 819
Descent: 205
InvalidEm: 0
sfntRevision: 0x00010000
LayerCount: 2
Layer: 0 1 "Back" 1
Layer: 1 1 "Fore" 0
XUID: [1021 279 -600373043 28372]
StyleMap: 0x0040
FSType: 1
OS2Version: 0
OS2_WeightWidthSlopeOnly: 0
OS2_UseTypoMetrics: 0
CreationTime: 1057492011
ModificationTime: 1477088364
PfmFamily: 81
TTFWeight: 400
TTFWidth: 5
LineGap: 0
VLineGap: 0
Panose: 0 0 4 0 0 0 0 0 0 0
OS2TypoAscent: 1152
OS2TypoAOffset: 0
OS2TypoDescent: -256
OS2TypoDOffset: 0
OS2TypoLinegap: 0
OS2WinAscent: 1536
OS2WinAOffset: 0
OS2WinDescent: 256
OS2WinDOffset: 0
HheadAscent: 1152
HheadAOffset: 0
HheadDescent: -256
HheadDOffset: 0
OS2SubXSize: 717
OS2SubYSize: 666
OS2SubXOff: 0
OS2SubYOff: 146
OS2SupXSize: 717
OS2SupYSize: 666
OS2SupXOff: 0
OS2SupYOff: 464
OS2StrikeYSize: 51
OS2StrikeYPos: 265
OS2Vendor: 'Alts'
OS2UnicodeRanges: 00000000.00000000.00000000.00000000
MarkAttachClasses: 1
DEI: 91125
TtTable: prep
NPUSHB
 17
 11
 11
 10
 10
 9
 9
 8
 8
 3
 3
 2
 2
 1
 1
 0
 0
 1
SCANTYPE
PUSHW_1
 511
SCANCTRL
RCVT
ROUND[Grey]
WCVTP
RCVT
ROUND[Grey]
WCVTP
RCVT
ROUND[Grey]
WCVTP
RCVT
ROUND[Grey]
WCVTP
RCVT
ROUND[Grey]
WCVTP
RCVT
ROUND[Grey]
WCVTP
RCVT
ROUND[Grey]
WCVTP
RCVT
ROUND[Grey]
WCVTP
PUSHB_4
 5
 4
 70
 0
CALL
PUSHB_4
 7
 6
 70
 0
CALL
PUSHB_2
 4
 4
RCVT
ROUND[Grey]
WCVTP
PUSHB_2
 6
 6
RCVT
ROUND[Grey]
WCVTP
EndTTInstrs
TtTable: fpgm
NPUSHB
 1
 0
FDEF
SROUND
RCVT
DUP
PUSHB_1
 3
CINDEX
RCVT
SWAP
SUB
ROUND[Grey]
RTG
SWAP
ROUND[Grey]
ADD
WCVTP
ENDF
EndTTInstrs
ShortTable: cvt  34
  -379
  -4
  879
  1254
  252
  130
  129
  252
  381
  500
  375
  500
  23570
  23570
  23570
  23570
  23570
  23570
  23570
  23570
  23570
  23570
  23570
  23570
  23570
  23570
  23570
  23570
  23570
  23570
  23570
  23570
  20
  22
EndShort
ShortTable: maxp 16

StartChar: .notdef
Encoding: 65536 -1 0
Width: 524
Flags: W
LayerCount: 2
Fore
SplineSet
67 0 m 1,0,-1
 67 1180 l 1,1,-1
 460 1180 l 1,2,-1
 460 0 l 1,3,-1
 67 0 l 1,0,-1
131 67 m 1,4,-1
 393 67 l 1,5,-1
 393 1115 l 1,6,-1
 131 1115 l 1,7,-1
 131 67 l 1,4,-1
EndSplineSet
Validated: 1
EndChar

StartChar: exclam
Encoding: 33 33 4
Width: 393
Flags: W
LayerCount: 2
Fore
SplineSet
262 390 m 1,0,-1
 -7 390 l 1,1,-1
 -7 1315 l 1,2,-1
 262 1315 l 1,3,-1
 262 390 l 1,0,-1
262 -4 m 1,4,-1
 -7 -4 l 1,5,-1
 -7 266 l 1,6,-1
 262 266 l 1,7,-1
 262 -4 l 1,4,-1
EndSplineSet
Validated: 1
EndChar

StartChar: quotedbl
Encoding: 34 34 5
Width: 786
Flags: W
LayerCount: 2
Fore
SplineSet
655 783 m 1,0,-1
 386 783 l 1,1,-1
 386 1315 l 1,2,-1
 655 1315 l 1,3,-1
 655 783 l 1,0,-1
262 783 m 1,4,-1
 -7 783 l 1,5,-1
 -7 1315 l 1,6,-1
 262 1315 l 1,7,-1
 262 783 l 1,4,-1
EndSplineSet
Validated: 1
EndChar

StartChar: numbersign
Encoding: 35 35 6
Width: 1048
Flags: W
LayerCount: 2
Fore
SplineSet
393 528 m 1,0,-1
 517 528 l 1,1,-1
 517 652 l 1,2,-1
 393 652 l 1,3,-1
 393 528 l 1,0,-1
124 259 m 1,4,-1
 -7 259 l 1,5,-1
 -7 528 l 1,6,-1
 124 528 l 1,7,-1
 124 652 l 1,8,-1
 -7 652 l 1,9,-1
 -7 922 l 1,10,-1
 124 922 l 1,11,-1
 124 1184 l 1,12,-1
 393 1184 l 1,13,-1
 393 922 l 1,14,-1
 517 922 l 1,15,-1
 517 1184 l 1,16,-1
 786 1184 l 1,17,-1
 786 922 l 1,18,-1
 918 922 l 1,19,-1
 918 652 l 1,20,-1
 786 652 l 1,21,-1
 786 528 l 1,22,-1
 918 528 l 1,23,-1
 918 259 l 1,24,-1
 786 259 l 1,25,-1
 786 -4 l 1,26,-1
 517 -4 l 1,27,-1
 517 259 l 1,28,-1
 393 259 l 1,29,-1
 393 -4 l 1,30,-1
 124 -4 l 1,31,-1
 124 259 l 1,4,-1
EndSplineSet
Validated: 1
EndChar

StartChar: dollar
Encoding: 36 36 7
Width: 917
Flags: W
LayerCount: 2
Fore
SplineSet
524 -135 m 1,0,-1
 255 -135 l 1,1,-1
 255 128 l 1,2,-1
 -7 128 l 1,3,-1
 -7 397 l 1,4,-1
 517 397 l 1,5,-1
 517 521 l 1,6,-1
 -7 521 l 1,7,-1
 -7 1184 l 1,8,-1
 255 1184 l 1,9,-1
 255 1446 l 1,10,-1
 524 1446 l 1,11,-1
 524 1184 l 1,12,-1
 786 1184 l 1,13,-1
 786 914 l 1,14,-1
 262 914 l 1,15,-1
 262 791 l 1,16,-1
 786 791 l 1,17,-1
 786 128 l 1,18,-1
 524 128 l 1,19,-1
 524 -135 l 1,0,-1
EndSplineSet
Validated: 1
EndChar

StartChar: percent
Encoding: 37 37 8
Width: 1179
Flags: W
LayerCount: 2
Fore
SplineSet
131 393 m 1,0,-1
 255 393 l 1,1,-1
 255 528 l 1,2,-1
 262 528 l 1,3,-1
 262 655 l 1,4,-1
 386 655 l 1,5,-1
 386 791 l 1,6,-1
 393 791 l 1,7,-1
 393 914 l 1,8,-1
 -7 914 l 1,9,-1
 -7 1315 l 1,10,-1
 393 1315 l 1,11,-1
 393 914 l 1,12,-1
 517 914 l 1,13,-1
 517 1053 l 1,14,-1
 524 1053 l 1,15,-1
 524 1180 l 1,16,-1
 648 1180 l 1,17,-1
 648 1315 l 1,18,-1
 918 1315 l 1,19,-1
 918 1046 l 1,20,-1
 786 1046 l 1,21,-1
 786 783 l 1,22,-1
 655 783 l 1,23,-1
 655 521 l 1,24,-1
 524 521 l 1,25,-1
 524 259 l 1,26,-1
 393 259 l 1,27,-1
 393 -4 l 1,28,-1
 124 -4 l 1,29,-1
 124 266 l 1,30,-1
 131 266 l 1,31,-1
 131 393 l 1,0,-1
648 -4 m 1,32,-1
 648 397 l 1,33,-1
 1049 397 l 1,34,-1
 1049 -4 l 1,35,-1
 648 -4 l 1,32,-1
EndSplineSet
Validated: 5
EndChar

StartChar: ampersand
Encoding: 38 38 9
Width: 1179
Flags: W
LayerCount: 2
Fore
SplineSet
262 791 m 1,0,-1
 386 791 l 1,1,-1
 386 1046 l 1,2,-1
 262 1046 l 1,3,-1
 262 791 l 1,0,-1
262 521 m 1,4,-1
 262 266 l 1,5,-1
 386 266 l 1,6,-1
 386 521 l 1,7,-1
 262 521 l 1,4,-1
-7 -4 m 1,8,-1
 -7 1315 l 1,9,-1
 655 1315 l 1,10,-1
 655 528 l 1,11,-1
 779 528 l 1,12,-1
 779 659 l 1,13,-1
 1049 659 l 1,14,-1
 1049 390 l 1,15,-1
 918 390 l 1,16,-1
 918 266 l 1,17,-1
 1049 266 l 1,18,-1
 1049 -4 l 1,19,-1
 779 -4 l 1,20,-1
 779 128 l 1,21,-1
 655 128 l 1,22,-1
 655 -4 l 1,23,-1
 -7 -4 l 1,8,-1
EndSplineSet
Validated: 1
EndChar

StartChar: quotesingle
Encoding: 39 39 10
Width: 393
Flags: W
LayerCount: 2
Fore
SplineSet
262 783 m 1,0,-1
 -7 783 l 1,1,-1
 -7 1315 l 1,2,-1
 262 1315 l 1,3,-1
 262 783 l 1,0,-1
EndSplineSet
Validated: 1
EndChar

StartChar: parenleft
Encoding: 40 40 11
Width: 524
Flags: W
LayerCount: 2
Fore
SplineSet
393 -135 m 1,0,-1
 124 -135 l 1,1,-1
 124 -4 l 1,2,-1
 -7 -4 l 1,3,-1
 -7 1315 l 1,4,-1
 124 1315 l 1,5,-1
 124 1446 l 1,6,-1
 393 1446 l 1,7,-1
 393 1177 l 1,8,-1
 262 1177 l 1,9,-1
 262 135 l 1,10,-1
 393 135 l 1,11,-1
 393 -135 l 1,0,-1
EndSplineSet
Validated: 1
EndChar

StartChar: parenright
Encoding: 41 41 12
Width: 524
Flags: W
LayerCount: 2
Fore
SplineSet
-7 -135 m 1,0,-1
 262 -135 l 1,1,-1
 262 -4 l 1,2,-1
 393 -4 l 1,3,-1
 393 1315 l 1,4,-1
 262 1315 l 1,5,-1
 262 1446 l 1,6,-1
 -7 1446 l 1,7,-1
 -7 1177 l 1,8,-1
 124 1177 l 1,9,-1
 124 135 l 1,10,-1
 -7 135 l 1,11,-1
 -7 -135 l 1,0,-1
EndSplineSet
Validated: 9
EndChar

StartChar: asterisk
Encoding: 42 42 13
Width: 1048
Flags: W
LayerCount: 2
Fore
SplineSet
393 385 m 1,0,-1
 124 385 l 1,1,-1
 124 523 l 1,2,-1
 255 523 l 1,3,-1
 255 647 l 1,4,-1
 -7 647 l 1,5,-1
 -7 785 l 1,6,-1
 255 785 l 1,7,-1
 255 909 l 1,8,-1
 124 909 l 1,9,-1
 124 1048 l 1,10,-1
 393 1048 l 1,11,-1
 393 916 l 1,12,-1
 517 916 l 1,13,-1
 517 1048 l 1,14,-1
 786 1048 l 1,15,-1
 786 909 l 1,16,-1
 655 909 l 1,17,-1
 655 785 l 1,18,-1
 918 785 l 1,19,-1
 918 647 l 1,20,-1
 655 647 l 1,21,-1
 655 523 l 1,22,-1
 786 523 l 1,23,-1
 786 385 l 1,24,-1
 517 385 l 1,25,-1
 517 516 l 1,26,-1
 393 516 l 1,27,-1
 393 385 l 1,0,-1
EndSplineSet
Validated: 1
EndChar

StartChar: plus
Encoding: 43 43 14
Width: 917
Flags: W
LayerCount: 2
Fore
SplineSet
255 390 m 1,0,-1
 -7 390 l 1,1,-1
 -7 659 l 1,2,-1
 255 659 l 1,3,-1
 255 1053 l 1,4,-1
 524 1053 l 1,5,-1
 524 659 l 1,6,-1
 786 659 l 1,7,-1
 786 390 l 1,8,-1
 524 390 l 1,9,-1
 524 -4 l 1,10,-1
 255 -4 l 1,11,-1
 255 390 l 1,0,-1
EndSplineSet
Validated: 1
EndChar

StartChar: comma
Encoding: 44 44 15
Width: 393
Flags: W
LayerCount: 2
Fore
SplineSet
262 -266 m 1,0,-1
 -7 -266 l 1,1,-1
 -7 266 l 1,2,-1
 262 266 l 1,3,-1
 262 -266 l 1,0,-1
EndSplineSet
Validated: 1
EndChar

StartChar: hyphen
Encoding: 45 45 16
AltUni2: 002010.ffffffff.0
Width: 786
Flags: W
LayerCount: 2
Fore
SplineSet
655 385 m 1,0,-1
 -7 385 l 1,1,-1
 -7 654 l 1,2,-1
 655 654 l 1,3,-1
 655 385 l 1,0,-1
EndSplineSet
Validated: 1
EndChar

StartChar: period
Encoding: 46 46 17
Width: 393
Flags: W
LayerCount: 2
Fore
SplineSet
262 -4 m 1,0,-1
 -7 -4 l 1,1,-1
 -7 266 l 1,2,-1
 262 266 l 1,3,-1
 262 -4 l 1,0,-1
EndSplineSet
Validated: 1
EndChar

StartChar: slash
Encoding: 47 47 18
Width: 917
Flags: W
LayerCount: 2
Fore
SplineSet
262 -4 m 1,0,-1
 -7 -4 l 1,1,-1
 -7 397 l 1,2,-1
 124 397 l 1,3,-1
 124 659 l 1,4,-1
 255 659 l 1,5,-1
 255 922 l 1,6,-1
 386 922 l 1,7,-1
 386 1184 l 1,8,-1
 517 1184 l 1,9,-1
 517 1315 l 1,10,-1
 786 1315 l 1,11,-1
 786 1046 l 1,12,-1
 655 1046 l 1,13,-1
 655 783 l 1,14,-1
 524 783 l 1,15,-1
 524 521 l 1,16,-1
 393 521 l 1,17,-1
 393 259 l 1,18,-1
 262 259 l 1,19,-1
 262 -4 l 1,0,-1
EndSplineSet
Validated: 1
EndChar

StartChar: zero
Encoding: 48 48 19
Width: 786
Flags: W
LayerCount: 2
Fore
SplineSet
262 266 m 1,0,-1
 386 266 l 1,1,-1
 386 1046 l 1,2,-1
 262 1046 l 1,3,-1
 262 266 l 1,0,-1
-7 -4 m 1,4,-1
 -7 1315 l 1,5,-1
 655 1315 l 1,6,-1
 655 -4 l 1,7,-1
 -7 -4 l 1,4,-1
EndSplineSet
Validated: 1
EndChar

StartChar: one
Encoding: 49 49 20
Width: 524
Flags: W
LayerCount: 2
Fore
SplineSet
393 -4 m 1,0,-1
 124 -4 l 1,1,-1
 124 1046 l 1,2,-1
 -7 1046 l 1,3,-1
 -7 1315 l 1,4,-1
 393 1315 l 1,5,-1
 393 -4 l 1,0,-1
EndSplineSet
Validated: 1
EndChar

StartChar: two
Encoding: 50 50 21
Width: 786
Flags: W
LayerCount: 2
Fore
SplineSet
655 -4 m 1,0,-1
 -7 -4 l 1,1,-1
 -7 791 l 1,2,-1
 386 791 l 1,3,-1
 386 1046 l 1,4,-1
 -7 1046 l 1,5,-1
 -7 1315 l 1,6,-1
 655 1315 l 1,7,-1
 655 521 l 1,8,-1
 262 521 l 1,9,-1
 262 266 l 1,10,-1
 655 266 l 1,11,-1
 655 -4 l 1,0,-1
EndSplineSet
Validated: 1
EndChar

StartChar: three
Encoding: 51 51 22
Width: 786
Flags: W
LayerCount: 2
Fore
SplineSet
-7 -4 m 1,0,-1
 -7 266 l 1,1,-1
 386 266 l 1,2,-1
 386 521 l 1,3,-1
 -7 521 l 1,4,-1
 -7 791 l 1,5,-1
 386 791 l 1,6,-1
 386 1046 l 1,7,-1
 -7 1046 l 1,8,-1
 -7 1315 l 1,9,-1
 655 1315 l 1,10,-1
 655 -4 l 1,11,-1
 -7 -4 l 1,0,-1
EndSplineSet
Validated: 1
EndChar

StartChar: four
Encoding: 52 52 23
Width: 786
Flags: W
LayerCount: 2
Fore
SplineSet
386 521 m 1,0,-1
 -7 521 l 1,1,-1
 -7 1315 l 1,2,-1
 262 1315 l 1,3,-1
 262 791 l 1,4,-1
 386 791 l 1,5,-1
 386 1315 l 1,6,-1
 655 1315 l 1,7,-1
 655 -4 l 1,8,-1
 386 -4 l 1,9,-1
 386 521 l 1,0,-1
EndSplineSet
Validated: 1
EndChar

StartChar: five
Encoding: 53 53 24
Width: 786
Flags: W
LayerCount: 2
Fore
SplineSet
655 -4 m 1,0,-1
 -7 -4 l 1,1,-1
 -7 266 l 1,2,-1
 386 266 l 1,3,-1
 386 521 l 1,4,-1
 -7 521 l 1,5,-1
 -7 1315 l 1,6,-1
 655 1315 l 1,7,-1
 655 1046 l 1,8,-1
 262 1046 l 1,9,-1
 262 791 l 1,10,-1
 655 791 l 1,11,-1
 655 -4 l 1,0,-1
EndSplineSet
Validated: 1
EndChar

StartChar: six
Encoding: 54 54 25
Width: 786
Flags: W
LayerCount: 2
Fore
SplineSet
262 266 m 1,0,-1
 386 266 l 1,1,-1
 386 521 l 1,2,-1
 262 521 l 1,3,-1
 262 266 l 1,0,-1
-7 -4 m 1,4,-1
 -7 1315 l 1,5,-1
 655 1315 l 1,6,-1
 655 1046 l 1,7,-1
 262 1046 l 1,8,-1
 262 791 l 1,9,-1
 655 791 l 1,10,-1
 655 -4 l 1,11,-1
 -7 -4 l 1,4,-1
EndSplineSet
Validated: 1
EndChar

StartChar: seven
Encoding: 55 55 26
Width: 786
Flags: W
LayerCount: 2
Fore
SplineSet
655 -4 m 1,0,-1
 386 -4 l 1,1,-1
 386 1046 l 1,2,-1
 -7 1046 l 1,3,-1
 -7 1315 l 1,4,-1
 655 1315 l 1,5,-1
 655 -4 l 1,0,-1
EndSplineSet
Validated: 1
EndChar

StartChar: eight
Encoding: 56 56 27
Width: 786
Flags: W
LayerCount: 2
Fore
SplineSet
-7 -4 m 1,0,-1
 -7 1315 l 1,1,-1
 655 1315 l 1,2,-1
 655 -4 l 1,3,-1
 -7 -4 l 1,0,-1
386 524 m 1,4,-1
 262 524 l 1,5,-1
 262 266 l 1,6,-1
 386 266 l 1,7,-1
 386 524 l 1,4,-1
262 786 m 1,8,-1
 386 786 l 1,9,-1
 386 1046 l 1,10,-1
 262 1046 l 1,11,-1
 262 786 l 1,8,-1
EndSplineSet
Validated: 1
EndChar

StartChar: nine
Encoding: 57 57 28
Width: 786
Flags: W
LayerCount: 2
Fore
SplineSet
262 791 m 1,0,-1
 386 791 l 1,1,-1
 386 1046 l 1,2,-1
 262 1046 l 1,3,-1
 262 791 l 1,0,-1
-7 -4 m 1,4,-1
 -7 266 l 1,5,-1
 386 266 l 1,6,-1
 386 521 l 1,7,-1
 -7 521 l 1,8,-1
 -7 1315 l 1,9,-1
 655 1315 l 1,10,-1
 655 -4 l 1,11,-1
 -7 -4 l 1,4,-1
EndSplineSet
Validated: 1
EndChar

StartChar: colon
Encoding: 58 58 29
Width: 393
Flags: W
LayerCount: 2
Fore
SplineSet
262 521 m 1,0,-1
 -7 521 l 1,1,-1
 -7 791 l 1,2,-1
 262 791 l 1,3,-1
 262 521 l 1,0,-1
262 128 m 1,4,-1
 -7 128 l 1,5,-1
 -7 397 l 1,6,-1
 262 397 l 1,7,-1
 262 128 l 1,4,-1
EndSplineSet
Validated: 1
EndChar

StartChar: semicolon
Encoding: 59 59 30
Width: 393
Flags: W
LayerCount: 2
Fore
SplineSet
262 -266 m 1,0,-1
 -7 -266 l 1,1,-1
 -7 266 l 1,2,-1
 262 266 l 1,3,-1
 262 -266 l 1,0,-1
-4 655 m 1,4,-1
 259 655 l 1,5,-1
 259 393 l 1,6,-1
 -4 393 l 1,7,-1
 -4 655 l 1,4,-1
EndSplineSet
Validated: 1
EndChar

StartChar: less
Encoding: 60 60 31
Width: 917
Flags: W
LayerCount: 2
Fore
SplineSet
786 -4 m 1,0,-1
 386 -4 l 1,1,-1
 386 128 l 1,2,-1
 255 128 l 1,3,-1
 255 259 l 1,4,-1
 124 259 l 1,5,-1
 124 390 l 1,6,-1
 -7 390 l 1,7,-1
 -7 528 l 1,8,-1
 124 528 l 1,9,-1
 124 659 l 1,10,-1
 255 659 l 1,11,-1
 255 791 l 1,12,-1
 386 791 l 1,13,-1
 386 922 l 1,14,-1
 786 922 l 1,15,-1
 786 783 l 1,16,-1
 655 783 l 1,17,-1
 655 652 l 1,18,-1
 524 652 l 1,19,-1
 524 521 l 1,20,-1
 393 521 l 1,21,-1
 393 397 l 1,22,-1
 524 397 l 1,23,-1
 524 266 l 1,24,-1
 655 266 l 1,25,-1
 655 135 l 1,26,-1
 786 135 l 1,27,-1
 786 -4 l 1,0,-1
EndSplineSet
Validated: 1
EndChar

StartChar: equal
Encoding: 61 61 32
Width: 786
Flags: W
LayerCount: 2
Fore
SplineSet
655 516 m 1,0,-1
 -7 516 l 1,1,-1
 -7 785 l 1,2,-1
 655 785 l 1,3,-1
 655 516 l 1,0,-1
655 123 m 1,4,-1
 -7 123 l 1,5,-1
 -7 392 l 1,6,-1
 655 392 l 1,7,-1
 655 123 l 1,4,-1
EndSplineSet
Validated: 1
EndChar

StartChar: greater
Encoding: 62 62 33
Width: 917
Flags: W
LayerCount: 2
Fore
SplineSet
-7 -4 m 1,0,-1
 393 -4 l 1,1,-1
 393 128 l 1,2,-1
 524 128 l 1,3,-1
 524 259 l 1,4,-1
 655 259 l 1,5,-1
 655 390 l 1,6,-1
 786 390 l 1,7,-1
 786 528 l 1,8,-1
 655 528 l 1,9,-1
 655 659 l 1,10,-1
 524 659 l 1,11,-1
 524 791 l 1,12,-1
 393 791 l 1,13,-1
 393 922 l 1,14,-1
 -7 922 l 1,15,-1
 -7 783 l 1,16,-1
 124 783 l 1,17,-1
 124 652 l 1,18,-1
 255 652 l 1,19,-1
 255 521 l 1,20,-1
 386 521 l 1,21,-1
 386 397 l 1,22,-1
 255 397 l 1,23,-1
 255 266 l 1,24,-1
 124 266 l 1,25,-1
 124 135 l 1,26,-1
 -7 135 l 1,27,-1
 -7 -4 l 1,0,-1
EndSplineSet
Validated: 9
EndChar

StartChar: question
Encoding: 63 63 34
Width: 917
Flags: W
LayerCount: 2
Fore
SplineSet
524 390 m 1,0,-1
 255 390 l 1,1,-1
 255 791 l 1,2,-1
 517 791 l 1,3,-1
 517 1046 l 1,4,-1
 262 1046 l 1,5,-1
 262 914 l 1,6,-1
 -7 914 l 1,7,-1
 -7 1315 l 1,8,-1
 786 1315 l 1,9,-1
 786 521 l 1,10,-1
 524 521 l 1,11,-1
 524 390 l 1,0,-1
524 -4 m 1,12,-1
 255 -4 l 1,13,-1
 255 266 l 1,14,-1
 524 266 l 1,15,-1
 524 -4 l 1,12,-1
EndSplineSet
Validated: 1
EndChar

StartChar: at
Encoding: 64 64 35
Width: 917
Flags: W
LayerCount: 2
Fore
SplineSet
-7 -4 m 1,0,-1
 -7 1184 l 1,1,-1
 786 1184 l 1,2,-1
 786 390 l 1,3,-1
 386 390 l 1,4,-1
 386 791 l 1,5,-1
 517 791 l 1,6,-1
 517 914 l 1,7,-1
 262 914 l 1,8,-1
 262 266 l 1,9,-1
 786 266 l 1,10,-1
 786 -4 l 1,11,-1
 -7 -4 l 1,0,-1
EndSplineSet
Validated: 1
EndChar

StartChar: A
Encoding: 65 65 36
Width: 705
VWidth: 875
Flags: W
LayerCount: 2
Fore
SplineSet
313 889 m 1,0,-1
 313 736 l 1,1,-1
 466 736 l 1,2,-1
 466 889 l 1,3,-1
 313 889 l 1,0,-1
313 260 m 1,4,-1
 152 260 l 1,5,-1
 152 1051 l 1,6,-1
 628 1051 l 1,7,-1
 628 260 l 1,8,-1
 466 260 l 1,9,-1
 466 575 l 1,10,-1
 313 575 l 1,11,-1
 313 260 l 1,4,-1
EndSplineSet
Validated: 1
EndChar

StartChar: B
Encoding: 66 66 37
Width: 705
VWidth: 875
Flags: W
LayerCount: 2
Fore
SplineSet
313 889 m 1,0,-1
 313 736 l 1,1,-1
 387 736 l 1,2,-1
 387 889 l 1,3,-1
 313 889 l 1,0,-1
313 422 m 1,4,-1
 466 422 l 1,5,-1
 466 575 l 1,6,-1
 313 575 l 1,7,-1
 313 422 l 1,4,-1
152 260 m 1,8,-1
 152 1051 l 1,9,-1
 549 1051 l 1,10,-1
 549 658 l 1,11,-1
 628 658 l 1,12,-1
 628 260 l 1,13,-1
 152 260 l 1,8,-1
EndSplineSet
Validated: 1
EndChar

StartChar: C
Encoding: 67 67 38
Width: 705
VWidth: 875
Flags: W
LayerCount: 2
Fore
SplineSet
230 260 m 1,0,-1
 230 339 l 1,1,-1
 152 339 l 1,2,-1
 152 972 l 1,3,-1
 230 972 l 1,4,-1
 230 1051 l 1,5,-1
 549 1051 l 1,6,-1
 549 972 l 1,7,-1
 628 972 l 1,8,-1
 628 732 l 1,9,-1
 466 732 l 1,10,-1
 466 889 l 1,11,-1
 313 889 l 1,12,-1
 313 422 l 1,13,-1
 466 422 l 1,14,-1
 466 579 l 1,15,-1
 628 579 l 1,16,-1
 628 339 l 1,17,-1
 549 339 l 1,18,-1
 549 260 l 1,19,-1
 230 260 l 1,0,-1
156 1049 m 1,20,-1
 230 1049 l 1,21,-1
 230 972 l 1,22,-1
 156 972 l 1,23,-1
 156 1049 l 1,20,-1
152 339 m 1,24,-1
 230 339 l 1,25,-1
 230 260 l 1,26,-1
 152 260 l 1,27,-1
 152 339 l 1,24,-1
549 341 m 1,28,-1
 628 341 l 1,29,-1
 628 262 l 1,30,-1
 549 262 l 1,31,-1
 549 341 l 1,28,-1
549 1049 m 1,32,-1
 628 1049 l 1,33,-1
 628 972 l 1,34,-1
 549 972 l 1,35,-1
 549 1049 l 1,32,-1
EndSplineSet
Validated: 5
EndChar

StartChar: D
Encoding: 68 68 39
Width: 705
VWidth: 875
Flags: W
LayerCount: 2
Fore
SplineSet
313 422 m 1,0,-1
 466 422 l 1,1,-1
 466 889 l 1,2,-1
 313 889 l 1,3,-1
 313 422 l 1,0,-1
152 260 m 1,4,-1
 152 1051 l 1,5,-1
 549 1051 l 1,6,-1
 549 972 l 1,7,-1
 628 972 l 1,8,-1
 628 339 l 1,9,-1
 549 339 l 1,10,-1
 549 260 l 1,11,-1
 152 260 l 1,4,-1
EndSplineSet
Validated: 1
EndChar

StartChar: E
Encoding: 69 69 40
Width: 601
VWidth: 875
Flags: W
LayerCount: 2
Fore
SplineSet
523 260 m 1,0,-1
 125 260 l 1,1,-1
 125 1051 l 1,2,-1
 523 1051 l 1,3,-1
 523 889 l 1,4,-1
 287 889 l 1,5,-1
 287 736 l 1,6,-1
 523 736 l 1,7,-1
 523 575 l 1,8,-1
 287 575 l 1,9,-1
 287 422 l 1,10,-1
 523 422 l 1,11,-1
 523 260 l 1,0,-1
EndSplineSet
Validated: 1
EndChar

StartChar: F
Encoding: 70 70 41
Width: 601
VWidth: 875
Flags: W
LayerCount: 2
Fore
SplineSet
287 260 m 1,0,-1
 125 260 l 1,1,-1
 125 1051 l 1,2,-1
 523 1051 l 1,3,-1
 523 889 l 1,4,-1
 287 889 l 1,5,-1
 287 736 l 1,6,-1
 523 736 l 1,7,-1
 523 575 l 1,8,-1
 287 575 l 1,9,-1
 287 260 l 1,0,-1
EndSplineSet
Validated: 1
EndChar

StartChar: G
Encoding: 71 71 42
Width: 705
VWidth: 875
Flags: W
LayerCount: 2
Fore
SplineSet
230 260 m 1,0,-1
 230 339 l 1,1,-1
 152 339 l 1,2,-1
 152 972 l 1,3,-1
 230 972 l 1,4,-1
 230 1051 l 1,5,-1
 628 1051 l 1,6,-1
 628 889 l 1,7,-1
 313 889 l 1,8,-1
 313 422 l 1,9,-1
 466 422 l 1,10,-1
 466 575 l 1,11,-1
 387 575 l 1,12,-1
 387 736 l 1,13,-1
 628 736 l 1,14,-1
 628 339 l 1,15,-1
 549 339 l 1,16,-1
 549 260 l 1,17,-1
 230 260 l 1,0,-1
156 1049 m 1,18,-1
 230 1049 l 1,19,-1
 230 972 l 1,20,-1
 156 972 l 1,21,-1
 156 1049 l 1,18,-1
549 339 m 1,22,-1
 628 339 l 1,23,-1
 628 262 l 1,24,-1
 549 262 l 1,25,-1
 549 339 l 1,22,-1
152 339 m 1,26,-1
 230 339 l 1,27,-1
 230 260 l 1,28,-1
 152 260 l 1,29,-1
 152 339 l 1,26,-1
EndSplineSet
Validated: 5
EndChar

StartChar: H
Encoding: 72 72 43
Width: 705
VWidth: 875
Flags: W
LayerCount: 2
Fore
SplineSet
313 260 m 1,0,-1
 152 260 l 1,1,-1
 152 1051 l 1,2,-1
 313 1051 l 1,3,-1
 313 736 l 1,4,-1
 466 736 l 1,5,-1
 466 1051 l 1,6,-1
 628 1051 l 1,7,-1
 628 260 l 1,8,-1
 466 260 l 1,9,-1
 466 575 l 1,10,-1
 313 575 l 1,11,-1
 313 260 l 1,0,-1
EndSplineSet
Validated: 1
EndChar

StartChar: I
Encoding: 73 73 44
Width: 286
VWidth: 875
Flags: W
LayerCount: 2
Fore
SplineSet
208 260 m 1,0,-1
 47 260 l 1,1,-1
 47 1051 l 1,2,-1
 208 1051 l 1,3,-1
 208 260 l 1,0,-1
EndSplineSet
Validated: 1
EndChar

StartChar: J
Encoding: 74 74 45
Width: 705
VWidth: 875
Flags: W
LayerCount: 2
Fore
SplineSet
230 260 m 1,0,-1
 230 339 l 1,1,-1
 152 339 l 1,2,-1
 152 658 l 1,3,-1
 313 658 l 1,4,-1
 313 422 l 1,5,-1
 466 422 l 1,6,-1
 466 1051 l 1,7,-1
 628 1051 l 1,8,-1
 628 339 l 1,9,-1
 549 339 l 1,10,-1
 549 260 l 1,11,-1
 230 260 l 1,0,-1
152 339 m 1,12,-1
 230 339 l 1,13,-1
 230 260 l 1,14,-1
 152 260 l 1,15,-1
 152 339 l 1,12,-1
549 339 m 1,16,-1
 628 339 l 1,17,-1
 628 262 l 1,18,-1
 549 262 l 1,19,-1
 549 339 l 1,16,-1
EndSplineSet
Validated: 5
EndChar

StartChar: K
Encoding: 75 75 46
Width: 705
VWidth: 875
Flags: W
LayerCount: 2
Fore
SplineSet
313 260 m 1,0,-1
 152 260 l 1,1,-1
 152 1051 l 1,2,-1
 313 1051 l 1,3,-1
 313 736 l 1,4,-1
 466 736 l 1,5,-1
 466 1051 l 1,6,-1
 628 1051 l 1,7,-1
 628 732 l 1,8,-1
 549 732 l 1,9,-1
 549 579 l 1,10,-1
 628 579 l 1,11,-1
 628 260 l 1,12,-1
 466 260 l 1,13,-1
 466 575 l 1,14,-1
 313 575 l 1,15,-1
 313 260 l 1,0,-1
EndSplineSet
Validated: 1
EndChar

StartChar: L
Encoding: 76 76 47
Width: 601
VWidth: 875
Flags: W
LayerCount: 2
Fore
SplineSet
125 260 m 1,0,-1
 125 1051 l 1,1,-1
 287 1051 l 1,2,-1
 287 422 l 1,3,-1
 523 422 l 1,4,-1
 523 260 l 1,5,-1
 125 260 l 1,0,-1
EndSplineSet
Validated: 1
EndChar

StartChar: M
Encoding: 77 77 48
Width: 1125
VWidth: 875
Flags: W
LayerCount: 2
Fore
SplineSet
418 260 m 1,0,-1
 256 260 l 1,1,-1
 256 1051 l 1,2,-1
 1047 1051 l 1,3,-1
 1047 260 l 1,4,-1
 886 260 l 1,5,-1
 886 889 l 1,6,-1
 733 889 l 1,7,-1
 733 260 l 1,8,-1
 571 260 l 1,9,-1
 571 889 l 1,10,-1
 418 889 l 1,11,-1
 418 260 l 1,0,-1
EndSplineSet
Validated: 1
EndChar

StartChar: N
Encoding: 78 78 49
Width: 705
VWidth: 875
Flags: W
LayerCount: 2
Fore
SplineSet
313 260 m 1,0,-1
 152 260 l 1,1,-1
 152 1051 l 1,2,-1
 628 1051 l 1,3,-1
 628 260 l 1,4,-1
 466 260 l 1,5,-1
 466 889 l 1,6,-1
 313 889 l 1,7,-1
 313 260 l 1,0,-1
EndSplineSet
Validated: 1
EndChar

StartChar: O
Encoding: 79 79 50
Width: 705
VWidth: 875
Flags: W
LayerCount: 2
Fore
SplineSet
313 422 m 1,0,-1
 466 422 l 1,1,-1
 466 889 l 1,2,-1
 313 889 l 1,3,-1
 313 422 l 1,0,-1
230 260 m 1,4,-1
 230 339 l 1,5,-1
 152 339 l 1,6,-1
 152 972 l 1,7,-1
 230 972 l 1,8,-1
 230 1051 l 1,9,-1
 549 1051 l 1,10,-1
 549 972 l 1,11,-1
 628 972 l 1,12,-1
 628 339 l 1,13,-1
 549 339 l 1,14,-1
 549 260 l 1,15,-1
 230 260 l 1,4,-1
156 1049 m 1,16,-1
 230 1049 l 1,17,-1
 230 972 l 1,18,-1
 156 972 l 1,19,-1
 156 1049 l 1,16,-1
549 1051 m 1,20,-1
 628 1051 l 1,21,-1
 628 972 l 1,22,-1
 549 972 l 1,23,-1
 549 1051 l 1,20,-1
549 339 m 1,24,-1
 628 339 l 1,25,-1
 628 262 l 1,26,-1
 549 262 l 1,27,-1
 549 339 l 1,24,-1
152 339 m 1,28,-1
 230 339 l 1,29,-1
 230 260 l 1,30,-1
 152 260 l 1,31,-1
 152 339 l 1,28,-1
EndSplineSet
Validated: 5
EndChar

StartChar: P
Encoding: 80 80 51
Width: 705
VWidth: 875
Flags: W
LayerCount: 2
Fore
SplineSet
313 889 m 1,0,-1
 313 736 l 1,1,-1
 466 736 l 1,2,-1
 466 889 l 1,3,-1
 313 889 l 1,0,-1
313 260 m 1,4,-1
 152 260 l 1,5,-1
 152 1051 l 1,6,-1
 549 1051 l 1,7,-1
 549 972 l 1,8,-1
 628 972 l 1,9,-1
 628 654 l 1,10,-1
 549 654 l 1,11,-1
 549 575 l 1,12,-1
 313 575 l 1,13,-1
 313 260 l 1,4,-1
549 1051 m 1,14,-1
 628 1051 l 1,15,-1
 628 972 l 1,16,-1
 549 972 l 1,17,-1
 549 1051 l 1,14,-1
549 654 m 1,18,-1
 628 654 l 1,19,-1
 628 577 l 1,20,-1
 549 577 l 1,21,-1
 549 654 l 1,18,-1
EndSplineSet
Validated: 5
EndChar

StartChar: Q
Encoding: 81 81 52
Width: 705
VWidth: 824
Flags: W
LayerCount: 2
Fore
SplineSet
313 370 m 1,0,-1
 466 370 l 1,1,-1
 466 838 l 1,2,-1
 313 838 l 1,3,-1
 313 370 l 1,0,-1
230 208 m 1,4,-1
 230 287 l 1,5,-1
 152 287 l 1,6,-1
 152 921 l 1,7,-1
 230 921 l 1,8,-1
 230 999 l 1,9,-1
 549 999 l 1,10,-1
 549 921 l 1,11,-1
 628 921 l 1,12,-1
 628 287 l 1,13,-1
 549 287 l 1,14,-1
 549 208 l 1,15,-1
 230 208 l 1,4,-1
313 208 m 1,16,-1
 469 208 l 1,17,-1
 469 53 l 1,18,-1
 313 53 l 1,19,-1
 313 208 l 1,16,-1
156 997 m 1,20,-1
 230 997 l 1,21,-1
 230 921 l 1,22,-1
 156 921 l 1,23,-1
 156 997 l 1,20,-1
549 999 m 1,24,-1
 628 999 l 1,25,-1
 628 921 l 1,26,-1
 549 921 l 1,27,-1
 549 999 l 1,24,-1
549 287 m 1,28,-1
 628 287 l 1,29,-1
 628 211 l 1,30,-1
 549 211 l 1,31,-1
 549 287 l 1,28,-1
152 287 m 1,32,-1
 230 287 l 1,33,-1
 230 208 l 1,34,-1
 152 208 l 1,35,-1
 152 287 l 1,32,-1
EndSplineSet
Validated: 5
EndChar

StartChar: R
Encoding: 82 82 53
Width: 705
VWidth: 875
Flags: W
LayerCount: 2
Fore
SplineSet
313 889 m 1,0,-1
 313 736 l 1,1,-1
 466 736 l 1,2,-1
 466 889 l 1,3,-1
 313 889 l 1,0,-1
313 260 m 1,4,-1
 152 260 l 1,5,-1
 152 1051 l 1,6,-1
 549 1051 l 1,7,-1
 549 972 l 1,8,-1
 628 972 l 1,9,-1
 628 654 l 1,10,-1
 549 654 l 1,11,-1
 549 579 l 1,12,-1
 628 579 l 1,13,-1
 628 260 l 1,14,-1
 466 260 l 1,15,-1
 466 575 l 1,16,-1
 313 575 l 1,17,-1
 313 260 l 1,4,-1
549 1051 m 1,18,-1
 628 1051 l 1,19,-1
 628 972 l 1,20,-1
 549 972 l 1,21,-1
 549 1051 l 1,18,-1
EndSplineSet
Validated: 5
EndChar

StartChar: S
Encoding: 83 83 54
Width: 705
VWidth: 875
Flags: W
LayerCount: 2
Fore
SplineSet
549 260 m 1,0,-1
 152 260 l 1,1,-1
 152 422 l 1,2,-1
 466 422 l 1,3,-1
 466 575 l 1,4,-1
 230 575 l 1,5,-1
 230 654 l 1,6,-1
 152 654 l 1,7,-1
 152 972 l 1,8,-1
 230 972 l 1,9,-1
 230 1051 l 1,10,-1
 628 1051 l 1,11,-1
 628 889 l 1,12,-1
 313 889 l 1,13,-1
 313 736 l 1,14,-1
 549 736 l 1,15,-1
 549 658 l 1,16,-1
 628 658 l 1,17,-1
 628 339 l 1,18,-1
 549 339 l 1,19,-1
 549 260 l 1,0,-1
156 1049 m 1,20,-1
 230 1049 l 1,21,-1
 230 972 l 1,22,-1
 156 972 l 1,23,-1
 156 1049 l 1,20,-1
152 654 m 1,24,-1
 230 654 l 1,25,-1
 230 575 l 1,26,-1
 152 575 l 1,27,-1
 152 654 l 1,24,-1
549 736 m 1,28,-1
 628 736 l 1,29,-1
 628 658 l 1,30,-1
 549 658 l 1,31,-1
 549 736 l 1,28,-1
549 339 m 1,32,-1
 628 339 l 1,33,-1
 628 262 l 1,34,-1
 549 262 l 1,35,-1
 549 339 l 1,32,-1
EndSplineSet
Validated: 5
EndChar

StartChar: T
Encoding: 84 84 55
Width: 705
VWidth: 875
Flags: W
LayerCount: 2
Fore
SplineSet
470 260 m 1,0,-1
 309 260 l 1,1,-1
 309 889 l 1,2,-1
 152 889 l 1,3,-1
 152 1051 l 1,4,-1
 628 1051 l 1,5,-1
 628 889 l 1,6,-1
 470 889 l 1,7,-1
 470 260 l 1,0,-1
EndSplineSet
Validated: 1
EndChar

StartChar: U
Encoding: 85 85 56
Width: 705
VWidth: 875
Flags: W
LayerCount: 2
Fore
SplineSet
230 260 m 1,0,-1
 230 339 l 1,1,-1
 152 339 l 1,2,-1
 152 1051 l 1,3,-1
 313 1051 l 1,4,-1
 313 422 l 1,5,-1
 466 422 l 1,6,-1
 466 1051 l 1,7,-1
 628 1051 l 1,8,-1
 628 339 l 1,9,-1
 549 339 l 1,10,-1
 549 260 l 1,11,-1
 230 260 l 1,0,-1
152 339 m 1,12,-1
 230 339 l 1,13,-1
 230 260 l 1,14,-1
 152 260 l 1,15,-1
 152 339 l 1,12,-1
549 339 m 1,16,-1
 628 339 l 1,17,-1
 628 262 l 1,18,-1
 549 262 l 1,19,-1
 549 339 l 1,16,-1
EndSplineSet
Validated: 5
EndChar

StartChar: V
Encoding: 86 86 57
Width: 705
VWidth: 875
Flags: W
LayerCount: 2
Fore
SplineSet
152 260 m 1,0,-1
 152 1051 l 1,1,-1
 313 1051 l 1,2,-1
 313 422 l 1,3,-1
 387 422 l 1,4,-1
 387 501 l 1,5,-1
 466 501 l 1,6,-1
 466 1051 l 1,7,-1
 628 1051 l 1,8,-1
 628 418 l 1,9,-1
 549 418 l 1,10,-1
 549 339 l 1,11,-1
 470 339 l 1,12,-1
 470 260 l 1,13,-1
 152 260 l 1,0,-1
EndSplineSet
Validated: 1
EndChar

StartChar: W
Encoding: 87 87 58
Width: 915
VWidth: 875
Flags: W
LayerCount: 2
Fore
SplineSet
366 422 m 1,0,-1
 440 422 l 1,1,-1
 440 1051 l 1,2,-1
 601 1051 l 1,3,-1
 601 422 l 1,4,-1
 676 422 l 1,5,-1
 676 1051 l 1,6,-1
 837 1051 l 1,7,-1
 837 339 l 1,8,-1
 759 339 l 1,9,-1
 759 260 l 1,10,-1
 283 260 l 1,11,-1
 283 339 l 1,12,-1
 204 339 l 1,13,-1
 204 1051 l 1,14,-1
 366 1051 l 1,15,-1
 366 422 l 1,0,-1
204 339 m 1,16,-1
 283 339 l 1,17,-1
 283 260 l 1,18,-1
 204 260 l 1,19,-1
 204 339 l 1,16,-1
759 339 m 1,20,-1
 837 339 l 1,21,-1
 837 262 l 1,22,-1
 759 262 l 1,23,-1
 759 339 l 1,20,-1
EndSplineSet
Validated: 5
EndChar

StartChar: X
Encoding: 88 88 59
Width: 705
VWidth: 875
Flags: W
LayerCount: 2
Fore
SplineSet
313 260 m 1,0,-1
 152 260 l 1,1,-1
 152 579 l 1,2,-1
 230 579 l 1,3,-1
 230 732 l 1,4,-1
 152 732 l 1,5,-1
 152 1051 l 1,6,-1
 313 1051 l 1,7,-1
 313 736 l 1,8,-1
 466 736 l 1,9,-1
 466 1051 l 1,10,-1
 628 1051 l 1,11,-1
 628 732 l 1,12,-1
 549 732 l 1,13,-1
 549 579 l 1,14,-1
 628 579 l 1,15,-1
 628 260 l 1,16,-1
 466 260 l 1,17,-1
 466 575 l 1,18,-1
 313 575 l 1,19,-1
 313 260 l 1,0,-1
156 655 m 1,20,-1
 230 655 l 1,21,-1
 230 579 l 1,22,-1
 156 579 l 1,23,-1
 156 655 l 1,20,-1
549 655 m 1,24,-1
 628 655 l 1,25,-1
 628 577 l 1,26,-1
 549 577 l 1,27,-1
 549 655 l 1,24,-1
EndSplineSet
Validated: 5
EndChar

StartChar: Y
Encoding: 89 89 60
Width: 705
VWidth: 875
Flags: W
LayerCount: 2
Fore
SplineSet
470 260 m 1,0,-1
 309 260 l 1,1,-1
 309 575 l 1,2,-1
 152 575 l 1,3,-1
 152 1051 l 1,4,-1
 313 1051 l 1,5,-1
 313 736 l 1,6,-1
 466 736 l 1,7,-1
 466 1051 l 1,8,-1
 628 1051 l 1,9,-1
 628 575 l 1,10,-1
 470 575 l 1,11,-1
 470 260 l 1,0,-1
EndSplineSet
Validated: 1
EndChar

StartChar: Z
Encoding: 90 90 61
Width: 705
VWidth: 875
Flags: W
LayerCount: 2
Fore
SplineSet
628 260 m 1,0,-1
 152 260 l 1,1,-1
 152 579 l 1,2,-1
 230 579 l 1,3,-1
 230 658 l 1,4,-1
 309 658 l 1,5,-1
 309 736 l 1,6,-1
 387 736 l 1,7,-1
 387 815 l 1,8,-1
 466 815 l 1,9,-1
 466 889 l 1,10,-1
 152 889 l 1,11,-1
 152 1051 l 1,12,-1
 628 1051 l 1,13,-1
 628 811 l 1,14,-1
 549 811 l 1,15,-1
 549 732 l 1,16,-1
 470 732 l 1,17,-1
 470 654 l 1,18,-1
 392 654 l 1,19,-1
 392 575 l 1,20,-1
 313 575 l 1,21,-1
 313 422 l 1,22,-1
 628 422 l 1,23,-1
 628 260 l 1,0,-1
313 575 m 1,24,-1
 392 575 l 1,25,-1
 392 498 l 1,26,-1
 313 498 l 1,27,-1
 313 575 l 1,24,-1
392 654 m 1,28,-1
 470 654 l 1,29,-1
 470 577 l 1,30,-1
 392 577 l 1,31,-1
 392 654 l 1,28,-1
470 732 m 1,32,-1
 549 732 l 1,33,-1
 549 655 l 1,34,-1
 470 655 l 1,35,-1
 470 732 l 1,32,-1
549 811 m 1,36,-1
 628 811 l 1,37,-1
 628 734 l 1,38,-1
 549 734 l 1,39,-1
 549 811 l 1,36,-1
EndSplineSet
Validated: 5
EndChar

StartChar: bracketleft
Encoding: 91 91 62
Width: 391
VWidth: 875
Flags: W
LayerCount: 2
Fore
SplineSet
313 181 m 1,0,-1
 152 181 l 1,1,-1
 152 260 l 1,2,-1
 73 260 l 1,3,-1
 73 1051 l 1,4,-1
 152 1051 l 1,5,-1
 152 1130 l 1,6,-1
 313 1130 l 1,7,-1
 313 968 l 1,8,-1
 234 968 l 1,9,-1
 234 343 l 1,10,-1
 313 343 l 1,11,-1
 313 181 l 1,0,-1
75 1127 m 1,12,-1
 152 1127 l 1,13,-1
 152 1051 l 1,14,-1
 75 1051 l 1,15,-1
 75 1127 l 1,12,-1
73 260 m 1,16,-1
 152 260 l 1,17,-1
 152 181 l 1,18,-1
 73 181 l 1,19,-1
 73 260 l 1,16,-1
EndSplineSet
Validated: 5
EndChar

StartChar: backslash
Encoding: 92 92 63
Width: 705
VWidth: 875
Flags: W
LayerCount: 2
Fore
SplineSet
466 260 m 1,0,-1
 628 260 l 1,1,-1
 628 501 l 1,2,-1
 549 501 l 1,3,-1
 549 658 l 1,4,-1
 470 658 l 1,5,-1
 470 815 l 1,6,-1
 392 815 l 1,7,-1
 392 972 l 1,8,-1
 313 972 l 1,9,-1
 313 1051 l 1,10,-1
 152 1051 l 1,11,-1
 152 889 l 1,12,-1
 230 889 l 1,13,-1
 230 732 l 1,14,-1
 309 732 l 1,15,-1
 309 575 l 1,16,-1
 387 575 l 1,17,-1
 387 418 l 1,18,-1
 466 418 l 1,19,-1
 466 260 l 1,0,-1
EndSplineSet
Validated: 9
EndChar

StartChar: bracketright
Encoding: 93 93 64
Width: 391
VWidth: 875
Flags: W
LayerCount: 2
Fore
SplineSet
73 181 m 1,0,-1
 234 181 l 1,1,-1
 234 260 l 1,2,-1
 313 260 l 1,3,-1
 313 1051 l 1,4,-1
 234 1051 l 1,5,-1
 234 1130 l 1,6,-1
 73 1130 l 1,7,-1
 73 968 l 1,8,-1
 152 968 l 1,9,-1
 152 343 l 1,10,-1
 73 343 l 1,11,-1
 73 181 l 1,0,-1
311 1127 m 1,12,-1
 234 1127 l 1,13,-1
 234 1051 l 1,14,-1
 311 1051 l 1,15,-1
 311 1127 l 1,12,-1
313 260 m 1,16,-1
 234 260 l 1,17,-1
 234 181 l 1,18,-1
 313 181 l 1,19,-1
 313 260 l 1,16,-1
EndSplineSet
Validated: 5
EndChar

StartChar: asciicircum
Encoding: 94 94 65
Width: 811
VWidth: 1031
Flags: W
LayerCount: 2
Fore
SplineSet
418 885 m 1,0,-1
 178 885 l 1,1,-1
 178 967 l 1,2,-1
 256 967 l 1,3,-1
 256 1046 l 1,4,-1
 335 1046 l 1,5,-1
 335 1125 l 1,6,-1
 414 1125 l 1,7,-1
 414 1203 l 1,8,-1
 497 1203 l 1,9,-1
 497 1125 l 1,10,-1
 575 1125 l 1,11,-1
 575 1046 l 1,12,-1
 654 1046 l 1,13,-1
 654 967 l 1,14,-1
 733 967 l 1,15,-1
 733 885 l 1,16,-1
 492 885 l 1,17,-1
 492 963 l 1,18,-1
 418 963 l 1,19,-1
 418 885 l 1,0,-1
EndSplineSet
Validated: 1
EndChar

StartChar: underscore
Encoding: 95 95 66
Width: 601
VWidth: 509
Flags: W
LayerCount: 2
Fore
SplineSet
444 -264 m 1,0,-1
 125 -264 l 1,1,-1
 125 -181 l 1,2,-1
 444 -181 l 1,3,-1
 444 -264 l 1,0,-1
125 -264 m 1,4,-1
 444 -264 l 1,5,-1
 444 -340 l 1,6,-1
 125 -340 l 1,7,-1
 125 -264 l 1,4,-1
444 -181 m 1,8,-1
 523 -181 l 1,9,-1
 523 -340 l 1,10,-1
 444 -340 l 1,11,-1
 444 -181 l 1,8,-1
EndSplineSet
Validated: 5
EndChar

StartChar: grave
Encoding: 96 96 67
Width: 391
VWidth: 1138
Flags: W
LayerCount: 2
Fore
SplineSet
313 1230 m 1,0,-1
 152 1230 l 1,1,-1
 152 1309 l 1,2,-1
 73 1309 l 1,3,-1
 73 1392 l 1,4,-1
 234 1392 l 1,5,-1
 234 1313 l 1,6,-1
 313 1313 l 1,7,-1
 313 1230 l 1,0,-1
EndSplineSet
Validated: 1
EndChar

StartChar: a
Encoding: 97 97 68
Width: 780
VWidth: 1382
InSpiro: 1
Flags: MW
LayerCount: 2
Back
SplineSet
29.3603515625 371.196289062 m 1,0,-1
 125.829101562 420.478515625 l 1,1,-1
 130.0234375 456.130859375 l 1,2,-1
 248.512695312 498.07421875 l 1,3,-1
 255.852539062 516.948242188 l 1,4,-1
 434.110351562 504.365234375 l 1,5,-1
 504.365234375 442.499023438 l 1,6,-1
 614.465820312 442.499023438 l 1,7,-1
 708.836914062 322.9609375 l 1,8,-1
 541.065429688 162.529296875 l 1,9,-1
 527.43359375 48.234375 l 1,10,-1
 391.119140625 0 l 1,11,-1
 284.1640625 19.9228515625 l 1,12,-1
 235.9296875 5.2431640625 l 1,13,-1
 103.80859375 122.682617188 l 1,14,-1
 116.391601562 200.278320312 l 1,15,-1
 29.3603515625 277.873046875 l 1,16,-1
 29.3603515625 371.196289062 l 1,0,-1
158.334960938 432.012695312 m 1,17,-1
 158.334960938 333.447265625 l 1,18,-1
 197.131835938 330.30078125 l 1,19,-1
 170.91796875 303.038085938 l 1,20,-1
 212.861328125 252.70703125 l 1,21,-1
 240.124023438 248.512695312 l 1,22,-1
 227.541015625 239.075195312 l 1,23,-1
 255.852539062 200.278320312 l 1,24,-1
 217.0546875 349.17578125 l 1,25,-1
 245.3671875 462.421875 l 1,26,-1
 158.334960938 432.012695312 l 1,17,-1
429.916015625 475.004882812 m 1,27,-1
 284.1640625 490.734375 l 1,28,-1
 245.3671875 351.2734375 l 1,29,-1
 307.233398438 349.17578125 l 1,30,-1
 255.852539062 330.30078125 l 1,31,-1
 266.337890625 262.143554688 l 1,32,-1
 355.466796875 252.70703125 l 1,33,-1
 277.873046875 226.4921875 l 1,34,-1
 307.233398438 181.404296875 l 1,35,-1
 380.6328125 216.006835938 l 1,36,-1
 397.41015625 300.94140625 l 1,37,-1
 423.625 330.30078125 l 1,38,-1
 380.6328125 456.130859375 l 1,39,-1
 439.352539062 355.466796875 l 1,40,-1
 487.587890625 424.672851562 l 1,41,-1
 429.916015625 475.004882812 l 1,27,-1
240.124023438 32.505859375 m 1,42,-1
 255.852539062 32.505859375 l 1,43,-1
 227.541015625 87.0322265625 l 1,44,-1
 304.086914062 32.505859375 l 1,45,-1
 391.119140625 26.2138671875 l 1,46,-1
 494.927734375 71.302734375 l 1,47,-1
 517.997070312 157.286132812 l 1,48,-1
 682.623046875 330.30078125 l 1,49,-1
 672.13671875 338.690429688 l 1,50,-1
 611.3203125 409.993164062 l 1,51,-1
 517.997070312 426.76953125 l 1,52,-1
 456.130859375 326.107421875 l 1,53,-1
 416.28515625 287.309570312 l 1,54,-1
 413.138671875 242.220703125 l 1,55,-1
 384.827148438 84.9345703125 l 1,56,-1
 384.827148438 187.6953125 l 1,57,-1
 319.81640625 149.946289062 l 1,58,-1
 275.775390625 178.2578125 l 1,59,-1
 268.434570312 167.772460938 l 1,60,-1
 232.784179688 183.500976562 l 1,61,-1
 179.305664062 157.286132812 l 1,62,-1
 133.168945312 190.840820312 l 1,63,-1
 130.0234375 135.265625 l 1,64,-1
 240.124023438 32.505859375 l 1,42,-1
57.671875 307.233398438 m 1,65,-1
 97.517578125 303.038085938 l 1,66,-1
 74.44921875 279.969726562 l 1,67,-1
 138.412109375 226.4921875 l 1,68,-1
 162.529296875 229.637695312 l 1,69,-1
 152.043945312 210.763671875 l 1,70,-1
 179.305664062 190.840820312 l 1,71,-1
 210.763671875 210.763671875 l 1,72,-1
 130.0234375 310.377929688 l 1,73,-1
 130.0234375 394.264648438 l 1,74,-1
 55.5751953125 361.758789062 l 1,75,-1
 57.671875 307.233398438 l 1,65,-1
607.125976562 310.377929688 m 1,76,-1
 541.065429688 371.196289062 l 1,77,-1
 659.553710938 326.107421875 l 1,78,-1
 607.125976562 310.377929688 l 1,76,-1
EndSplineSet
Fore
SplineSet
-37.6826171875 589.311523438 m 1,0,-1
 75.3662109375 647.06640625 l 1,1,-1
 80.2822265625 688.844726562 l 1,2,-1
 219.135742188 737.997070312 l 1,3,-1
 227.73828125 760.115234375 l 1,4,-1
 436.633789062 745.370117188 l 1,5,-1
 518.962890625 672.870117188 l 1,6,-1
 647.987304688 672.870117188 l 1,7,-1
 758.579101562 532.787109375 l 1,8,-1
 561.970703125 344.78125 l 1,9,-1
 545.997070312 210.841796875 l 1,10,-1
 386.252929688 154.317382812 l 1,11,-1
 260.915039062 177.6640625 l 1,12,-1
 204.389648438 160.4609375 l 1,13,-1
 49.5615234375 298.0859375 l 1,14,-1
 64.306640625 389.017578125 l 1,15,-1
 -37.6826171875 479.94921875 l 1,16,-1
 -37.6826171875 589.311523438 l 1,0,-1
113.458984375 660.58203125 m 1,17,-1
 113.458984375 545.075195312 l 1,18,-1
 158.924804688 541.388671875 l 1,19,-1
 128.205078125 509.440429688 l 1,20,-1
 177.357421875 450.458007812 l 1,21,-1
 209.305664062 445.541992188 l 1,22,-1
 194.559570312 434.483398438 l 1,23,-1
 227.73828125 389.017578125 l 1,24,-1
 182.272460938 563.506835938 l 1,25,-1
 215.450195312 696.217773438 l 1,26,-1
 113.458984375 660.58203125 l 1,17,-1
431.717773438 710.962890625 m 1,27,-1
 260.915039062 729.39453125 l 1,28,-1
 215.450195312 565.96484375 l 1,29,-1
 287.94921875 563.506835938 l 1,30,-1
 227.73828125 541.388671875 l 1,31,-1
 240.026367188 461.516601562 l 1,32,-1
 344.473632812 450.458007812 l 1,33,-1
 253.541992188 419.73828125 l 1,34,-1
 287.94921875 366.899414062 l 1,35,-1
 373.96484375 407.450195312 l 1,36,-1
 393.625976562 506.982421875 l 1,37,-1
 424.345703125 541.388671875 l 1,38,-1
 373.96484375 688.844726562 l 1,39,-1
 442.778320312 570.879882812 l 1,40,-1
 499.301757812 651.981445312 l 1,41,-1
 431.717773438 710.962890625 l 1,27,-1
209.305664062 192.41015625 m 1,42,-1
 227.73828125 192.41015625 l 1,43,-1
 194.559570312 256.306640625 l 1,44,-1
 284.26171875 192.41015625 l 1,45,-1
 386.252929688 185.037109375 l 1,46,-1
 507.904296875 237.875 l 1,47,-1
 534.938476562 338.63671875 l 1,48,-1
 727.859375 541.388671875 l 1,49,-1
 715.571289062 551.21875 l 1,50,-1
 644.30078125 634.778320312 l 1,51,-1
 534.938476562 654.438476562 l 1,52,-1
 462.438476562 536.473632812 l 1,53,-1
 415.744140625 491.0078125 l 1,54,-1
 412.057617188 438.169921875 l 1,55,-1
 378.879882812 253.849609375 l 1,56,-1
 378.879882812 374.272460938 l 1,57,-1
 302.694335938 330.03515625 l 1,58,-1
 251.084960938 363.212890625 l 1,59,-1
 242.483398438 350.924804688 l 1,60,-1
 200.704101562 369.357421875 l 1,61,-1
 138.03515625 338.63671875 l 1,62,-1
 83.9677734375 377.958007812 l 1,63,-1
 80.2822265625 312.83203125 l 1,64,-1
 209.305664062 192.41015625 l 1,42,-1
-4.505859375 514.35546875 m 1,65,-1
 42.189453125 509.440429688 l 1,66,-1
 15.1552734375 482.40625 l 1,67,-1
 90.1123046875 419.73828125 l 1,68,-1
 118.374023438 423.423828125 l 1,69,-1
 106.0859375 401.305664062 l 1,70,-1
 138.03515625 377.958007812 l 1,71,-1
 174.899414062 401.305664062 l 1,72,-1
 80.2822265625 518.041992188 l 1,73,-1
 80.2822265625 616.345703125 l 1,74,-1
 -6.962890625 578.252929688 l 1,75,-1
 -4.505859375 514.35546875 l 1,65,-1
639.385742188 518.041992188 m 1,76,-1
 561.970703125 589.311523438 l 1,77,-1
 700.826171875 536.473632812 l 1,78,-1
 639.385742188 518.041992188 l 1,76,-1
EndSplineSet
Validated: 525313
EndChar

StartChar: b
Encoding: 98 98 69
Width: 578
VWidth: 1355
Flags: W
LayerCount: 2
Back
SplineSet
20.9716796875 175.112304688 m 1,0,-1
 70.2548828125 277.873046875 l 1,1,-1
 112.198242188 277.873046875 l 1,2,-1
 138.412109375 334.49609375 l 1,3,-1
 99.615234375 440.40234375 l 1,4,-1
 31.45703125 553.6484375 l 1,5,-1
 85.9833984375 646.970703125 l 1,6,-1
 138.412109375 633.33984375 l 1,7,-1
 138.412109375 675.283203125 l 1,8,-1
 190.840820312 730.857421875 l 1,9,-1
 258.998046875 711.983398438 l 1,10,-1
 277.873046875 746.5859375 l 1,11,-1
 376.439453125 788.529296875 l 1,12,-1
 489.684570312 681.57421875 l 1,13,-1
 444.595703125 469.76171875 l 1,14,-1
 483.393554688 247.463867188 l 1,15,-1
 456.130859375 87.0322265625 l 1,16,-1
 449.838867188 35.65234375 l 1,17,-1
 324.009765625 -2.0966796875 l 1,18,-1
 240.124023438 27.2626953125 l 1,19,-1
 173.014648438 12.5830078125 l 1,20,-1
 108.002929688 95.419921875 l 1,21,-1
 20.9716796875 175.112304688 l 1,0,-1
376.439453125 285.212890625 m 1,22,-1
 460.325195312 243.26953125 l 1,23,-1
 409.993164062 463.470703125 l 1,24,-1
 460.325195312 678.428710938 l 1,25,-1
 369.098632812 765.459960938 l 1,26,-1
 300.94140625 720.372070312 l 1,27,-1
 285.212890625 553.6484375 l 1,28,-1
 282.067382812 368.049804688 l 1,29,-1
 258.998046875 549.454101562 l 1,30,-1
 258.998046875 675.283203125 l 1,31,-1
 196.083984375 693.109375 l 1,32,-1
 167.772460938 659.553710938 l 1,33,-1
 213.91015625 466.616210938 l 1,34,-1
 198.180664062 359.662109375 l 1,35,-1
 187.6953125 478.151367188 l 1,36,-1
 145.751953125 599.78515625 l 1,37,-1
 104.858398438 617.611328125 l 1,38,-1
 58.7197265625 560.98828125 l 1,39,-1
 131.072265625 443.547851562 l 1,40,-1
 161.481445312 340.787109375 l 1,41,-1
 331.349609375 334.49609375 l 1,42,-1
 161.481445312 307.233398438 l 1,43,-1
 145.751953125 273.677734375 l 1,44,-1
 190.840820312 262.143554688 l 1,45,-1
 376.439453125 285.212890625 l 1,22,-1
346.030273438 53.4765625 m 1,46,-1
 289.407226562 103.80859375 l 1,47,-1
 127.92578125 92.275390625 l 1,48,-1
 183.500976562 31.45703125 l 1,49,-1
 225.444335938 38.796875 l 1,50,-1
 196.083984375 69.2060546875 l 1,51,-1
 335.543945312 24.1171875 l 1,52,-1
 421.528320312 61.8662109375 l 1,53,-1
 444.595703125 190.840820312 l 1,54,-1
 373.29296875 266.337890625 l 1,55,-1
 187.6953125 243.26953125 l 1,56,-1
 85.9833984375 262.143554688 l 1,57,-1
 47.185546875 186.647460938 l 1,58,-1
 127.92578125 114.294921875 l 1,59,-1
 305.135742188 141.557617188 l 1,60,-1
 346.030273438 53.4765625 l 1,46,-1
131.072265625 239.075195312 m 1,61,-1
 149.946289062 186.647460938 l 1,62,-1
 92.275390625 163.578125 l 1,63,-1
 131.072265625 239.075195312 l 1,64,-1
 131.072265625 239.075195312 l 1,61,-1
EndSplineSet
Fore
SplineSet
-25 333 m 1,0,-1
 32 454 l 1,1,-1
 82 454 l 1,2,-1
 112 520 l 1,3,-1
 67 644 l 1,4,-1
 -13 777 l 1,5,-1
 51 886 l 1,6,-1
 112 870 l 1,7,-1
 112 919 l 1,8,-1
 174 984 l 1,9,-1
 254 962 l 1,10,-1
 276 1003 l 1,11,-1
 391 1052 l 1,12,-1
 524 927 l 1,13,-1
 471 679 l 1,14,-1
 517 418 l 1,15,-1
 485 230 l 1,16,-1
 477 170 l 1,17,-1
 330 126 l 1,18,-1
 232 160 l 1,19,-1
 153 143 l 1,20,-1
 77 240 l 1,21,-1
 -25 333 l 1,0,-1
391 462 m 1,22,-1
 490 413 l 1,23,-1
 431 671 l 1,24,-1
 490 923 l 1,25,-1
 383 1025 l 1,26,-1
 303 972 l 1,27,-1
 284 777 l 1,28,-1
 281 559 l 1,29,-1
 254 772 l 1,30,-1
 254 919 l 1,31,-1
 180 940 l 1,32,-1
 147 901 l 1,33,-1
 201 675 l 1,34,-1
 182 549 l 1,35,-1
 170 688 l 1,36,-1
 121 831 l 1,37,-1
 73 852 l 1,38,-1
 19 785 l 1,39,-1
 104 648 l 1,40,-1
 139 527 l 1,41,-1
 338 520 l 1,42,-1
 139 488 l 1,43,-1
 121 449 l 1,44,-1
 174 435 l 1,45,-1
 391 462 l 1,22,-1
356 191 m 1,46,-1
 289 250 l 1,47,-1
 100 236 l 1,48,-1
 165 165 l 1,49,-1
 214 173 l 1,50,-1
 180 209 l 1,51,-1
 343 156 l 1,52,-1
 444 200 l 1,53,-1
 471 352 l 1,54,-1
 388 440 l 1,55,-1
 170 413 l 1,56,-1
 51 435 l 1,57,-1
 5 347 l 1,58,-1
 100 262 l 1,59,-1
 308 294 l 1,60,-1
 356 191 l 1,46,-1
104 408 m 1,61,-1
 126 347 l 1,62,-1
 58 320 l 1,63,-1
 104 408 l 1,64,-1
 104 408 l 1,61,-1
EndSplineSet
Validated: 1029
EndChar

StartChar: c
Encoding: 99 99 70
Width: 712
VWidth: 1381
Flags: W
LayerCount: 2
Back
SplineSet
219.15234375 250.610351562 m 1,0,-1
 169.869140625 271.581054688 l 1,1,-1
 92.275390625 243.26953125 l 1,2,-1
 10.486328125 310.377929688 l 1,3,-1
 49.283203125 374.341796875 l 1,4,-1
 46.13671875 402.653320312 l 1,5,-1
 216.006835938 520.09375 l 1,6,-1
 304.086914062 505.4140625 l 1,7,-1
 360.709960938 523.239257812 l 1,8,-1
 548.405273438 435.159179688 l 1,9,-1
 637.534179688 257.950195312 l 1,10,-1
 609.22265625 101.711914062 l 1,11,-1
 484.442382812 9.4365234375 l 1,12,-1
 308.28125 16.77734375 l 1,13,-1
 173.014648438 88.080078125 l 1,14,-1
 166.723632812 193.987304688 l 1,15,-1
 229.637695312 229.637695312 l 1,16,-1
 219.15234375 250.610351562 l 1,0,-1
53.4765625 338.690429688 m 1,17,-1
 35.65234375 314.573242188 l 1,18,-1
 98.56640625 268.434570312 l 1,19,-1
 138.412109375 286.260742188 l 1,20,-1
 67.109375 310.377929688 l 1,21,-1
 53.4765625 338.690429688 l 1,17,-1
268.434570312 491.782226562 m 1,22,-1
 223.346679688 498.07421875 l 1,23,-1
 88.080078125 402.653320312 l 1,24,-1
 102.759765625 392.166992188 l 1,25,-1
 63.962890625 381.681640625 l 1,26,-1
 84.9345703125 332.399414062 l 1,27,-1
 120.5859375 314.573242188 l 1,28,-1
 138.412109375 325.05859375 l 1,29,-1
 98.56640625 367.001953125 l 1,30,-1
 195.03515625 448.791015625 l 1,31,-1
 268.434570312 491.782226562 l 1,22,-1
240.124023438 211.811523438 m 1,32,-1
 187.6953125 176.161132812 l 1,33,-1
 195.03515625 98.56640625 l 1,34,-1
 326.107421875 41.943359375 l 1,35,-1
 481.295898438 45.0888671875 l 1,36,-1
 587.203125 126.877929688 l 1,37,-1
 605.028320312 261.094726562 l 1,38,-1
 534.774414062 420.478515625 l 1,39,-1
 357.564453125 491.782226562 l 1,40,-1
 208.666992188 420.478515625 l 1,41,-1
 251.658203125 395.313476562 l 1,42,-1
 159.383789062 392.166992188 l 1,43,-1
 123.732421875 363.856445312 l 1,44,-1
 177.208984375 328.204101562 l 1,45,-1
 254.803710938 342.883789062 l 1,46,-1
 293.600585938 378.536132812 l 1,47,-1
 357.564453125 356.515625 l 1,48,-1
 467.665039062 371.196289062 l 1,49,-1
 393.215820312 342.883789062 l 1,50,-1
 512.75390625 240.124023438 l 1,51,-1
 452.985351562 271.581054688 l 1,52,-1
 427.819335938 150.995117188 l 1,53,-1
 332.399414062 162.529296875 l 1,54,-1
 240.124023438 211.811523438 l 1,32,-1
162.529296875 296.747070312 m 1,55,-1
 236.977539062 271.581054688 l 1,56,-1
 406.846679688 268.434570312 l 1,57,-1
 240.124023438 235.9296875 l 1,58,-1
 347.079101562 183.500976562 l 1,59,-1
 411.041992188 176.161132812 l 1,60,-1
 424.672851562 282.067382812 l 1,61,-1
 368.049804688 338.690429688 l 1,62,-1
 293.600585938 346.030273438 l 1,63,-1
 262.143554688 317.71875 l 1,64,-1
 159.383789062 304.086914062 l 1,65,-1
 162.529296875 296.747070312 l 1,55,-1
201.327148438 101.711914062 m 1,66,-1
 265.290039062 173.014648438 l 1,67,-1
 254.803710938 122.682617188 l 1,68,-1
 201.327148438 101.711914062 l 1,69,-1
 201.327148438 101.711914062 l 1,66,-1
262.143554688 116.391601562 m 1,70,-1
 208.666992188 112.198242188 l 1,71,-1
 262.143554688 179.305664062 l 1,72,-1
 262.143554688 116.391601562 l 1,73,-1
 262.143554688 116.391601562 l 1,70,-1
EndSplineSet
Fore
SplineSet
194 446 m 1,0,-1
 136 471 l 1,1,-1
 45 438 l 1,2,-1
 -51 517 l 1,3,-1
 -6 591 l 1,4,-1
 -9 625 l 1,5,-1
 190 762 l 1,6,-1
 293 745 l 1,7,-1
 359 766 l 1,8,-1
 579 663 l 1,9,-1
 684 455 l 1,10,-1
 651 272 l 1,11,-1
 504 164 l 1,12,-1
 298 172 l 1,13,-1
 139 256 l 1,14,-1
 132 380 l 1,15,-1
 206 422 l 1,16,-1
 194 446 l 1,0,-1
-1 550 m 1,17,-1
 -22 521 l 1,18,-1
 52 467 l 1,19,-1
 99 488 l 1,20,-1
 15 517 l 1,21,-1
 -1 550 l 1,17,-1
251 729 m 1,22,-1
 198 736 l 1,23,-1
 40 625 l 1,24,-1
 57 612 l 1,25,-1
 12 600 l 1,26,-1
 36 542 l 1,27,-1
 78 521 l 1,28,-1
 99 534 l 1,29,-1
 52 583 l 1,30,-1
 165 679 l 1,31,-1
 251 729 l 1,22,-1
218 401 m 1,32,-1
 157 359 l 1,33,-1
 165 268 l 1,34,-1
 319 202 l 1,35,-1
 501 206 l 1,36,-1
 625 301 l 1,37,-1
 646 459 l 1,38,-1
 563 646 l 1,39,-1
 356 729 l 1,40,-1
 181 646 l 1,41,-1
 232 616 l 1,42,-1
 123 612 l 1,43,-1
 82 579 l 1,44,-1
 144 537 l 1,45,-1
 235 555 l 1,46,-1
 281 596 l 1,47,-1
 356 571 l 1,48,-1
 485 588 l 1,49,-1
 398 555 l 1,50,-1
 538 434 l 1,51,-1
 468 471 l 1,52,-1
 438 330 l 1,53,-1
 326 343 l 1,54,-1
 218 401 l 1,32,-1
127 501 m 1,55,-1
 214 471 l 1,56,-1
 413 467 l 1,57,-1
 218 429 l 1,58,-1
 343 368 l 1,59,-1
 418 359 l 1,60,-1
 434 483 l 1,61,-1
 368 550 l 1,62,-1
 281 558 l 1,63,-1
 244 525 l 1,64,-1
 123 509 l 1,65,-1
 127 501 l 1,55,-1
173 272 m 1,66,-1
 248 356 l 1,67,-1
 235 297 l 1,68,-1
 173 272 l 1,69,-1
 173 272 l 1,66,-1
244 289 m 1,70,-1
 181 284 l 1,71,-1
 244 363 l 1,72,-1
 244 289 l 1,73,-1
 244 289 l 1,70,-1
EndSplineSet
Validated: 1029
EndChar

StartChar: d
Encoding: 100 100 71
Width: 715
VWidth: 1353
Flags: W
LayerCount: 2
Back
SplineSet
566.231445312 545.259765625 m 1,0,-1
 577.764648438 396.362304688 l 1,1,-1
 548.405273438 263.193359375 l 1,2,-1
 572.522460938 138.412109375 l 1,3,-1
 498.07421875 20.9716796875 l 1,4,-1
 364.904296875 12.5830078125 l 1,5,-1
 228.58984375 51.3798828125 l 1,6,-1
 104.858398438 135.265625 l 1,7,-1
 106.955078125 163.578125 l 1,8,-1
 17.826171875 221.25 l 1,9,-1
 42.9921875 296.747070312 l 1,10,-1
 28.3115234375 338.690429688 l 1,11,-1
 121.634765625 427.819335938 l 1,12,-1
 145.751953125 482.344726562 l 1,13,-1
 250.610351562 543.162109375 l 1,14,-1
 383.779296875 506.461914062 l 1,15,-1
 404.75 744.489257812 l 1,16,-1
 509.608398438 793.772460938 l 1,17,-1
 605.028320312 678.428710938 l 1,18,-1
 566.231445312 545.259765625 l 1,0,-1
75.4970703125 370.147460938 m 1,19,-1
 93.3232421875 370.147460938 l 1,20,-1
 47.185546875 338.690429688 l 1,21,-1
 82.837890625 274.7265625 l 1,22,-1
 121.634765625 261.094726562 l 1,23,-1
 160.431640625 277.873046875 l 1,24,-1
 96.46875 341.8359375 l 1,25,-1
 111.149414062 389.022460938 l 1,26,-1
 96.46875 384.827148438 l 1,27,-1
 75.4970703125 370.147460938 l 1,19,-1
104.858398438 223.346679688 m 1,28,-1
 121.634765625 242.220703125 l 1,29,-1
 82.837890625 245.3671875 l 1,30,-1
 56.623046875 281.017578125 l 1,31,-1
 38.796875 231.735351562 l 1,32,-1
 100.663085938 192.938476562 l 1,33,-1
 104.858398438 223.346679688 l 1,28,-1
511.705078125 281.017578125 m 1,34,-1
 558.890625 399.506835938 l 1,35,-1
 533.724609375 558.890625 l 1,36,-1
 566.231445312 678.428710938 l 1,37,-1
 504.365234375 762.315429688 l 1,38,-1
 422.576171875 725.615234375 l 1,39,-1
 407.896484375 338.690429688 l 1,40,-1
 383.779296875 475.004882812 l 1,41,-1
 261.094726562 516.948242188 l 1,42,-1
 160.431640625 467.665039062 l 1,43,-1
 145.751953125 414.188476562 l 1,44,-1
 211.811523438 409.993164062 l 1,45,-1
 124.78125 381.681640625 l 1,46,-1
 117.44140625 346.030273438 l 1,47,-1
 179.305664062 285.212890625 l 1,48,-1
 253.754882812 357.564453125 l 1,49,-1
 311.426757812 448.791015625 l 1,50,-1
 315.62109375 393.215820312 l 1,51,-1
 364.904296875 375.389648438 l 1,52,-1
 311.426757812 357.564453125 l 1,53,-1
 375.389648438 296.747070312 l 1,54,-1
 243.26953125 291.50390625 l 1,55,-1
 239.075195312 267.38671875 l 1,56,-1
 358.61328125 210.763671875 l 1,57,-1
 437.255859375 255.852539062 l 1,58,-1
 390.0703125 203.423828125 l 1,59,-1
 472.908203125 142.606445312 l 1,60,-1
 198.180664062 255.852539062 l 1,61,-1
 133.168945312 221.25 l 1,62,-1
 124.78125 148.8984375 l 1,63,-1
 243.26953125 70.2548828125 l 1,64,-1
 369.098632812 33.5537109375 l 1,65,-1
 487.587890625 37.7490234375 l 1,66,-1
 544.2109375 142.606445312 l 1,67,-1
 511.705078125 281.017578125 l 1,34,-1
253.754882812 313.524414062 m 1,68,-1
 315.62109375 320.864257812 l 1,69,-1
 279.969726562 353.370117188 l 1,70,-1
 253.754882812 313.524414062 l 1,68,-1
232.784179688 159.383789062 m 1,71,-1
 175.112304688 135.265625 l 1,72,-1
 236.977539062 221.25 l 1,73,-1
 232.784179688 159.383789062 l 1,71,-1
EndSplineSet
Fore
SplineSet
603 765 m 1,0,-1
 616 591 l 1,1,-1
 582 434 l 1,2,-1
 610 288 l 1,3,-1
 523 151 l 1,4,-1
 367 141 l 1,5,-1
 207 186 l 1,6,-1
 62 285 l 1,7,-1
 65 318 l 1,8,-1
 -40 385 l 1,9,-1
 -10 474 l 1,10,-1
 -28 523 l 1,11,-1
 82 627 l 1,12,-1
 110 691 l 1,13,-1
 233 763 l 1,14,-1
 389 720 l 1,15,-1
 413 999 l 1,16,-1
 536 1056 l 1,17,-1
 648 921 l 1,18,-1
 603 765 l 1,0,-1
28 560 m 1,19,-1
 49 560 l 1,20,-1
 -6 523 l 1,21,-1
 36 448 l 1,22,-1
 82 432 l 1,23,-1
 127 452 l 1,24,-1
 52 527 l 1,25,-1
 69 582 l 1,26,-1
 52 577 l 1,27,-1
 28 560 l 1,19,-1
62 388 m 1,28,-1
 82 410 l 1,29,-1
 36 414 l 1,30,-1
 6 455 l 1,31,-1
 -15 398 l 1,32,-1
 57 352 l 1,33,-1
 62 388 l 1,28,-1
539 455 m 1,34,-1
 594 594 l 1,35,-1
 565 781 l 1,36,-1
 603 921 l 1,37,-1
 530 1019 l 1,38,-1
 434 976 l 1,39,-1
 417 523 l 1,40,-1
 389 683 l 1,41,-1
 245 732 l 1,42,-1
 127 674 l 1,43,-1
 110 611 l 1,44,-1
 187 607 l 1,45,-1
 85 573 l 1,46,-1
 77 532 l 1,47,-1
 149 460 l 1,48,-1
 237 545 l 1,49,-1
 304 652 l 1,50,-1
 309 587 l 1,51,-1
 367 566 l 1,52,-1
 304 545 l 1,53,-1
 379 474 l 1,54,-1
 224 468 l 1,55,-1
 219 439 l 1,56,-1
 359 373 l 1,57,-1
 452 426 l 1,58,-1
 396 364 l 1,59,-1
 493 293 l 1,60,-1
 171 426 l 1,61,-1
 95 385 l 1,62,-1
 85 301 l 1,63,-1
 224 208 l 1,64,-1
 372 165 l 1,65,-1
 511 170 l 1,66,-1
 577 293 l 1,67,-1
 539 455 l 1,34,-1
237 493 m 1,68,-1
 309 502 l 1,69,-1
 267 540 l 1,70,-1
 237 493 l 1,68,-1
212 313 m 1,71,-1
 144 285 l 1,72,-1
 217 385 l 1,73,-1
 212 313 l 1,71,-1
EndSplineSet
Validated: 1025
EndChar

StartChar: e
Encoding: 101 101 72
Width: 749
VWidth: 1380
Flags: W
LayerCount: 2
Back
SplineSet
665.845703125 373.29296875 m 1,0,-1
 627.047851562 256.901367188 l 1,1,-1
 640.6796875 124.78125 l 1,2,-1
 477.1015625 19.9228515625 l 1,3,-1
 368.049804688 33.5537109375 l 1,4,-1
 298.84375 19.9228515625 l 1,5,-1
 203.423828125 68.1572265625 l 1,6,-1
 182.452148438 124.78125 l 1,7,-1
 134.217773438 145.751953125 l 1,8,-1
 116.391601562 201.327148438 l 1,9,-1
 123.732421875 240.124023438 l 1,10,-1
 32.505859375 337.640625 l 1,11,-1
 84.9345703125 446.693359375 l 1,12,-1
 197.131835938 460.325195312 l 1,13,-1
 213.91015625 488.635742188 l 1,14,-1
 298.84375 523.239257812 l 1,15,-1
 368.049804688 502.267578125 l 1,16,-1
 483.393554688 515.899414062 l 1,17,-1
 665.845703125 373.29296875 l 1,0,-1
234.880859375 478.151367188 m 1,18,-1
 158.334960938 358.61328125 l 1,19,-1
 228.58984375 250.610351562 l 1,20,-1
 291.50390625 256.901367188 l 1,21,-1
 281.017578125 373.29296875 l 1,22,-1
 343.932617188 478.151367188 l 1,23,-1
 298.84375 502.267578125 l 1,24,-1
 234.880859375 478.151367188 l 1,18,-1
56.623046875 348.126953125 m 1,25,-1
 147.848632812 232.784179688 l 1,26,-1
 207.618164062 250.610351562 l 1,27,-1
 130.0234375 358.61328125 l 1,28,-1
 171.965820312 436.208007812 l 1,29,-1
 98.56640625 436.208007812 l 1,30,-1
 56.623046875 348.126953125 l 1,25,-1
462.421875 47.185546875 m 1,31,-1
 532.676757812 99.615234375 l 1,32,-1
 480.248046875 127.92578125 l 1,33,-1
 319.81640625 93.3232421875 l 1,34,-1
 207.618164062 120.5859375 l 1,35,-1
 221.25 82.837890625 l 1,36,-1
 294.650390625 36.7001953125 l 1,37,-1
 336.592773438 54.5263671875 l 1,38,-1
 298.84375 78.642578125 l 1,39,-1
 462.421875 47.185546875 l 1,31,-1
613.416992188 162.529296875 m 1,40,-1
 595.590820312 268.434570312 l 1,41,-1
 627.047851562 369.098632812 l 1,42,-1
 469.76171875 488.635742188 l 1,43,-1
 368.049804688 473.956054688 l 1,44,-1
 309.330078125 365.953125 l 1,45,-1
 312.475585938 256.901367188 l 1,46,-1
 385.875976562 235.9296875 l 1,47,-1
 462.421875 246.415039062 l 1,48,-1
 483.393554688 425.721679688 l 1,49,-1
 525.336914062 421.528320312 l 1,50,-1
 504.365234375 400.555664062 l 1,51,-1
 487.587890625 268.434570312 l 1,52,-1
 540.016601562 225.444335938 l 1,53,-1
 477.1015625 225.444335938 l 1,54,-1
 393.215820312 204.471679688 l 1,55,-1
 326.107421875 211.811523438 l 1,56,-1
 263.193359375 225.444335938 l 1,57,-1
 203.423828125 201.327148438 l 1,58,-1
 144.703125 198.180664062 l 1,59,-1
 147.848632812 166.723632812 l 1,60,-1
 218.103515625 141.557617188 l 1,61,-1
 315.62109375 120.5859375 l 1,62,-1
 469.76171875 162.529296875 l 1,63,-1
 574.620117188 135.265625 l 1,64,-1
 613.416992188 162.529296875 l 1,40,-1
378.536132812 316.669921875 m 1,65,-1
 424.672851562 271.581054688 l 1,66,-1
 333.447265625 278.920898438 l 1,67,-1
 378.536132812 316.669921875 l 1,65,-1
218.103515625 274.7265625 m 1,68,-1
 239.075195312 320.864257812 l 1,69,-1
 281.017578125 282.067382812 l 1,70,-1
 218.103515625 274.7265625 l 1,68,-1
155.189453125 289.407226562 m 1,71,-1
 186.647460938 264.241210938 l 1,72,-1
 137.36328125 253.754882812 l 1,73,-1
 155.189453125 289.407226562 l 1,71,-1
203.423828125 159.383789062 m 1,74,-1
 200.278320312 190.840820312 l 1,75,-1
 224.39453125 177.208984375 l 1,76,-1
 203.423828125 159.383789062 l 1,74,-1
EndSplineSet
Fore
SplineSet
712 589 m 1,0,-1
 667 453 l 1,1,-1
 683 298 l 1,2,-1
 491 175 l 1,3,-1
 363 191 l 1,4,-1
 282 175 l 1,5,-1
 170 232 l 1,6,-1
 146 298 l 1,7,-1
 89 323 l 1,8,-1
 68 388 l 1,9,-1
 77 433 l 1,10,-1
 -30 547 l 1,11,-1
 31 675 l 1,12,-1
 163 691 l 1,13,-1
 182 724 l 1,14,-1
 282 765 l 1,15,-1
 363 740 l 1,16,-1
 498 756 l 1,17,-1
 712 589 l 1,0,-1
207 712 m 1,18,-1
 117 572 l 1,19,-1
 200 445 l 1,20,-1
 273 453 l 1,21,-1
 261 589 l 1,22,-1
 335 712 l 1,23,-1
 282 740 l 1,24,-1
 207 712 l 1,18,-1
-2 560 m 1,25,-1
 105 425 l 1,26,-1
 175 445 l 1,27,-1
 84 572 l 1,28,-1
 133 663 l 1,29,-1
 47 663 l 1,30,-1
 -2 560 l 1,25,-1
474 207 m 1,31,-1
 556 268 l 1,32,-1
 495 302 l 1,33,-1
 307 261 l 1,34,-1
 175 293 l 1,35,-1
 191 249 l 1,36,-1
 277 195 l 1,37,-1
 326 216 l 1,38,-1
 282 244 l 1,39,-1
 474 207 l 1,31,-1
651 342 m 1,40,-1
 630 466 l 1,41,-1
 667 584 l 1,42,-1
 482 724 l 1,43,-1
 363 707 l 1,44,-1
 294 581 l 1,45,-1
 298 453 l 1,46,-1
 384 428 l 1,47,-1
 474 441 l 1,48,-1
 498 651 l 1,49,-1
 547 646 l 1,50,-1
 523 621 l 1,51,-1
 503 466 l 1,52,-1
 565 416 l 1,53,-1
 491 416 l 1,54,-1
 393 391 l 1,55,-1
 314 400 l 1,56,-1
 240 416 l 1,57,-1
 170 388 l 1,58,-1
 101 384 l 1,59,-1
 105 347 l 1,60,-1
 187 318 l 1,61,-1
 302 293 l 1,62,-1
 482 342 l 1,63,-1
 605 310 l 1,64,-1
 651 342 l 1,40,-1
375 523 m 1,65,-1
 429 470 l 1,66,-1
 323 479 l 1,67,-1
 375 523 l 1,65,-1
187 474 m 1,68,-1
 212 528 l 1,69,-1
 261 482 l 1,70,-1
 187 474 l 1,68,-1
114 491 m 1,71,-1
 151 461 l 1,72,-1
 93 449 l 1,73,-1
 114 491 l 1,71,-1
170 339 m 1,74,-1
 167 375 l 1,75,-1
 195 359 l 1,76,-1
 170 339 l 1,74,-1
EndSplineSet
Validated: 1025
EndChar

StartChar: f
Encoding: 102 102 73
Width: 548
VWidth: 1354
Flags: W
LayerCount: 2
Back
SplineSet
464.518554688 304.086914062 m 1,0,-1
 479.19921875 121.634765625 l 1,1,-1
 378.536132812 11.5341796875 l 1,2,-1
 208.666992188 5.2431640625 l 1,3,-1
 78.642578125 69.2060546875 l 1,4,-1
 50.33203125 149.946289062 l 1,5,-1
 80.740234375 174.064453125 l 1,6,-1
 54.5263671875 198.180664062 l 1,7,-1
 60.8173828125 308.28125 l 1,8,-1
 146.80078125 401.60546875 l 1,9,-1
 102.759765625 552.599609375 l 1,10,-1
 63.962890625 680.526367188 l 1,11,-1
 154.140625 752.877929688 l 1,12,-1
 208.666992188 746.5859375 l 1,13,-1
 264.241210938 794.821289062 l 1,14,-1
 329.252929688 790.625976562 l 1,15,-1
 419.4296875 704.642578125 l 1,16,-1
 384.827148438 502.267578125 l 1,17,-1
 381.681640625 404.75 l 1,18,-1
 464.518554688 304.086914062 l 1,0,-1
270.533203125 770.703125 m 1,19,-1
 222.297851562 718.275390625 l 1,20,-1
 232.784179688 540.016601562 l 1,21,-1
 250.610351562 425.721679688 l 1,22,-1
 354.418945312 401.60546875 l 1,23,-1
 357.564453125 484.442382812 l 1,24,-1
 398.458984375 698.3515625 l 1,25,-1
 312.475585938 764.412109375 l 1,26,-1
 270.533203125 770.703125 l 1,19,-1
98.56640625 671.088867188 m 1,27,-1
 174.064453125 422.576171875 l 1,28,-1
 198.180664062 432.012695312 l 1,29,-1
 222.297851562 432.012695312 l 1,30,-1
 206.569335938 580.911132812 l 1,31,-1
 195.03515625 708.836914062 l 1,32,-1
 166.723632812 722.46875 l 1,33,-1
 98.56640625 671.088867188 l 1,27,-1
360.709960938 31.45703125 m 1,34,-1
 455.08203125 128.974609375 l 1,35,-1
 443.547851562 293.600585938 l 1,36,-1
 360.709960938 370.147460938 l 1,37,-1
 292.552734375 394.264648438 l 1,38,-1
 198.180664062 401.60546875 l 1,39,-1
 118.489257812 328.204101562 l 1,40,-1
 78.642578125 293.600585938 l 1,41,-1
 80.740234375 239.075195312 l 1,42,-1
 174.064453125 231.735351562 l 1,43,-1
 84.9345703125 214.958007812 l 1,44,-1
 133.168945312 159.383789062 l 1,45,-1
 208.666992188 214.958007812 l 1,46,-1
 236.977539062 326.107421875 l 1,47,-1
 261.094726562 263.193359375 l 1,48,-1
 381.681640625 249.560546875 l 1,49,-1
 351.2734375 225.444335938 l 1,50,-1
 347.079101562 169.869140625 l 1,51,-1
 391.119140625 207.618164062 l 1,52,-1
 360.709960938 141.557617188 l 1,53,-1
 268.434570312 125.829101562 l 1,54,-1
 182.452148438 145.751953125 l 1,55,-1
 130.0234375 125.829101562 l 1,56,-1
 88.080078125 149.946289062 l 1,57,-1
 78.642578125 139.4609375 l 1,58,-1
 102.759765625 77.5947265625 l 1,59,-1
 219.15234375 31.45703125 l 1,60,-1
 360.709960938 31.45703125 l 1,34,-1
303.038085938 222.297851562 m 1,61,-1
 219.15234375 201.327148438 l 1,62,-1
 212.861328125 174.064453125 l 1,63,-1
 292.552734375 153.091796875 l 1,64,-1
 305.135742188 193.987304688 l 1,65,-1
 303.038085938 222.297851562 l 1,61,-1
236.977539062 239.075195312 m 1,66,-1
 298.84375 242.220703125 l 1,67,-1
 240.124023438 255.852539062 l 1,68,-1
 236.977539062 239.075195312 l 1,66,-1
140.508789062 73.400390625 m 1,69,-1
 166.723632812 125.829101562 l 1,70,-1
 188.744140625 87.0322265625 l 1,71,-1
 140.508789062 73.400390625 l 1,69,-1
EndSplineSet
Fore
SplineSet
493 483 m 1,0,-1
 510 269 l 1,1,-1
 392 140 l 1,2,-1
 193 133 l 1,3,-1
 40 208 l 1,4,-1
 7 302 l 1,5,-1
 43 331 l 1,6,-1
 12 359 l 1,7,-1
 20 488 l 1,8,-1
 120 597 l 1,9,-1
 69 774 l 1,10,-1
 23 924 l 1,11,-1
 129 1009 l 1,12,-1
 193 1002 l 1,13,-1
 258 1058 l 1,14,-1
 334 1053 l 1,15,-1
 440 952 l 1,16,-1
 399 715 l 1,17,-1
 396 601 l 1,18,-1
 493 483 l 1,0,-1
265 1030 m 1,19,-1
 209 968 l 1,20,-1
 221 760 l 1,21,-1
 242 626 l 1,22,-1
 364 597 l 1,23,-1
 367 694 l 1,24,-1
 415 945 l 1,25,-1
 314 1022 l 1,26,-1
 265 1030 l 1,19,-1
64 913 m 1,27,-1
 152 622 l 1,28,-1
 181 633 l 1,29,-1
 209 633 l 1,30,-1
 190 807 l 1,31,-1
 177 957 l 1,32,-1
 144 973 l 1,33,-1
 64 913 l 1,27,-1
371 164 m 1,34,-1
 482 278 l 1,35,-1
 468 471 l 1,36,-1
 371 560 l 1,37,-1
 291 589 l 1,38,-1
 181 597 l 1,39,-1
 87 511 l 1,40,-1
 40 471 l 1,41,-1
 43 407 l 1,42,-1
 152 398 l 1,43,-1
 48 379 l 1,44,-1
 104 313 l 1,45,-1
 193 379 l 1,46,-1
 226 509 l 1,47,-1
 254 435 l 1,48,-1
 396 419 l 1,49,-1
 360 391 l 1,50,-1
 355 326 l 1,51,-1
 407 370 l 1,52,-1
 371 293 l 1,53,-1
 263 274 l 1,54,-1
 162 297 l 1,55,-1
 101 274 l 1,56,-1
 52 302 l 1,57,-1
 40 290 l 1,58,-1
 69 218 l 1,59,-1
 205 164 l 1,60,-1
 371 164 l 1,34,-1
303 387 m 1,61,-1
 205 363 l 1,62,-1
 198 331 l 1,63,-1
 291 306 l 1,64,-1
 306 354 l 1,65,-1
 303 387 l 1,61,-1
226 407 m 1,66,-1
 298 411 l 1,67,-1
 230 426 l 1,68,-1
 226 407 l 1,66,-1
113 213 m 1,69,-1
 144 274 l 1,70,-1
 169 229 l 1,71,-1
 113 213 l 1,69,-1
EndSplineSet
Validated: 1025
EndChar

StartChar: g
Encoding: 103 103 74
Width: 1196
VWidth: 1382
Flags: W
LayerCount: 2
Back
SplineSet
1093.66503906 341.8359375 m 1,0,-1
 1040.18652344 236.977539062 l 1,1,-1
 1064.3046875 147.848632812 l 1,2,-1
 938.475585938 70.2548828125 l 1,3,-1
 849.346679688 83.8857421875 l 1,4,-1
 684.719726562 12.5830078125 l 1,5,-1
 489.684570312 147.848632812 l 1,6,-1
 481.295898438 187.6953125 l 1,7,-1
 450.887695312 226.4921875 l 1,8,-1
 440.40234375 244.318359375 l 1,9,-1
 163.578125 200.278320312 l 1,10,-1
 39.845703125 244.318359375 l 1,11,-1
 65.01171875 344.982421875 l 1,12,-1
 334.49609375 421.528320312 l 1,13,-1
 635.436523438 454.033203125 l 1,14,-1
 707.7890625 500.170898438 l 1,15,-1
 942.669921875 482.344726562 l 1,16,-1
 1093.66503906 341.8359375 l 1,0,-1
450.887695312 308.28125 m 1,17,-1
 556.793945312 370.147460938 l 1,18,-1
 559.940429688 399.506835938 l 1,19,-1
 584.056640625 428.868164062 l 1,20,-1
 343.932617188 394.264648438 l 1,21,-1
 97.517578125 327.15625 l 1,22,-1
 77.5947265625 260.046875 l 1,23,-1
 174.064453125 229.637695312 l 1,24,-1
 437.255859375 278.920898438 l 1,25,-1
 450.887695312 308.28125 l 1,17,-1
486.5390625 221.25 m 1,26,-1
 548.405273438 196.083984375 l 1,27,-1
 552.599609375 268.434570312 l 1,28,-1
 572.522460938 335.543945312 l 1,29,-1
 466.616210938 293.600585938 l 1,30,-1
 486.5390625 221.25 l 1,26,-1
812.646484375 96.46875 m 1,31,-1
 822.083984375 123.732421875 l 1,32,-1
 779.091796875 123.732421875 l 1,33,-1
 762.315429688 88.080078125 l 1,34,-1
 751.829101562 120.5859375 l 1,35,-1
 696.25390625 118.489257812 l 1,36,-1
 524.288085938 167.772460938 l 1,37,-1
 515.899414062 155.189453125 l 1,38,-1
 693.109375 50.33203125 l 1,39,-1
 812.646484375 96.46875 l 1,31,-1
812.646484375 147.848632812 m 1,40,-1
 890.241210938 233.83203125 l 1,41,-1
 812.646484375 305.135742188 l 1,42,-1
 773.848632812 293.600585938 l 1,43,-1
 718.275390625 162.529296875 l 1,44,-1
 812.646484375 147.848632812 l 1,40,-1
1019.21582031 150.995117188 m 1,45,-1
 1025.50683594 196.083984375 l 1,46,-1
 977.2734375 187.6953125 l 1,47,-1
 1050.67285156 344.982421875 l 1,48,-1
 927.990234375 454.033203125 l 1,49,-1
 714.080078125 482.344726562 l 1,50,-1
 621.805664062 399.506835938 l 1,51,-1
 568.328125 191.888671875 l 1,52,-1
 699.400390625 170.91796875 l 1,53,-1
 754.974609375 324.009765625 l 1,54,-1
 732.955078125 409.993164062 l 1,55,-1
 801.112304688 462.421875 l 1,56,-1
 801.112304688 402.653320312 l 1,57,-1
 846.201171875 409.993164062 l 1,58,-1
 801.112304688 361.758789062 l 1,59,-1
 797.965820312 335.543945312 l 1,60,-1
 830.471679688 327.15625 l 1,61,-1
 919.600585938 240.124023438 l 1,62,-1
 865.075195312 136.315429688 l 1,63,-1
 868.220703125 102.759765625 l 1,64,-1
 935.330078125 96.46875 l 1,65,-1
 1019.21582031 150.995117188 l 1,45,-1
601.8828125 247.463867188 m 1,66,-1
 654.310546875 275.775390625 l 1,67,-1
 693.109375 233.83203125 l 1,68,-1
 601.8828125 247.463867188 l 1,66,-1
808.452148438 181.404296875 m 1,69,-1
 770.703125 219.15234375 l 1,70,-1
 808.452148438 275.775390625 l 1,71,-1
 808.452148438 181.404296875 l 1,69,-1
EndSplineSet
Fore
SplineSet
1171 555 m 1,0,-1
 1108 432 l 1,1,-1
 1137 328 l 1,2,-1
 989 237 l 1,3,-1
 885 253 l 1,4,-1
 692 169 l 1,5,-1
 463 328 l 1,6,-1
 453 375 l 1,7,-1
 418 420 l 1,8,-1
 405 441 l 1,9,-1
 81 389 l 1,10,-1
 -64 441 l 1,11,-1
 -35 559 l 1,12,-1
 281 649 l 1,13,-1
 634 687 l 1,14,-1
 719 741 l 1,15,-1
 994 720 l 1,16,-1
 1171 555 l 1,0,-1
418 516 m 1,17,-1
 542 588 l 1,18,-1
 545 623 l 1,19,-1
 574 657 l 1,20,-1
 292 617 l 1,21,-1
 4 538 l 1,22,-1
 -20 459 l 1,23,-1
 93 424 l 1,24,-1
 402 482 l 1,25,-1
 418 516 l 1,17,-1
459 414 m 1,26,-1
 532 385 l 1,27,-1
 537 469 l 1,28,-1
 560 548 l 1,29,-1
 436 499 l 1,30,-1
 459 414 l 1,26,-1
842 268 m 1,31,-1
 853 300 l 1,32,-1
 802 300 l 1,33,-1
 783 258 l 1,34,-1
 770 296 l 1,35,-1
 705 294 l 1,36,-1
 504 351 l 1,37,-1
 494 337 l 1,38,-1
 702 214 l 1,39,-1
 842 268 l 1,31,-1
842 328 m 1,40,-1
 933 429 l 1,41,-1
 842 512 l 1,42,-1
 796 499 l 1,43,-1
 731 345 l 1,44,-1
 842 328 l 1,40,-1
1084 332 m 1,45,-1
 1091 385 l 1,46,-1
 1035 375 l 1,47,-1
 1121 559 l 1,48,-1
 977 687 l 1,49,-1
 726 720 l 1,50,-1
 618 623 l 1,51,-1
 555 380 l 1,52,-1
 709 355 l 1,53,-1
 774 534 l 1,54,-1
 748 635 l 1,55,-1
 828 697 l 1,56,-1
 828 627 l 1,57,-1
 881 635 l 1,58,-1
 828 579 l 1,59,-1
 824 548 l 1,60,-1
 863 538 l 1,61,-1
 967 436 l 1,62,-1
 903 314 l 1,63,-1
 907 275 l 1,64,-1
 985 268 l 1,65,-1
 1084 332 l 1,45,-1
595 445 m 1,66,-1
 656 478 l 1,67,-1
 702 429 l 1,68,-1
 595 445 l 1,66,-1
837 367 m 1,69,-1
 792 412 l 1,70,-1
 837 478 l 1,71,-1
 837 367 l 1,69,-1
EndSplineSet
Validated: 1025
EndChar

StartChar: h
Encoding: 104 104 75
Width: 1064
VWidth: 1381
Flags: W
LayerCount: 2
Back
SplineSet
911.212890625 296.747070312 m 1,0,-1
 950.009765625 222.297851562 l 1,1,-1
 888.143554688 82.837890625 l 1,2,-1
 701.497070312 32.505859375 l 1,3,-1
 639.630859375 56.623046875 l 1,4,-1
 566.231445312 13.630859375 l 1,5,-1
 380.6328125 52.4287109375 l 1,6,-1
 383.779296875 125.829101562 l 1,7,-1
 275.775390625 102.759765625 l 1,8,-1
 147.848632812 141.557617188 l 1,9,-1
 143.655273438 195.03515625 l 1,10,-1
 28.3115234375 222.297851562 l 1,11,-1
 24.1171875 319.81640625 l 1,12,-1
 244.318359375 397.41015625 l 1,13,-1
 554.697265625 423.625 l 1,14,-1
 562.037109375 482.344726562 l 1,15,-1
 705.692382812 516.948242188 l 1,16,-1
 930.086914062 408.9453125 l 1,17,-1
 911.212890625 296.747070312 l 1,0,-1
55.5751953125 242.220703125 m 1,18,-1
 170.91796875 210.763671875 l 1,19,-1
 349.17578125 269.484375 l 1,20,-1
 531.627929688 292.552734375 l 1,21,-1
 550.501953125 404.75 l 1,22,-1
 256.901367188 370.147460938 l 1,23,-1
 51.3798828125 296.747070312 l 1,24,-1
 55.5751953125 242.220703125 l 1,18,-1
295.698242188 130.0234375 m 1,25,-1
 570.424804688 203.423828125 l 1,26,-1
 538.967773438 261.094726562 l 1,27,-1
 360.709960938 238.02734375 l 1,28,-1
 186.647460938 180.35546875 l 1,29,-1
 182.452148438 157.286132812 l 1,30,-1
 295.698242188 130.0234375 l 1,25,-1
666.893554688 121.634765625 m 1,31,-1
 682.623046875 141.557617188 l 1,32,-1
 635.436523438 157.286132812 l 1,33,-1
 585.10546875 187.6953125 l 1,34,-1
 415.236328125 130.0234375 l 1,35,-1
 407.896484375 75.4970703125 l 1,36,-1
 550.501953125 32.505859375 l 1,37,-1
 612.368164062 71.302734375 l 1,38,-1
 589.299804688 157.286132812 l 1,39,-1
 643.826171875 94.3720703125 l 1,40,-1
 666.893554688 121.634765625 l 1,31,-1
872.415039062 102.759765625 m 1,41,-1
 918.552734375 214.958007812 l 1,42,-1
 899.677734375 257.950195312 l 1,43,-1
 868.220703125 199.228515625 l 1,44,-1
 891.290039062 389.022460938 l 1,45,-1
 709.885742188 489.684570312 l 1,46,-1
 589.299804688 459.276367188 l 1,47,-1
 558.890625 276.82421875 l 1,48,-1
 628.096679688 195.03515625 l 1,49,-1
 698.3515625 168.821289062 l 1,50,-1
 740.294921875 210.763671875 l 1,51,-1
 717.225585938 276.82421875 l 1,52,-1
 689.962890625 373.29296875 l 1,53,-1
 685.768554688 435.159179688 l 1,54,-1
 728.759765625 370.147460938 l 1,55,-1
 771.751953125 384.827148438 l 1,56,-1
 740.294921875 319.81640625 l 1,57,-1
 771.751953125 180.35546875 l 1,58,-1
 732.955078125 160.431640625 l 1,59,-1
 728.759765625 130.0234375 l 1,60,-1
 685.768554688 102.759765625 l 1,61,-1
 709.885742188 59.7685546875 l 1,62,-1
 872.415039062 102.759765625 l 1,41,-1
620.756835938 222.297851562 m 1,63,-1
 639.630859375 272.629882812 l 1,64,-1
 698.3515625 253.754882812 l 1,65,-1
 620.756835938 222.297851562 l 1,63,-1
EndSplineSet
Fore
SplineSet
973 501 m 1,0,-1
 1018 413 l 1,1,-1
 946 250 l 1,2,-1
 727 191 l 1,3,-1
 654 219 l 1,4,-1
 568 169 l 1,5,-1
 351 214 l 1,6,-1
 355 300 l 1,7,-1
 228 273 l 1,8,-1
 78 319 l 1,9,-1
 73 382 l 1,10,-1
 -62 413 l 1,11,-1
 -67 528 l 1,12,-1
 191 619 l 1,13,-1
 555 649 l 1,14,-1
 564 718 l 1,15,-1
 732 759 l 1,16,-1
 995 632 l 1,17,-1
 973 501 l 1,0,-1
-30 437 m 1,18,-1
 105 400 l 1,19,-1
 314 469 l 1,20,-1
 528 496 l 1,21,-1
 550 627 l 1,22,-1
 206 587 l 1,23,-1
 -35 501 l 1,24,-1
 -30 437 l 1,18,-1
251 305 m 1,25,-1
 573 391 l 1,26,-1
 536 459 l 1,27,-1
 328 432 l 1,28,-1
 124 364 l 1,29,-1
 119 337 l 1,30,-1
 251 305 l 1,25,-1
686 296 m 1,31,-1
 705 319 l 1,32,-1
 650 337 l 1,33,-1
 591 373 l 1,34,-1
 391 305 l 1,35,-1
 383 241 l 1,36,-1
 550 191 l 1,37,-1
 622 237 l 1,38,-1
 595 337 l 1,39,-1
 659 264 l 1,40,-1
 686 296 l 1,31,-1
927 273 m 1,41,-1
 981 405 l 1,42,-1
 959 455 l 1,43,-1
 922 386 l 1,44,-1
 949 609 l 1,45,-1
 737 727 l 1,46,-1
 595 691 l 1,47,-1
 560 477 l 1,48,-1
 641 382 l 1,49,-1
 723 351 l 1,50,-1
 772 400 l 1,51,-1
 745 477 l 1,52,-1
 713 590 l 1,53,-1
 709 663 l 1,54,-1
 759 587 l 1,55,-1
 809 604 l 1,56,-1
 772 528 l 1,57,-1
 809 364 l 1,58,-1
 764 341 l 1,59,-1
 759 305 l 1,60,-1
 709 273 l 1,61,-1
 737 223 l 1,62,-1
 927 273 l 1,41,-1
632 413 m 1,63,-1
 654 472 l 1,64,-1
 723 450 l 1,65,-1
 632 413 l 1,63,-1
EndSplineSet
Validated: 1025
EndChar

StartChar: i
Encoding: 105 105 76
Width: 773
VWidth: 1358
Flags: W
LayerCount: 2
Back
SplineSet
630.194335938 365.953125 m 1,0,-1
 693.109375 291.50390625 l 1,1,-1
 618.66015625 51.3798828125 l 1,2,-1
 509.608398438 -2.0966796875 l 1,3,-1
 376.439453125 23.0693359375 l 1,4,-1
 281.017578125 -2.0966796875 l 1,5,-1
 128.974609375 106.955078125 l 1,6,-1
 92.275390625 219.15234375 l 1,7,-1
 113.24609375 378.536132812 l 1,8,-1
 54.5263671875 674.234375 l 1,9,-1
 121.634765625 758.120117188 l 1,10,-1
 254.803710938 683.671875 l 1,11,-1
 281.017578125 461.373046875 l 1,12,-1
 313.524414062 482.344726562 l 1,13,-1
 463.470703125 515.899414062 l 1,14,-1
 630.194335938 457.178710938 l 1,15,-1
 630.194335938 365.953125 l 1,0,-1
342.883789062 452.985351562 m 1,16,-1
 317.71875 370.147460938 l 1,17,-1
 346.030273438 357.564453125 l 1,18,-1
 455.08203125 390.0703125 l 1,19,-1
 467.665039062 436.208007812 l 1,20,-1
 481.295898438 394.264648438 l 1,21,-1
 517.997070312 407.896484375 l 1,22,-1
 589.299804688 373.29296875 l 1,23,-1
 597.688476562 428.868164062 l 1,24,-1
 471.859375 478.151367188 l 1,25,-1
 342.883789062 452.985351562 l 1,16,-1
264.241210938 424.672851562 m 1,26,-1
 201.327148438 390.0703125 l 1,27,-1
 229.637695312 286.260742188 l 1,28,-1
 229.637695312 324.009765625 l 1,29,-1
 281.017578125 349.17578125 l 1,30,-1
 283.116210938 403.702148438 l 1,31,-1
 264.241210938 424.672851562 l 1,26,-1
584.056640625 81.7890625 m 1,32,-1
 651.166015625 282.067382812 l 1,33,-1
 492.831054688 370.147460938 l 1,34,-1
 288.358398438 319.81640625 l 1,35,-1
 264.241210938 244.318359375 l 1,36,-1
 346.030273438 186.647460938 l 1,37,-1
 422.576171875 203.423828125 l 1,38,-1
 492.831054688 235.9296875 l 1,39,-1
 572.522460938 235.9296875 l 1,40,-1
 517.997070312 177.208984375 l 1,41,-1
 538.967773438 77.5947265625 l 1,42,-1
 492.831054688 140.508789062 l 1,43,-1
 435.159179688 123.732421875 l 1,44,-1
 408.9453125 135.265625 l 1,45,-1
 338.690429688 111.149414062 l 1,46,-1
 260.046875 156.23828125 l 1,47,-1
 187.6953125 277.873046875 l 1,48,-1
 176.161132812 403.702148438 l 1,49,-1
 250.610351562 452.985351562 l 1,50,-1
 225.444335938 653.262695312 l 1,51,-1
 124.78125 711.983398438 l 1,52,-1
 92.275390625 649.069335938 l 1,53,-1
 142.606445312 370.147460938 l 1,54,-1
 124.78125 240.124023438 l 1,55,-1
 155.189453125 131.072265625 l 1,56,-1
 275.775390625 28.3115234375 l 1,57,-1
 338.690429688 35.65234375 l 1,58,-1
 271.581054688 81.7890625 l 1,59,-1
 492.831054688 23.0693359375 l 1,60,-1
 584.056640625 81.7890625 l 1,32,-1
313.524414062 156.23828125 m 1,61,-1
 342.883789062 140.508789062 l 1,62,-1
 387.97265625 148.8984375 l 1,63,-1
 380.6328125 165.674804688 l 1,64,-1
 317.71875 173.014648438 l 1,65,-1
 313.524414062 156.23828125 l 1,61,-1
401.60546875 173.014648438 m 1,66,-1
 425.721679688 152.043945312 l 1,67,-1
 484.442382812 165.674804688 l 1,68,-1
 484.442382812 198.180664062 l 1,69,-1
 401.60546875 173.014648438 l 1,66,-1
355.466796875 219.15234375 m 1,70,-1
 325.05859375 315.62109375 l 1,71,-1
 404.75 273.677734375 l 1,72,-1
 355.466796875 219.15234375 l 1,70,-1
EndSplineSet
Fore
SplineSet
665 560 m 1,0,-1
 739 473 l 1,1,-1
 652 191 l 1,2,-1
 524 129 l 1,3,-1
 368 158 l 1,4,-1
 256 129 l 1,5,-1
 78 256 l 1,6,-1
 35 388 l 1,7,-1
 60 575 l 1,8,-1
 -9 921 l 1,9,-1
 70 1019 l 1,10,-1
 226 932 l 1,11,-1
 256 672 l 1,12,-1
 294 696 l 1,13,-1
 470 736 l 1,14,-1
 665 667 l 1,15,-1
 665 560 l 1,0,-1
329 662 m 1,16,-1
 299 565 l 1,17,-1
 332 550 l 1,18,-1
 460 588 l 1,19,-1
 475 642 l 1,20,-1
 491 593 l 1,21,-1
 534 609 l 1,22,-1
 618 568 l 1,23,-1
 627 634 l 1,24,-1
 480 691 l 1,25,-1
 329 662 l 1,16,-1
237 629 m 1,26,-1
 163 588 l 1,27,-1
 196 466 l 1,28,-1
 196 511 l 1,29,-1
 256 540 l 1,30,-1
 259 604 l 1,31,-1
 237 629 l 1,26,-1
611 227 m 1,32,-1
 690 462 l 1,33,-1
 505 565 l 1,34,-1
 265 506 l 1,35,-1
 237 417 l 1,36,-1
 332 350 l 1,37,-1
 422 369 l 1,38,-1
 505 407 l 1,39,-1
 598 407 l 1,40,-1
 534 339 l 1,41,-1
 559 222 l 1,42,-1
 505 296 l 1,43,-1
 437 276 l 1,44,-1
 406 289 l 1,45,-1
 324 261 l 1,46,-1
 232 314 l 1,47,-1
 147 457 l 1,48,-1
 133 604 l 1,49,-1
 221 662 l 1,50,-1
 191 897 l 1,51,-1
 73 965 l 1,52,-1
 35 892 l 1,53,-1
 94 565 l 1,54,-1
 73 412 l 1,55,-1
 109 285 l 1,56,-1
 250 164 l 1,57,-1
 324 173 l 1,58,-1
 245 227 l 1,59,-1
 505 158 l 1,60,-1
 611 227 l 1,32,-1
294 314 m 1,61,-1
 329 296 l 1,62,-1
 382 305 l 1,63,-1
 373 325 l 1,64,-1
 299 334 l 1,65,-1
 294 314 l 1,61,-1
398 334 m 1,66,-1
 426 309 l 1,67,-1
 495 325 l 1,68,-1
 495 363 l 1,69,-1
 398 334 l 1,66,-1
344 388 m 1,70,-1
 308 501 l 1,71,-1
 401 452 l 1,72,-1
 344 388 l 1,70,-1
EndSplineSet
Validated: 1025
EndChar

StartChar: j
Encoding: 106 106 77
Width: 1021
VWidth: 1364
Flags: W
LayerCount: 2
Back
SplineSet
258.998046875 63.962890625 m 1,0,-1
 247.463867188 103.80859375 l 1,1,-1
 368.049804688 51.3798828125 l 1,2,-1
 291.50390625 -48.234375 l 1,3,-1
 272.629882812 -7.33984375 l 1,4,-1
 228.58984375 -31.45703125 l 1,5,-1
 42.9921875 99.615234375 l 1,6,-1
 23.0693359375 336.592773438 l 1,7,-1
 251.658203125 605.028320312 l 1,8,-1
 87.0322265625 324.009765625 l 1,9,-1
 108.002929688 136.315429688 l 1,10,-1
 230.686523438 47.185546875 l 1,11,-1
 258.998046875 63.962890625 l 1,0,-1
836.763671875 363.856445312 m 1,12,-1
 895.484375 291.50390625 l 1,13,-1
 823.131835938 63.962890625 l 1,14,-1
 719.323242188 12.5830078125 l 1,15,-1
 591.397460938 36.7001953125 l 1,16,-1
 498.07421875 12.5830078125 l 1,17,-1
 354.418945312 117.44140625 l 1,18,-1
 319.81640625 224.39453125 l 1,19,-1
 339.739257812 376.439453125 l 1,20,-1
 283.116210938 659.553710938 l 1,21,-1
 348.126953125 740.294921875 l 1,22,-1
 475.004882812 667.943359375 l 1,23,-1
 498.07421875 457.178710938 l 1,24,-1
 531.627929688 476.053710938 l 1,25,-1
 675.283203125 509.608398438 l 1,26,-1
 836.763671875 452.985351562 l 1,27,-1
 836.763671875 363.856445312 l 1,12,-1
559.940429688 448.791015625 m 1,28,-1
 535.822265625 368.049804688 l 1,29,-1
 564.133789062 357.564453125 l 1,30,-1
 667.943359375 386.924804688 l 1,31,-1
 679.4765625 433.061523438 l 1,32,-1
 693.109375 391.119140625 l 1,33,-1
 726.663085938 404.75 l 1,34,-1
 795.869140625 372.244140625 l 1,35,-1
 803.208984375 424.672851562 l 1,36,-1
 683.671875 471.859375 l 1,37,-1
 559.940429688 448.791015625 l 1,28,-1
483.393554688 420.478515625 m 1,38,-1
 424.672851562 386.924804688 l 1,39,-1
 450.887695312 288.358398438 l 1,40,-1
 450.887695312 324.009765625 l 1,41,-1
 498.07421875 349.17578125 l 1,42,-1
 503.31640625 400.555664062 l 1,43,-1
 483.393554688 420.478515625 l 1,38,-1
791.674804688 93.3232421875 m 1,44,-1
 855.637695312 284.1640625 l 1,45,-1
 703.59375 368.049804688 l 1,46,-1
 507.510742188 319.81640625 l 1,47,-1
 483.393554688 247.463867188 l 1,48,-1
 564.133789062 191.888671875 l 1,49,-1
 635.436523438 208.666992188 l 1,50,-1
 703.59375 241.171875 l 1,51,-1
 779.091796875 241.171875 l 1,52,-1
 726.663085938 184.548828125 l 1,53,-1
 747.634765625 89.12890625 l 1,54,-1
 703.59375 147.848632812 l 1,55,-1
 646.970703125 132.12109375 l 1,56,-1
 622.853515625 143.655273438 l 1,57,-1
 555.745117188 120.5859375 l 1,58,-1
 479.19921875 165.674804688 l 1,59,-1
 412.08984375 279.969726562 l 1,60,-1
 399.506835938 400.555664062 l 1,61,-1
 471.859375 448.791015625 l 1,62,-1
 447.7421875 640.6796875 l 1,63,-1
 352.322265625 697.302734375 l 1,64,-1
 319.81640625 636.486328125 l 1,65,-1
 368.049804688 368.049804688 l 1,66,-1
 352.322265625 243.26953125 l 1,67,-1
 379.584960938 140.508789062 l 1,68,-1
 495.975585938 40.8935546875 l 1,69,-1
 555.745117188 47.185546875 l 1,70,-1
 491.782226562 93.3232421875 l 1,71,-1
 703.59375 36.7001953125 l 1,72,-1
 791.674804688 93.3232421875 l 1,44,-1
531.627929688 165.674804688 m 1,73,-1
 559.940429688 147.848632812 l 1,74,-1
 603.98046875 156.23828125 l 1,75,-1
 596.639648438 171.965820312 l 1,76,-1
 535.822265625 180.35546875 l 1,77,-1
 531.627929688 165.674804688 l 1,73,-1
616.563476562 180.35546875 m 1,78,-1
 639.630859375 161.481445312 l 1,79,-1
 695.206054688 171.965820312 l 1,80,-1
 695.206054688 203.423828125 l 1,81,-1
 616.563476562 180.35546875 l 1,78,-1
572.522460938 224.39453125 m 1,82,-1
 543.162109375 315.62109375 l 1,83,-1
 619.708007812 276.82421875 l 1,84,-1
 572.522460938 224.39453125 l 1,82,-1
EndSplineSet
Fore
SplineSet
214 212 m 1,0,-1
 200 259 l 1,1,-1
 342 197 l 1,2,-1
 252 81 l 1,3,-1
 230 129 l 1,4,-1
 178 100 l 1,5,-1
 -39 254 l 1,6,-1
 -63 532 l 1,7,-1
 205 846 l 1,8,-1
 12 517 l 1,9,-1
 37 297 l 1,10,-1
 181 193 l 1,11,-1
 214 212 l 1,0,-1
891 564 m 1,12,-1
 960 479 l 1,13,-1
 875 212 l 1,14,-1
 753 152 l 1,15,-1
 603 180 l 1,16,-1
 494 152 l 1,17,-1
 326 275 l 1,18,-1
 285 400 l 1,19,-1
 308 578 l 1,20,-1
 242 910 l 1,21,-1
 318 1005 l 1,22,-1
 467 920 l 1,23,-1
 494 673 l 1,24,-1
 533 695 l 1,25,-1
 702 734 l 1,26,-1
 891 668 l 1,27,-1
 891 564 l 1,12,-1
566 663 m 1,28,-1
 538 569 l 1,29,-1
 571 556 l 1,30,-1
 693 591 l 1,31,-1
 707 645 l 1,32,-1
 723 596 l 1,33,-1
 762 612 l 1,34,-1
 843 573 l 1,35,-1
 852 635 l 1,36,-1
 711 690 l 1,37,-1
 566 663 l 1,28,-1
477 630 m 1,38,-1
 408 591 l 1,39,-1
 439 475 l 1,40,-1
 439 517 l 1,41,-1
 494 546 l 1,42,-1
 500 607 l 1,43,-1
 477 630 l 1,38,-1
838 247 m 1,44,-1
 913 470 l 1,45,-1
 735 569 l 1,46,-1
 505 512 l 1,47,-1
 477 427 l 1,48,-1
 571 362 l 1,49,-1
 655 382 l 1,50,-1
 735 420 l 1,51,-1
 823 420 l 1,52,-1
 762 353 l 1,53,-1
 786 242 l 1,54,-1
 735 310 l 1,55,-1
 668 292 l 1,56,-1
 640 306 l 1,57,-1
 562 279 l 1,58,-1
 472 331 l 1,59,-1
 393 465 l 1,60,-1
 378 607 l 1,61,-1
 463 663 l 1,62,-1
 435 888 l 1,63,-1
 323 954 l 1,64,-1
 285 883 l 1,65,-1
 342 569 l 1,66,-1
 323 422 l 1,67,-1
 355 302 l 1,68,-1
 492 185 l 1,69,-1
 562 193 l 1,70,-1
 487 247 l 1,71,-1
 735 180 l 1,72,-1
 838 247 l 1,44,-1
533 331 m 1,73,-1
 566 310 l 1,74,-1
 618 320 l 1,75,-1
 609 339 l 1,76,-1
 538 349 l 1,77,-1
 533 331 l 1,73,-1
633 349 m 1,78,-1
 660 326 l 1,79,-1
 725 339 l 1,80,-1
 725 376 l 1,81,-1
 633 349 l 1,78,-1
581 400 m 1,82,-1
 547 507 l 1,83,-1
 637 462 l 1,84,-1
 581 400 l 1,82,-1
EndSplineSet
Validated: 1025
EndChar

StartChar: k
Encoding: 107 107 78
Width: 764
VWidth: 1354
Flags: W
LayerCount: 2
Back
SplineSet
626 271.581054688 m 1,0,-1
 665.845703125 214.958007812 l 1,1,-1
 600.833984375 40.8935546875 l 1,2,-1
 455.08203125 48.234375 l 1,3,-1
 333.447265625 7.33984375 l 1,4,-1
 195.03515625 89.12890625 l 1,5,-1
 167.772460938 201.327148438 l 1,6,-1
 204.471679688 264.241210938 l 1,7,-1
 159.383789062 324.009765625 l 1,8,-1
 245.3671875 412.08984375 l 1,9,-1
 17.826171875 538.967773438 l 1,10,-1
 30.4091796875 656.409179688 l 1,11,-1
 163.578125 693.109375 l 1,12,-1
 439.352539062 485.491210938 l 1,13,-1
 427.819335938 737.149414062 l 1,14,-1
 564.133789062 797.965820312 l 1,15,-1
 653.262695312 720.372070312 l 1,16,-1
 621.805664062 417.333007812 l 1,17,-1
 626 271.581054688 l 1,0,-1
564.133789062 766.508789062 m 1,18,-1
 459.276367188 720.372070312 l 1,19,-1
 476.053710938 441.450195312 l 1,20,-1
 573.571289062 332.399414062 l 1,21,-1
 617.611328125 713.032226562 l 1,22,-1
 564.133789062 766.508789062 l 1,18,-1
41.943359375 557.841796875 m 1,23,-1
 285.212890625 417.333007812 l 1,24,-1
 301.990234375 485.491210938 l 1,25,-1
 374.341796875 489.684570312 l 1,26,-1
 159.383789062 659.553710938 l 1,27,-1
 54.5263671875 635.436523438 l 1,28,-1
 41.943359375 557.841796875 l 1,23,-1
221.25 339.739257812 m 1,29,-1
 265.290039062 319.81640625 l 1,30,-1
 211.811523438 312.475585938 l 1,31,-1
 309.330078125 177.208984375 l 1,32,-1
 367.001953125 177.208984375 l 1,33,-1
 378.536132812 230.686523438 l 1,34,-1
 318.766601562 206.569335938 l 1,35,-1
 337.640625 264.241210938 l 1,36,-1
 285.212890625 339.739257812 l 1,37,-1
 282.067382812 397.41015625 l 1,38,-1
 245.3671875 363.856445312 l 1,39,-1
 221.25 339.739257812 l 1,29,-1
576.716796875 65.01171875 m 1,40,-1
 629.146484375 201.327148438 l 1,41,-1
 405.798828125 461.373046875 l 1,42,-1
 320.864257812 458.227539062 l 1,43,-1
 313.524414062 363.856445312 l 1,44,-1
 391.119140625 251.658203125 l 1,45,-1
 491.782226562 201.327148438 l 1,46,-1
 411.041992188 193.987304688 l 1,47,-1
 394.264648438 145.751953125 l 1,48,-1
 301.990234375 145.751953125 l 1,49,-1
 211.811523438 218.103515625 l 1,50,-1
 221.25 109.051757812 l 1,51,-1
 342.883789062 44.0400390625 l 1,52,-1
 405.798828125 72.3515625 l 1,53,-1
 342.883789062 116.391601562 l 1,54,-1
 576.716796875 65.01171875 l 1,40,-1
333.447265625 363.856445312 m 1,55,-1
 427.819335938 428.868164062 l 1,56,-1
 415.236328125 373.29296875 l 1,57,-1
 333.447265625 363.856445312 l 1,55,-1
EndSplineSet
Fore
SplineSet
667 444 m 1,0,-1
 714 378 l 1,1,-1
 637 174 l 1,2,-1
 467 183 l 1,3,-1
 324 135 l 1,4,-1
 162 231 l 1,5,-1
 130 362 l 1,6,-1
 173 436 l 1,7,-1
 120 506 l 1,8,-1
 221 609 l 1,9,-1
 -46 758 l 1,10,-1
 -31 895 l 1,11,-1
 125 938 l 1,12,-1
 448 695 l 1,13,-1
 435 990 l 1,14,-1
 594 1061 l 1,15,-1
 699 970 l 1,16,-1
 662 615 l 1,17,-1
 667 444 l 1,0,-1
594 1024 m 1,18,-1
 471 970 l 1,19,-1
 491 643 l 1,20,-1
 605 516 l 1,21,-1
 657 962 l 1,22,-1
 594 1024 l 1,18,-1
-18 780 m 1,23,-1
 267 615 l 1,24,-1
 287 695 l 1,25,-1
 372 700 l 1,26,-1
 120 899 l 1,27,-1
 -3 871 l 1,28,-1
 -18 780 l 1,23,-1
193 524 m 1,29,-1
 244 501 l 1,30,-1
 181 492 l 1,31,-1
 296 334 l 1,32,-1
 363 334 l 1,33,-1
 377 396 l 1,34,-1
 307 368 l 1,35,-1
 329 436 l 1,36,-1
 267 524 l 1,37,-1
 264 592 l 1,38,-1
 221 553 l 1,39,-1
 193 524 l 1,29,-1
609 202 m 1,40,-1
 671 362 l 1,41,-1
 409 667 l 1,42,-1
 309 663 l 1,43,-1
 301 553 l 1,44,-1
 392 421 l 1,45,-1
 510 362 l 1,46,-1
 415 353 l 1,47,-1
 395 297 l 1,48,-1
 287 297 l 1,49,-1
 181 382 l 1,50,-1
 193 254 l 1,51,-1
 335 178 l 1,52,-1
 409 211 l 1,53,-1
 335 263 l 1,54,-1
 609 202 l 1,40,-1
324 553 m 1,55,-1
 435 629 l 1,56,-1
 420 564 l 1,57,-1
 324 553 l 1,55,-1
EndSplineSet
Validated: 1025
EndChar

StartChar: l
Encoding: 108 108 79
Width: 870
VWidth: 1355
Flags: W
LayerCount: 2
Back
SplineSet
714.080078125 254.803710938 m 1,0,-1
 785.3828125 146.80078125 l 1,1,-1
 645.922851562 33.5537109375 l 1,2,-1
 564.133789062 59.7685546875 l 1,3,-1
 434.110351562 4.1943359375 l 1,4,-1
 294.650390625 41.943359375 l 1,5,-1
 211.811523438 4.1943359375 l 1,6,-1
 89.12890625 78.642578125 l 1,7,-1
 103.80859375 171.965820312 l 1,8,-1
 31.45703125 288.358398438 l 1,9,-1
 72.3515625 364.904296875 l 1,10,-1
 127.92578125 381.681640625 l 1,11,-1
 174.064453125 457.178710938 l 1,12,-1
 265.290039062 447.7421875 l 1,13,-1
 315.62109375 418.381835938 l 1,14,-1
 304.086914062 623.903320312 l 1,15,-1
 374.341796875 746.5859375 l 1,16,-1
 467.665039062 787.481445312 l 1,17,-1
 564.133789062 670.040039062 l 1,18,-1
 491.782226562 348.126953125 l 1,19,-1
 530.579101562 243.26953125 l 1,20,-1
 714.080078125 254.803710938 l 1,0,-1
161.481445312 364.904296875 m 1,21,-1
 161.481445312 281.017578125 l 1,22,-1
 182.452148438 254.803710938 l 1,23,-1
 265.290039062 264.241210938 l 1,24,-1
 211.811523438 218.103515625 l 1,25,-1
 214.958007812 208.666992188 l 1,26,-1
 294.650390625 189.791992188 l 1,27,-1
 315.62109375 251.658203125 l 1,28,-1
 253.754882812 360.709960938 l 1,29,-1
 253.754882812 384.827148438 l 1,30,-1
 304.086914062 390.0703125 l 1,31,-1
 241.171875 427.819335938 l 1,32,-1
 185.59765625 427.819335938 l 1,33,-1
 161.481445312 364.904296875 l 1,21,-1
69.2060546875 285.212890625 m 1,34,-1
 118.489257812 208.666992188 l 1,35,-1
 168.821289062 201.327148438 l 1,36,-1
 140.508789062 171.965820312 l 1,37,-1
 161.481445312 143.655273438 l 1,38,-1
 202.375 150.995117188 l 1,39,-1
 195.03515625 191.888671875 l 1,40,-1
 135.265625 260.046875 l 1,41,-1
 140.508789062 338.690429688 l 1,42,-1
 94.3720703125 334.49609375 l 1,43,-1
 69.2060546875 285.212890625 l 1,34,-1
638.583007812 78.642578125 m 1,44,-1
 730.857421875 158.334960938 l 1,45,-1
 692.059570312 230.686523438 l 1,46,-1
 504.365234375 191.888671875 l 1,47,-1
 450.887695312 351.2734375 l 1,48,-1
 525.336914062 666.893554688 l 1,49,-1
 454.033203125 741.342773438 l 1,50,-1
 400.555664062 728.759765625 l 1,51,-1
 341.8359375 607.125976562 l 1,52,-1
 341.8359375 435.159179688 l 1,53,-1
 354.418945312 351.2734375 l 1,54,-1
 294.650390625 360.709960938 l 1,55,-1
 354.418945312 238.02734375 l 1,56,-1
 315.62109375 163.578125 l 1,57,-1
 245.3671875 167.772460938 l 1,58,-1
 231.735351562 146.80078125 l 1,59,-1
 168.821289062 117.44140625 l 1,60,-1
 123.732421875 130.0234375 l 1,61,-1
 123.732421875 96.46875 l 1,62,-1
 219.15234375 33.5537109375 l 1,63,-1
 262.143554688 50.33203125 l 1,64,-1
 214.958007812 93.3232421875 l 1,65,-1
 434.110351562 33.5537109375 l 1,66,-1
 564.133789062 93.3232421875 l 1,67,-1
 638.583007812 78.642578125 l 1,44,-1
EndSplineSet
Fore
SplineSet
757 426 m 1,0,-1
 841 300 l 1,1,-1
 677 167 l 1,2,-1
 581 198 l 1,3,-1
 429 132 l 1,4,-1
 266 177 l 1,5,-1
 168 132 l 1,6,-1
 25 220 l 1,7,-1
 42 329 l 1,8,-1
 -43 465 l 1,9,-1
 5 555 l 1,10,-1
 70 575 l 1,11,-1
 124 663 l 1,12,-1
 231 652 l 1,13,-1
 290 618 l 1,14,-1
 277 859 l 1,15,-1
 359 1002 l 1,16,-1
 468 1050 l 1,17,-1
 581 913 l 1,18,-1
 497 535 l 1,19,-1
 542 413 l 1,20,-1
 757 426 l 1,0,-1
109 555 m 1,21,-1
 109 457 l 1,22,-1
 134 426 l 1,23,-1
 231 437 l 1,24,-1
 168 383 l 1,25,-1
 172 372 l 1,26,-1
 266 350 l 1,27,-1
 290 422 l 1,28,-1
 218 550 l 1,29,-1
 218 578 l 1,30,-1
 277 585 l 1,31,-1
 203 629 l 1,32,-1
 138 629 l 1,33,-1
 109 555 l 1,21,-1
1 462 m 1,34,-1
 59 372 l 1,35,-1
 118 363 l 1,36,-1
 85 329 l 1,37,-1
 109 296 l 1,38,-1
 157 304 l 1,39,-1
 149 352 l 1,40,-1
 79 432 l 1,41,-1
 85 524 l 1,42,-1
 31 519 l 1,43,-1
 1 462 l 1,34,-1
669 220 m 1,44,-1
 777 313 l 1,45,-1
 731 398 l 1,46,-1
 511 352 l 1,47,-1
 449 539 l 1,48,-1
 536 909 l 1,49,-1
 452 996 l 1,50,-1
 390 982 l 1,51,-1
 321 839 l 1,52,-1
 321 637 l 1,53,-1
 336 539 l 1,54,-1
 266 550 l 1,55,-1
 336 406 l 1,56,-1
 290 319 l 1,57,-1
 208 324 l 1,58,-1
 192 300 l 1,59,-1
 118 265 l 1,60,-1
 65 280 l 1,61,-1
 65 241 l 1,62,-1
 177 167 l 1,63,-1
 227 186 l 1,64,-1
 172 237 l 1,65,-1
 429 167 l 1,66,-1
 581 237 l 1,67,-1
 669 220 l 1,44,-1
EndSplineSet
Validated: 1025
EndChar

StartChar: m
Encoding: 109 109 80
Width: 797
VWidth: 1380
Flags: W
LayerCount: 2
Back
SplineSet
591.397460938 466.616210938 m 1,0,-1
 689.962890625 269.484375 l 1,1,-1
 548.405273438 50.33203125 l 1,2,-1
 506.461914062 54.5263671875 l 1,3,-1
 445.64453125 1.048828125 l 1,4,-1
 312.475585938 42.9921875 l 1,5,-1
 220.201171875 11.5341796875 l 1,6,-1
 79.6923828125 154.140625 l 1,7,-1
 79.6923828125 233.83203125 l 1,8,-1
 17.826171875 310.377929688 l 1,9,-1
 74.44921875 450.887695312 l 1,10,-1
 170.91796875 447.7421875 l 1,11,-1
 240.124023438 528.482421875 l 1,12,-1
 365.953125 486.5390625 l 1,13,-1
 418.381835938 535.822265625 l 1,14,-1
 591.397460938 466.616210938 l 1,0,-1
231.735351562 486.5390625 m 1,15,-1
 147.848632812 378.536132812 l 1,16,-1
 185.59765625 238.02734375 l 1,17,-1
 193.987304688 230.686523438 l 1,18,-1
 204.471679688 210.763671875 l 1,19,-1
 284.1640625 207.618164062 l 1,20,-1
 231.735351562 173.014648438 l 1,21,-1
 273.677734375 161.481445312 l 1,22,-1
 315.62109375 191.888671875 l 1,23,-1
 263.193359375 306.18359375 l 1,24,-1
 289.407226562 414.188476562 l 1,25,-1
 338.690429688 463.470703125 l 1,26,-1
 231.735351562 486.5390625 l 1,15,-1
63.962890625 287.309570312 m 1,27,-1
 116.391601562 249.560546875 l 1,28,-1
 143.655273438 261.094726562 l 1,29,-1
 136.315429688 233.83203125 l 1,30,-1
 182.452148438 203.423828125 l 1,31,-1
 159.383789062 253.754882812 l 1,32,-1
 120.5859375 378.536132812 l 1,33,-1
 152.043945312 424.672851562 l 1,34,-1
 94.3720703125 421.528320312 l 1,35,-1
 51.3798828125 318.766601562 l 1,36,-1
 63.962890625 287.309570312 l 1,27,-1
426.76953125 24.1171875 m 1,37,-1
 460.325195312 62.9150390625 l 1,38,-1
 322.9609375 80.740234375 l 1,39,-1
 204.471679688 99.615234375 l 1,40,-1
 132.12109375 145.751953125 l 1,41,-1
 113.24609375 195.03515625 l 1,42,-1
 124.78125 210.763671875 l 1,43,-1
 102.759765625 218.103515625 l 1,44,-1
 97.517578125 165.674804688 l 1,45,-1
 224.39453125 42.9921875 l 1,46,-1
 270.533203125 50.33203125 l 1,47,-1
 234.880859375 85.9833984375 l 1,48,-1
 426.76953125 24.1171875 l 1,37,-1
533.724609375 96.46875 m 1,49,-1
 659.553710938 264.241210938 l 1,50,-1
 559.940429688 444.595703125 l 1,51,-1
 422.576171875 502.267578125 l 1,52,-1
 327.15625 409.993164062 l 1,53,-1
 292.552734375 298.84375 l 1,54,-1
 322.9609375 241.171875 l 1,55,-1
 335.543945312 218.103515625 l 1,56,-1
 445.64453125 210.763671875 l 1,57,-1
 361.758789062 173.014648438 l 1,58,-1
 430.96484375 161.481445312 l 1,59,-1
 495.975585938 214.958007812 l 1,60,-1
 487.587890625 344.982421875 l 1,61,-1
 519.044921875 424.672851562 l 1,62,-1
 519.044921875 391.119140625 l 1,63,-1
 568.328125 352.322265625 l 1,64,-1
 526.384765625 352.322265625 l 1,65,-1
 522.19140625 272.629882812 l 1,66,-1
 578.814453125 287.309570312 l 1,67,-1
 526.384765625 223.346679688 l 1,68,-1
 467.665039062 142.606445312 l 1,69,-1
 361.758789062 149.946289062 l 1,70,-1
 327.15625 168.821289062 l 1,71,-1
 289.407226562 142.606445312 l 1,72,-1
 217.0546875 149.946289062 l 1,73,-1
 197.131835938 184.548828125 l 1,74,-1
 162.529296875 168.821289062 l 1,75,-1
 143.655273438 184.548828125 l 1,76,-1
 159.383789062 154.140625 l 1,77,-1
 224.39453125 122.682617188 l 1,78,-1
 361.758789062 96.46875 l 1,79,-1
 533.724609375 96.46875 l 1,49,-1
EndSplineSet
Fore
SplineSet
624 699 m 1,0,-1
 739 468 l 1,1,-1
 574 211 l 1,2,-1
 524 216 l 1,3,-1
 453 154 l 1,4,-1
 297 203 l 1,5,-1
 189 166 l 1,6,-1
 24 333 l 1,7,-1
 24 426 l 1,8,-1
 -48 516 l 1,9,-1
 18 681 l 1,10,-1
 131 677 l 1,11,-1
 212 772 l 1,12,-1
 360 723 l 1,13,-1
 421 780 l 1,14,-1
 624 699 l 1,0,-1
202 723 m 1,15,-1
 104 596 l 1,16,-1
 148 431 l 1,17,-1
 158 423 l 1,18,-1
 170 399 l 1,19,-1
 264 396 l 1,20,-1
 202 355 l 1,21,-1
 252 342 l 1,22,-1
 301 377 l 1,23,-1
 239 511 l 1,24,-1
 270 638 l 1,25,-1
 328 696 l 1,26,-1
 202 723 l 1,15,-1
6 489 m 1,27,-1
 67 445 l 1,28,-1
 99 458 l 1,29,-1
 91 426 l 1,30,-1
 145 391 l 1,31,-1
 118 450 l 1,32,-1
 72 596 l 1,33,-1
 109 650 l 1,34,-1
 41 646 l 1,35,-1
 -9 526 l 1,36,-1
 6 489 l 1,27,-1
431 181 m 1,37,-1
 470 226 l 1,38,-1
 309 247 l 1,39,-1
 170 269 l 1,40,-1
 86 323 l 1,41,-1
 64 381 l 1,42,-1
 77 399 l 1,43,-1
 51 408 l 1,44,-1
 45 347 l 1,45,-1
 194 203 l 1,46,-1
 248 211 l 1,47,-1
 206 253 l 1,48,-1
 431 181 l 1,37,-1
556 265 m 1,49,-1
 704 462 l 1,50,-1
 587 673 l 1,51,-1
 426 741 l 1,52,-1
 314 633 l 1,53,-1
 274 503 l 1,54,-1
 309 435 l 1,55,-1
 324 408 l 1,56,-1
 453 399 l 1,57,-1
 355 355 l 1,58,-1
 436 342 l 1,59,-1
 512 404 l 1,60,-1
 502 557 l 1,61,-1
 539 650 l 1,62,-1
 539 611 l 1,63,-1
 597 565 l 1,64,-1
 548 565 l 1,65,-1
 543 472 l 1,66,-1
 609 489 l 1,67,-1
 548 414 l 1,68,-1
 479 319 l 1,69,-1
 355 328 l 1,70,-1
 314 350 l 1,71,-1
 270 319 l 1,72,-1
 185 328 l 1,73,-1
 162 369 l 1,74,-1
 121 350 l 1,75,-1
 99 369 l 1,76,-1
 118 333 l 1,77,-1
 194 296 l 1,78,-1
 355 265 l 1,79,-1
 556 265 l 1,49,-1
EndSplineSet
Validated: 1025
EndChar

StartChar: n
Encoding: 110 110 81
Width: 750
VWidth: 1379
Flags: W
LayerCount: 2
Back
SplineSet
624.951171875 434.110351562 m 1,0,-1
 654.310546875 242.220703125 l 1,1,-1
 594.54296875 97.517578125 l 1,2,-1
 471.859375 50.33203125 l 1,3,-1
 403.702148438 0 l 1,4,-1
 288.358398438 20.9716796875 l 1,5,-1
 195.03515625 25.166015625 l 1,6,-1
 143.655273438 89.12890625 l 1,7,-1
 71.302734375 179.305664062 l 1,8,-1
 33.5537109375 289.407226562 l 1,9,-1
 93.3232421875 360.709960938 l 1,10,-1
 80.740234375 413.138671875 l 1,11,-1
 190.840820312 523.239257812 l 1,12,-1
 297.795898438 506.461914062 l 1,13,-1
 327.15625 544.2109375 l 1,14,-1
 458.227539062 531.627929688 l 1,15,-1
 624.951171875 434.110351562 l 1,0,-1
203.423828125 493.87890625 m 1,16,-1
 118.489257812 413.138671875 l 1,17,-1
 174.064453125 263.193359375 l 1,18,-1
 211.811523438 250.610351562 l 1,19,-1
 190.840820312 238.02734375 l 1,20,-1
 217.0546875 203.423828125 l 1,21,-1
 254.803710938 182.452148438 l 1,22,-1
 271.581054688 199.228515625 l 1,23,-1
 228.58984375 242.220703125 l 1,24,-1
 211.811523438 399.506835938 l 1,25,-1
 258.998046875 480.248046875 l 1,26,-1
 203.423828125 493.87890625 l 1,16,-1
181.404296875 80.740234375 m 1,27,-1
 207.618164062 62.9150390625 l 1,28,-1
 258.998046875 105.90625 l 1,29,-1
 250.610351562 157.286132812 l 1,30,-1
 181.404296875 182.452148438 l 1,31,-1
 104.858398438 327.15625 l 1,32,-1
 71.302734375 284.1640625 l 1,33,-1
 101.711914062 186.647460938 l 1,34,-1
 161.481445312 97.517578125 l 1,35,-1
 207.618164062 143.655273438 l 1,36,-1
 181.404296875 80.740234375 l 1,27,-1
391.119140625 33.5537109375 m 1,37,-1
 428.868164062 55.5751953125 l 1,38,-1
 271.581054688 80.740234375 l 1,39,-1
 241.171875 46.13671875 l 1,40,-1
 391.119140625 33.5537109375 l 1,37,-1
570.424804688 122.682617188 m 1,41,-1
 616.563476562 250.610351562 l 1,42,-1
 591.397460938 416.28515625 l 1,43,-1
 441.450195312 497.025390625 l 1,44,-1
 339.739257812 514.850585938 l 1,45,-1
 250.610351562 399.506835938 l 1,46,-1
 279.969726562 238.02734375 l 1,47,-1
 386.924804688 250.610351562 l 1,48,-1
 305.135742188 199.228515625 l 1,49,-1
 314.573242188 182.452148438 l 1,50,-1
 391.119140625 179.305664062 l 1,51,-1
 441.450195312 242.220703125 l 1,52,-1
 437.255859375 374.341796875 l 1,53,-1
 484.442382812 429.916015625 l 1,54,-1
 493.87890625 374.341796875 l 1,55,-1
 556.793945312 349.17578125 l 1,56,-1
 480.248046875 349.17578125 l 1,57,-1
 471.859375 225.444335938 l 1,58,-1
 560.98828125 242.220703125 l 1,59,-1
 446.693359375 186.647460938 l 1,60,-1
 395.313476562 143.655273438 l 1,61,-1
 279.969726562 153.091796875 l 1,62,-1
 279.969726562 110.099609375 l 1,63,-1
 455.08203125 83.8857421875 l 1,64,-1
 570.424804688 122.682617188 l 1,41,-1
EndSplineSet
Fore
SplineSet
665 660 m 1,0,-1
 700 436 l 1,1,-1
 630 266 l 1,2,-1
 486 211 l 1,3,-1
 406 152 l 1,4,-1
 271 176 l 1,5,-1
 161 181 l 1,6,-1
 101 256 l 1,7,-1
 16 362 l 1,8,-1
 -28 491 l 1,9,-1
 42 574 l 1,10,-1
 27 636 l 1,11,-1
 156 765 l 1,12,-1
 282 745 l 1,13,-1
 316 789 l 1,14,-1
 470 775 l 1,15,-1
 665 660 l 1,0,-1
171 730 m 1,16,-1
 72 636 l 1,17,-1
 137 460 l 1,18,-1
 181 445 l 1,19,-1
 156 431 l 1,20,-1
 187 390 l 1,21,-1
 231 365 l 1,22,-1
 251 385 l 1,23,-1
 201 436 l 1,24,-1
 181 620 l 1,25,-1
 236 714 l 1,26,-1
 171 730 l 1,16,-1
145 246 m 1,27,-1
 176 225 l 1,28,-1
 236 276 l 1,29,-1
 227 336 l 1,30,-1
 145 365 l 1,31,-1
 56 535 l 1,32,-1
 16 485 l 1,33,-1
 52 370 l 1,34,-1
 122 266 l 1,35,-1
 176 320 l 1,36,-1
 145 246 l 1,27,-1
391 191 m 1,37,-1
 435 217 l 1,38,-1
 251 246 l 1,39,-1
 215 206 l 1,40,-1
 391 191 l 1,37,-1
601 295 m 1,41,-1
 655 445 l 1,42,-1
 626 639 l 1,43,-1
 450 734 l 1,44,-1
 331 755 l 1,45,-1
 227 620 l 1,46,-1
 261 431 l 1,47,-1
 386 445 l 1,48,-1
 290 385 l 1,49,-1
 301 365 l 1,50,-1
 391 362 l 1,51,-1
 450 436 l 1,52,-1
 445 590 l 1,53,-1
 501 655 l 1,54,-1
 512 590 l 1,55,-1
 585 561 l 1,56,-1
 496 561 l 1,57,-1
 486 416 l 1,58,-1
 590 436 l 1,59,-1
 456 370 l 1,60,-1
 396 320 l 1,61,-1
 261 331 l 1,62,-1
 261 281 l 1,63,-1
 466 250 l 1,64,-1
 601 295 l 1,41,-1
EndSplineSet
Validated: 1025
EndChar

StartChar: o
Encoding: 111 111 82
Width: 693
VWidth: 1379
Flags: W
LayerCount: 2
Back
SplineSet
522.19140625 455.08203125 m 1,0,-1
 614.465820312 271.581054688 l 1,1,-1
 585.10546875 110.099609375 l 1,2,-1
 456.130859375 14.6796875 l 1,3,-1
 273.677734375 22.01953125 l 1,4,-1
 111.149414062 138.412109375 l 1,5,-1
 111.149414062 212.861328125 l 1,6,-1
 111.149414062 223.346679688 l 1,7,-1
 52.4287109375 230.686523438 l 1,8,-1
 23.0693359375 300.94140625 l 1,9,-1
 30.4091796875 337.640625 l 1,10,-1
 191.888671875 488.635742188 l 1,11,-1
 243.26953125 503.31640625 l 1,12,-1
 284.1640625 532.676757812 l 1,13,-1
 522.19140625 455.08203125 l 1,0,-1
40.8935546875 315.62109375 m 1,14,-1
 78.642578125 304.086914062 l 1,15,-1
 99.615234375 300.94140625 l 1,16,-1
 74.44921875 352.322265625 l 1,17,-1
 40.8935546875 315.62109375 l 1,14,-1
67.109375 252.70703125 m 1,18,-1
 115.342773438 242.220703125 l 1,19,-1
 150.995117188 252.70703125 l 1,20,-1
 81.7890625 278.920898438 l 1,21,-1
 52.4287109375 282.067382812 l 1,22,-1
 67.109375 252.70703125 l 1,18,-1
563.084960938 135.265625 m 1,23,-1
 580.911132812 275.775390625 l 1,24,-1
 507.510742188 440.40234375 l 1,25,-1
 294.650390625 503.31640625 l 1,26,-1
 122.682617188 371.196289062 l 1,27,-1
 188.744140625 322.9609375 l 1,28,-1
 111.149414062 348.126953125 l 1,29,-1
 108.002929688 327.15625 l 1,30,-1
 133.168945312 282.067382812 l 1,31,-1
 191.888671875 271.581054688 l 1,32,-1
 301.990234375 396.362304688 l 1,33,-1
 346.030273438 381.681640625 l 1,34,-1
 438.3046875 389.022460938 l 1,35,-1
 360.709960938 359.662109375 l 1,36,-1
 486.5390625 252.70703125 l 1,37,-1
 422.576171875 286.260742188 l 1,38,-1
 408.9453125 193.987304688 l 1,39,-1
 298.84375 171.965820312 l 1,40,-1
 202.375 238.02734375 l 1,41,-1
 140.508789062 227.541015625 l 1,42,-1
 130.0234375 150.995117188 l 1,43,-1
 291.50390625 48.234375 l 1,44,-1
 452.985351562 51.3798828125 l 1,45,-1
 563.084960938 135.265625 l 1,23,-1
250.610351562 275.775390625 m 1,46,-1
 376.439453125 282.067382812 l 1,47,-1
 257.950195312 238.02734375 l 1,48,-1
 312.475585938 193.987304688 l 1,49,-1
 379.584960938 217.0546875 l 1,50,-1
 394.264648438 296.747070312 l 1,51,-1
 335.543945312 348.126953125 l 1,52,-1
 305.135742188 362.806640625 l 1,53,-1
 266.337890625 315.62109375 l 1,54,-1
 250.610351562 275.775390625 l 1,46,-1
163.578125 110.099609375 m 1,55,-1
 181.404296875 117.44140625 l 1,56,-1
 174.064453125 124.78125 l 1,57,-1
 163.578125 110.099609375 l 1,58,-1
 163.578125 110.099609375 l 1,55,-1
228.58984375 183.500976562 m 1,59,-1
 174.064453125 124.78125 l 1,60,-1
 181.404296875 117.44140625 l 1,61,-1
 218.103515625 132.12109375 l 1,62,-1
 228.58984375 183.500976562 l 1,63,-1
 228.58984375 183.500976562 l 1,59,-1
202.375 145.751953125 m 1,64,-1
 150.995117188 142.606445312 l 1,65,-1
 202.375 212.861328125 l 1,66,-1
 202.375 145.751953125 l 1,64,-1
EndSplineSet
Fore
SplineSet
550 685 m 1,0,-1
 658 470 l 1,1,-1
 623 280 l 1,2,-1
 472 169 l 1,3,-1
 258 177 l 1,4,-1
 68 314 l 1,5,-1
 68 401 l 1,6,-1
 68 413 l 1,7,-1
 -1 422 l 1,8,-1
 -35 504 l 1,9,-1
 -27 547 l 1,10,-1
 163 724 l 1,11,-1
 223 741 l 1,12,-1
 271 776 l 1,13,-1
 550 685 l 1,0,-1
-14 521 m 1,14,-1
 30 508 l 1,15,-1
 54 504 l 1,16,-1
 25 564 l 1,17,-1
 -14 521 l 1,14,-1
16 447 m 1,18,-1
 73 435 l 1,19,-1
 115 447 l 1,20,-1
 34 478 l 1,21,-1
 -1 482 l 1,22,-1
 16 447 l 1,18,-1
598 310 m 1,23,-1
 618 475 l 1,24,-1
 532 667 l 1,25,-1
 283 741 l 1,26,-1
 82 586 l 1,27,-1
 159 530 l 1,28,-1
 68 559 l 1,29,-1
 64 535 l 1,30,-1
 94 482 l 1,31,-1
 163 470 l 1,32,-1
 292 616 l 1,33,-1
 343 599 l 1,34,-1
 451 607 l 1,35,-1
 360 573 l 1,36,-1
 508 447 l 1,37,-1
 433 487 l 1,38,-1
 417 379 l 1,39,-1
 288 353 l 1,40,-1
 175 430 l 1,41,-1
 102 418 l 1,42,-1
 90 328 l 1,43,-1
 279 208 l 1,44,-1
 469 212 l 1,45,-1
 598 310 l 1,23,-1
231 475 m 1,46,-1
 379 482 l 1,47,-1
 240 430 l 1,48,-1
 304 379 l 1,49,-1
 383 406 l 1,50,-1
 400 499 l 1,51,-1
 331 559 l 1,52,-1
 295 577 l 1,53,-1
 250 521 l 1,54,-1
 231 475 l 1,46,-1
129 280 m 1,55,-1
 150 289 l 1,56,-1
 142 298 l 1,57,-1
 129 280 l 1,58,-1
 129 280 l 1,55,-1
206 366 m 1,59,-1
 142 298 l 1,60,-1
 150 289 l 1,61,-1
 193 306 l 1,62,-1
 206 366 l 1,63,-1
 206 366 l 1,59,-1
175 322 m 1,64,-1
 115 318 l 1,65,-1
 175 401 l 1,66,-1
 175 322 l 1,64,-1
EndSplineSet
Validated: 1029
EndChar

StartChar: p
Encoding: 112 112 83
Width: 1103
VWidth: 1383
Flags: W
LayerCount: 2
Back
SplineSet
851.444335938 488.635742188 m 1,0,-1
 984.61328125 355.466796875 l 1,1,-1
 923.794921875 183.500976562 l 1,2,-1
 837.811523438 80.740234375 l 1,3,-1
 683.671875 7.33984375 l 1,4,-1
 567.280273438 67.109375 l 1,5,-1
 589.299804688 114.294921875 l 1,6,-1
 507.510742188 123.732421875 l 1,7,-1
 456.130859375 200.278320312 l 1,8,-1
 507.510742188 261.094726562 l 1,9,-1
 112.198242188 101.711914062 l 1,10,-1
 22.01953125 144.703125 l 1,11,-1
 56.623046875 247.463867188 l 1,12,-1
 386.924804688 406.846679688 l 1,13,-1
 618.66015625 501.21875 l 1,14,-1
 851.444335938 488.635742188 l 1,0,-1
524.288085938 153.091796875 m 1,15,-1
 636.486328125 179.305664062 l 1,16,-1
 623.903320312 200.278320312 l 1,17,-1
 532.676757812 191.888671875 l 1,18,-1
 589.299804688 234.880859375 l 1,19,-1
 542.114257812 251.658203125 l 1,20,-1
 499.122070312 204.471679688 l 1,21,-1
 524.288085938 153.091796875 l 1,15,-1
889.192382812 191.888671875 m 1,22,-1
 941.62109375 341.8359375 l 1,23,-1
 847.249023438 458.227539062 l 1,24,-1
 614.465820312 470.810546875 l 1,25,-1
 365.953125 359.662109375 l 1,26,-1
 395.313476562 308.28125 l 1,27,-1
 322.9609375 341.8359375 l 1,28,-1
 134.217773438 261.094726562 l 1,29,-1
 112.198242188 251.658203125 l 1,30,-1
 112.198242188 191.888671875 l 1,31,-1
 77.5947265625 234.880859375 l 1,32,-1
 56.623046875 153.091796875 l 1,33,-1
 120.5859375 136.315429688 l 1,34,-1
 494.927734375 290.456054688 l 1,35,-1
 451.935546875 325.05859375 l 1,36,-1
 821.03515625 261.094726562 l 1,37,-1
 735.051757812 222.297851562 l 1,38,-1
 730.857421875 123.732421875 l 1,39,-1
 687.866210938 165.674804688 l 1,40,-1
 636.486328125 144.703125 l 1,41,-1
 614.465820312 71.302734375 l 1,42,-1
 683.671875 37.7490234375 l 1,43,-1
 804.2578125 93.3232421875 l 1,44,-1
 889.192382812 191.888671875 l 1,22,-1
EndSplineSet
Fore
SplineSet
899 728 m 1,0,-1
 1056 572 l 1,1,-1
 984 370 l 1,2,-1
 884 250 l 1,3,-1
 703 164 l 1,4,-1
 566 234 l 1,5,-1
 592 289 l 1,6,-1
 496 300 l 1,7,-1
 436 390 l 1,8,-1
 496 461 l 1,9,-1
 33 274 l 1,10,-1
 -72 325 l 1,11,-1
 -32 445 l 1,12,-1
 355 632 l 1,13,-1
 627 743 l 1,14,-1
 899 728 l 1,0,-1
516 335 m 1,15,-1
 648 365 l 1,16,-1
 633 390 l 1,17,-1
 526 380 l 1,18,-1
 592 430 l 1,19,-1
 537 450 l 1,20,-1
 487 395 l 1,21,-1
 516 335 l 1,15,-1
944 380 m 1,22,-1
 1005 556 l 1,23,-1
 895 692 l 1,24,-1
 622 707 l 1,25,-1
 331 577 l 1,26,-1
 365 516 l 1,27,-1
 280 556 l 1,28,-1
 59 461 l 1,29,-1
 33 450 l 1,30,-1
 33 380 l 1,31,-1
 -7 430 l 1,32,-1
 -32 335 l 1,33,-1
 43 315 l 1,34,-1
 482 496 l 1,35,-1
 431 536 l 1,36,-1
 864 461 l 1,37,-1
 763 416 l 1,38,-1
 758 300 l 1,39,-1
 708 349 l 1,40,-1
 648 325 l 1,41,-1
 622 239 l 1,42,-1
 703 199 l 1,43,-1
 844 264 l 1,44,-1
 944 380 l 1,22,-1
EndSplineSet
Validated: 1
EndChar

StartChar: q
Encoding: 113 113 84
Width: 659
VWidth: 1395
Flags: W
LayerCount: 2
Back
SplineSet
483.393554688 469.76171875 m 1,0,-1
 576.716796875 333.447265625 l 1,1,-1
 534.774414062 223.346679688 l 1,2,-1
 517.997070312 152.043945312 l 1,3,-1
 509.608398438 46.13671875 l 1,4,-1
 397.41015625 -8.388671875 l 1,5,-1
 312.475585938 71.302734375 l 1,6,-1
 319.81640625 131.072265625 l 1,7,-1
 265.290039062 131.072265625 l 1,8,-1
 249.560546875 155.189453125 l 1,9,-1
 257.950195312 -22.01953125 l 1,10,-1
 190.840820312 -136.315429688 l 1,11,-1
 75.4970703125 -68.1572265625 l 1,12,-1
 47.185546875 126.877929688 l 1,13,-1
 58.7197265625 244.318359375 l 1,14,-1
 35.65234375 372.244140625 l 1,15,-1
 148.8984375 482.344726562 l 1,16,-1
 335.543945312 515.899414062 l 1,17,-1
 483.393554688 469.76171875 l 1,0,-1
265.290039062 168.821289062 m 1,18,-1
 332.399414062 155.189453125 l 1,19,-1
 385.875976562 228.58984375 l 1,20,-1
 383.779296875 270.533203125 l 1,21,-1
 377.487304688 270.533203125 l 1,22,-1
 358.61328125 270.533203125 l 1,23,-1
 322.9609375 168.821289062 l 1,24,-1
 312.475585938 266.337890625 l 1,25,-1
 281.017578125 244.318359375 l 1,26,-1
 253.754882812 214.958007812 l 1,27,-1
 265.290039062 168.821289062 l 1,18,-1
500.170898438 214.958007812 m 1,28,-1
 542.114257812 329.252929688 l 1,29,-1
 460.325195312 447.7421875 l 1,30,-1
 332.399414062 482.344726562 l 1,31,-1
 167.772460938 456.130859375 l 1,32,-1
 83.8857421875 367.001953125 l 1,33,-1
 93.3232421875 257.950195312 l 1,34,-1
 85.9833984375 173.014648438 l 1,35,-1
 160.431640625 152.043945312 l 1,36,-1
 83.8857421875 117.44140625 l 1,37,-1
 97.517578125 11.5341796875 l 1,38,-1
 102.759765625 -13.630859375 l 1,39,-1
 160.431640625 -38.796875 l 1,40,-1
 102.759765625 -51.3798828125 l 1,41,-1
 180.35546875 -105.90625 l 1,42,-1
 223.346679688 -22.01953125 l 1,43,-1
 218.103515625 143.655273438 l 1,44,-1
 245.3671875 278.920898438 l 1,45,-1
 308.28125 326.107421875 l 1,46,-1
 358.61328125 317.71875 l 1,47,-1
 358.61328125 405.798828125 l 1,48,-1
 417.333007812 232.784179688 l 1,49,-1
 348.126953125 138.412109375 l 1,50,-1
 335.543945312 83.8857421875 l 1,51,-1
 405.798828125 20.9716796875 l 1,52,-1
 480.248046875 79.6923828125 l 1,53,-1
 500.170898438 214.958007812 l 1,28,-1
354.418945312 117.44140625 m 1,54,-1
 425.721679688 143.655273438 l 1,55,-1
 444.595703125 67.109375 l 1,56,-1
 354.418945312 117.44140625 l 1,54,-1
EndSplineSet
Fore
SplineSet
507 718 m 1,0,-1
 616 558 l 1,1,-1
 567 429 l 1,2,-1
 547 346 l 1,3,-1
 537 222 l 1,4,-1
 406 158 l 1,5,-1
 306 251 l 1,6,-1
 315 321 l 1,7,-1
 251 321 l 1,8,-1
 233 350 l 1,9,-1
 242 142 l 1,10,-1
 164 8 l 1,11,-1
 29 88 l 1,12,-1
 -5 316 l 1,13,-1
 9 454 l 1,14,-1
 -18 604 l 1,15,-1
 115 733 l 1,16,-1
 333 772 l 1,17,-1
 507 718 l 1,0,-1
251 366 m 1,18,-1
 330 350 l 1,19,-1
 392 436 l 1,20,-1
 390 485 l 1,21,-1
 383 485 l 1,22,-1
 360 485 l 1,23,-1
 319 366 l 1,24,-1
 306 480 l 1,25,-1
 270 454 l 1,26,-1
 238 420 l 1,27,-1
 251 366 l 1,18,-1
526 420 m 1,28,-1
 575 554 l 1,29,-1
 480 692 l 1,30,-1
 330 733 l 1,31,-1
 137 702 l 1,32,-1
 39 598 l 1,33,-1
 50 470 l 1,34,-1
 41 370 l 1,35,-1
 128 346 l 1,36,-1
 39 305 l 1,37,-1
 54 181 l 1,38,-1
 61 152 l 1,39,-1
 128 122 l 1,40,-1
 61 108 l 1,41,-1
 152 44 l 1,42,-1
 202 142 l 1,43,-1
 196 336 l 1,44,-1
 228 495 l 1,45,-1
 301 550 l 1,46,-1
 360 540 l 1,47,-1
 360 643 l 1,48,-1
 429 441 l 1,49,-1
 348 330 l 1,50,-1
 333 266 l 1,51,-1
 416 192 l 1,52,-1
 503 261 l 1,53,-1
 526 420 l 1,28,-1
356 305 m 1,54,-1
 439 336 l 1,55,-1
 461 246 l 1,56,-1
 356 305 l 1,54,-1
EndSplineSet
Validated: 1025
EndChar

StartChar: r
Encoding: 114 114 85
Width: 591
VWidth: 1353
Flags: W
LayerCount: 2
Back
SplineSet
417.333007812 528.482421875 m 1,0,-1
 492.831054688 344.982421875 l 1,1,-1
 482.344726562 238.02734375 l 1,2,-1
 482.344726562 87.0322265625 l 1,3,-1
 341.8359375 18.8740234375 l 1,4,-1
 253.754882812 26.2138671875 l 1,5,-1
 163.578125 11.5341796875 l 1,6,-1
 72.3515625 128.974609375 l 1,7,-1
 89.12890625 192.938476562 l 1,8,-1
 54.5263671875 227.541015625 l 1,9,-1
 31.45703125 332.399414062 l 1,10,-1
 111.149414062 404.75 l 1,11,-1
 189.791992188 396.362304688 l 1,12,-1
 221.25 541.065429688 l 1,13,-1
 167.772460938 729.80859375 l 1,14,-1
 231.735351562 797.965820312 l 1,15,-1
 296.747070312 767.557617188 l 1,16,-1
 364.904296875 786.431640625 l 1,17,-1
 473.956054688 695.206054688 l 1,18,-1
 417.333007812 528.482421875 l 1,0,-1
360.709960938 757.072265625 m 1,19,-1
 311.426757812 752.877929688 l 1,20,-1
 383.779296875 703.59375 l 1,21,-1
 409.993164062 581.959960938 l 1,22,-1
 443.547851562 684.719726562 l 1,23,-1
 360.709960938 757.072265625 l 1,19,-1
239.075195312 491.782226562 m 1,24,-1
 217.0546875 365.953125 l 1,25,-1
 247.463867188 325.05859375 l 1,26,-1
 299.892578125 336.592773438 l 1,27,-1
 239.075195312 491.782226562 l 1,24,-1
84.9345703125 227.541015625 m 1,28,-1
 95.419921875 276.82421875 l 1,29,-1
 134.217773438 306.18359375 l 1,30,-1
 212.861328125 306.18359375 l 1,31,-1
 189.791992188 365.953125 l 1,32,-1
 121.634765625 381.681640625 l 1,33,-1
 57.671875 325.05859375 l 1,34,-1
 66.0595703125 261.094726562 l 1,35,-1
 84.9345703125 227.541015625 l 1,28,-1
390.0703125 67.109375 m 1,36,-1
 455.08203125 114.294921875 l 1,37,-1
 451.935546875 207.618164062 l 1,38,-1
 439.352539062 252.70703125 l 1,39,-1
 307.233398438 313.524414062 l 1,40,-1
 227.541015625 287.309570312 l 1,41,-1
 144.703125 283.116210938 l 1,42,-1
 134.217773438 268.434570312 l 1,43,-1
 114.294921875 249.560546875 l 1,44,-1
 114.294921875 200.278320312 l 1,45,-1
 179.305664062 159.383789062 l 1,46,-1
 303.038085938 159.383789062 l 1,47,-1
 344.982421875 180.35546875 l 1,48,-1
 417.333007812 180.35546875 l 1,49,-1
 371.196289062 150.995117188 l 1,50,-1
 390.0703125 91.2255859375 l 1,51,-1
 326.107421875 139.4609375 l 1,52,-1
 193.987304688 128.974609375 l 1,53,-1
 144.703125 132.12109375 l 1,54,-1
 99.615234375 169.869140625 l 1,55,-1
 99.615234375 132.12109375 l 1,56,-1
 171.965820312 41.943359375 l 1,57,-1
 231.735351562 46.13671875 l 1,58,-1
 175.112304688 87.0322265625 l 1,59,-1
 337.640625 41.943359375 l 1,60,-1
 390.0703125 67.109375 l 1,36,-1
451.935546875 291.50390625 m 1,61,-1
 466.616210938 344.982421875 l 1,62,-1
 385.875976562 528.482421875 l 1,63,-1
 352.322265625 688.9140625 l 1,64,-1
 247.463867188 759.168945312 l 1,65,-1
 189.791992188 718.275390625 l 1,66,-1
 243.26953125 541.065429688 l 1,67,-1
 337.640625 332.399414062 l 1,68,-1
 364.904296875 325.05859375 l 1,69,-1
 424.672851562 283.116210938 l 1,70,-1
 451.935546875 291.50390625 l 1,61,-1
155.189453125 200.278320312 m 1,71,-1
 167.772460938 268.434570312 l 1,72,-1
 198.180664062 233.83203125 l 1,73,-1
 155.189453125 200.278320312 l 1,71,-1
EndSplineSet
Fore
SplineSet
438 745 m 1,0,-1
 526 530 l 1,1,-1
 514 405 l 1,2,-1
 514 228 l 1,3,-1
 349 148 l 1,4,-1
 246 156 l 1,5,-1
 140 139 l 1,6,-1
 34 277 l 1,7,-1
 53 352 l 1,8,-1
 13 392 l 1,9,-1
 -14 515 l 1,10,-1
 79 600 l 1,11,-1
 171 590 l 1,12,-1
 208 760 l 1,13,-1
 145 981 l 1,14,-1
 220 1061 l 1,15,-1
 297 1025 l 1,16,-1
 376 1047 l 1,17,-1
 504 940 l 1,18,-1
 438 745 l 1,0,-1
372 1013 m 1,19,-1
 314 1008 l 1,20,-1
 399 950 l 1,21,-1
 429 808 l 1,22,-1
 469 928 l 1,23,-1
 372 1013 l 1,19,-1
229 702 m 1,24,-1
 203 555 l 1,25,-1
 239 507 l 1,26,-1
 300 520 l 1,27,-1
 229 702 l 1,24,-1
48 392 m 1,28,-1
 61 450 l 1,29,-1
 106 485 l 1,30,-1
 198 485 l 1,31,-1
 171 555 l 1,32,-1
 91 573 l 1,33,-1
 16 507 l 1,34,-1
 26 432 l 1,35,-1
 48 392 l 1,28,-1
406 204 m 1,36,-1
 482 260 l 1,37,-1
 478 369 l 1,38,-1
 464 422 l 1,39,-1
 309 493 l 1,40,-1
 215 462 l 1,41,-1
 118 458 l 1,42,-1
 106 440 l 1,43,-1
 83 418 l 1,44,-1
 83 360 l 1,45,-1
 159 313 l 1,46,-1
 304 313 l 1,47,-1
 353 337 l 1,48,-1
 438 337 l 1,49,-1
 384 303 l 1,50,-1
 406 233 l 1,51,-1
 331 289 l 1,52,-1
 176 277 l 1,53,-1
 118 281 l 1,54,-1
 66 325 l 1,55,-1
 66 281 l 1,56,-1
 150 175 l 1,57,-1
 220 180 l 1,58,-1
 154 228 l 1,59,-1
 344 175 l 1,60,-1
 406 204 l 1,36,-1
478 467 m 1,61,-1
 496 530 l 1,62,-1
 401 745 l 1,63,-1
 362 933 l 1,64,-1
 239 1015 l 1,65,-1
 171 967 l 1,66,-1
 234 760 l 1,67,-1
 344 515 l 1,68,-1
 376 507 l 1,69,-1
 446 458 l 1,70,-1
 478 467 l 1,61,-1
131 360 m 1,71,-1
 145 440 l 1,72,-1
 181 400 l 1,73,-1
 131 360 l 1,71,-1
EndSplineSet
Validated: 1025
EndChar

StartChar: s
Encoding: 115 115 86
Width: 666
VWidth: 1382
Flags: W
LayerCount: 2
Back
SplineSet
547.357421875 344.982421875 m 1,0,-1
 595.590820312 275.775390625 l 1,1,-1
 581.959960938 147.848632812 l 1,2,-1
 526.384765625 54.5263671875 l 1,3,-1
 404.75 -14.6796875 l 1,4,-1
 283.116210938 23.0693359375 l 1,5,-1
 179.305664062 30.4091796875 l 1,6,-1
 75.4970703125 110.099609375 l 1,7,-1
 79.6923828125 175.112304688 l 1,8,-1
 27.2626953125 227.541015625 l 1,9,-1
 37.7490234375 379.584960938 l 1,10,-1
 131.072265625 435.159179688 l 1,11,-1
 186.647460938 504.365234375 l 1,12,-1
 293.600585938 498.07421875 l 1,13,-1
 318.766601562 525.336914062 l 1,14,-1
 508.55859375 490.734375 l 1,15,-1
 547.357421875 344.982421875 l 1,0,-1
335.543945312 490.734375 m 1,16,-1
 273.677734375 427.819335938 l 1,17,-1
 297.795898438 418.381835938 l 1,18,-1
 460.325195312 414.188476562 l 1,19,-1
 512.75390625 373.29296875 l 1,20,-1
 487.587890625 469.76171875 l 1,21,-1
 335.543945312 490.734375 l 1,16,-1
159.383789062 424.672851562 m 1,22,-1
 138.412109375 373.29296875 l 1,23,-1
 162.529296875 299.892578125 l 1,24,-1
 165.674804688 349.17578125 l 1,25,-1
 173.014648438 390.0703125 l 1,26,-1
 234.880859375 418.381835938 l 1,27,-1
 269.484375 477.1015625 l 1,28,-1
 200.278320312 480.248046875 l 1,29,-1
 159.383789062 424.672851562 l 1,22,-1
221.25 189.791992188 m 1,30,-1
 279.969726562 199.228515625 l 1,31,-1
 242.220703125 175.112304688 l 1,32,-1
 258.998046875 158.334960938 l 1,33,-1
 300.94140625 168.821289062 l 1,34,-1
 304.086914062 192.938476562 l 1,35,-1
 283.116210938 227.541015625 l 1,36,-1
 218.103515625 254.803710938 l 1,37,-1
 189.791992188 262.143554688 l 1,38,-1
 197.131835938 230.686523438 l 1,39,-1
 221.25 189.791992188 l 1,30,-1
65.01171875 224.39453125 m 1,40,-1
 103.80859375 196.083984375 l 1,41,-1
 168.821289062 209.71484375 l 1,42,-1
 127.92578125 189.791992188 l 1,43,-1
 162.529296875 168.821289062 l 1,44,-1
 186.647460938 179.305664062 l 1,45,-1
 189.791992188 206.569335938 l 1,46,-1
 159.383789062 248.512695312 l 1,47,-1
 127.92578125 299.892578125 l 1,48,-1
 117.44140625 362.806640625 l 1,49,-1
 106.955078125 386.924804688 l 1,50,-1
 61.8662109375 358.61328125 l 1,51,-1
 54.5263671875 251.658203125 l 1,52,-1
 110.099609375 233.83203125 l 1,53,-1
 65.01171875 224.39453125 l 1,40,-1
553.6484375 150.995117188 m 1,54,-1
 564.133789062 275.775390625 l 1,55,-1
 460.325195312 386.924804688 l 1,56,-1
 283.116210938 386.924804688 l 1,57,-1
 245.3671875 376.439453125 l 1,58,-1
 203.423828125 365.953125 l 1,59,-1
 189.791992188 317.71875 l 1,60,-1
 224.39453125 275.775390625 l 1,61,-1
 311.426757812 233.83203125 l 1,62,-1
 359.662109375 233.83203125 l 1,63,-1
 505.4140625 206.569335938 l 1,64,-1
 460.325195312 192.938476562 l 1,65,-1
 470.810546875 147.848632812 l 1,66,-1
 418.381835938 161.481445312 l 1,67,-1
 394.264648438 147.848632812 l 1,68,-1
 338.690429688 137.36328125 l 1,69,-1
 318.766601562 150.995117188 l 1,70,-1
 252.70703125 137.36328125 l 1,71,-1
 218.103515625 158.334960938 l 1,72,-1
 173.014648438 137.36328125 l 1,73,-1
 114.294921875 150.995117188 l 1,74,-1
 96.46875 123.732421875 l 1,75,-1
 134.217773438 84.9345703125 l 1,76,-1
 193.987304688 47.185546875 l 1,77,-1
 228.58984375 50.33203125 l 1,78,-1
 193.987304688 81.7890625 l 1,79,-1
 398.458984375 12.5830078125 l 1,80,-1
 502.267578125 71.302734375 l 1,81,-1
 553.6484375 150.995117188 l 1,54,-1
328.204101562 189.791992188 m 1,82,-1
 367.001953125 185.59765625 l 1,83,-1
 342.883789062 175.112304688 l 1,84,-1
 353.370117188 164.625976562 l 1,85,-1
 394.264648438 171.965820312 l 1,86,-1
 398.458984375 192.938476562 l 1,87,-1
 383.779296875 209.71484375 l 1,88,-1
 314.573242188 213.91015625 l 1,89,-1
 328.204101562 189.791992188 l 1,82,-1
266.337890625 376.439453125 m 1,90,-1
 297.795898438 328.204101562 l 1,91,-1
 248.512695312 283.116210938 l 1,92,-1
 266.337890625 376.439453125 l 1,90,-1
EndSplineSet
Fore
SplineSet
581 559 m 1,0,-1
 637 478 l 1,1,-1
 621 328 l 1,2,-1
 556 219 l 1,3,-1
 413 138 l 1,4,-1
 271 182 l 1,5,-1
 149 191 l 1,6,-1
 28 284 l 1,7,-1
 33 360 l 1,8,-1
 -29 422 l 1,9,-1
 -17 600 l 1,10,-1
 93 665 l 1,11,-1
 158 746 l 1,12,-1
 283 739 l 1,13,-1
 313 771 l 1,14,-1
 535 730 l 1,15,-1
 581 559 l 1,0,-1
332 730 m 1,16,-1
 260 656 l 1,17,-1
 288 645 l 1,18,-1
 479 640 l 1,19,-1
 540 592 l 1,20,-1
 511 705 l 1,21,-1
 332 730 l 1,16,-1
126 653 m 1,22,-1
 101 592 l 1,23,-1
 130 506 l 1,24,-1
 133 564 l 1,25,-1
 142 612 l 1,26,-1
 214 645 l 1,27,-1
 255 714 l 1,28,-1
 174 718 l 1,29,-1
 126 653 l 1,22,-1
198 377 m 1,30,-1
 267 388 l 1,31,-1
 223 360 l 1,32,-1
 243 340 l 1,33,-1
 292 353 l 1,34,-1
 296 381 l 1,35,-1
 271 422 l 1,36,-1
 195 454 l 1,37,-1
 162 462 l 1,38,-1
 170 425 l 1,39,-1
 198 377 l 1,30,-1
15 418 m 1,40,-1
 61 385 l 1,41,-1
 137 401 l 1,42,-1
 89 377 l 1,43,-1
 130 353 l 1,44,-1
 158 365 l 1,45,-1
 162 397 l 1,46,-1
 126 446 l 1,47,-1
 89 506 l 1,48,-1
 77 580 l 1,49,-1
 65 608 l 1,50,-1
 12 575 l 1,51,-1
 3 450 l 1,52,-1
 68 429 l 1,53,-1
 15 418 l 1,40,-1
588 332 m 1,54,-1
 600 478 l 1,55,-1
 479 608 l 1,56,-1
 271 608 l 1,57,-1
 227 596 l 1,58,-1
 178 584 l 1,59,-1
 162 527 l 1,60,-1
 202 478 l 1,61,-1
 304 429 l 1,62,-1
 361 429 l 1,63,-1
 531 397 l 1,64,-1
 479 381 l 1,65,-1
 491 328 l 1,66,-1
 429 344 l 1,67,-1
 401 328 l 1,68,-1
 336 316 l 1,69,-1
 313 332 l 1,70,-1
 235 316 l 1,71,-1
 195 340 l 1,72,-1
 142 316 l 1,73,-1
 73 332 l 1,74,-1
 52 300 l 1,75,-1
 96 254 l 1,76,-1
 167 210 l 1,77,-1
 207 214 l 1,78,-1
 167 251 l 1,79,-1
 406 170 l 1,80,-1
 528 238 l 1,81,-1
 588 332 l 1,54,-1
324 377 m 1,82,-1
 369 372 l 1,83,-1
 341 360 l 1,84,-1
 353 348 l 1,85,-1
 401 356 l 1,86,-1
 406 381 l 1,87,-1
 389 401 l 1,88,-1
 308 406 l 1,89,-1
 324 377 l 1,82,-1
251 596 m 1,90,-1
 288 540 l 1,91,-1
 230 487 l 1,92,-1
 251 596 l 1,90,-1
EndSplineSet
Validated: 1025
EndChar

StartChar: t
Encoding: 116 116 87
Width: 939
VWidth: 1383
Flags: W
LayerCount: 2
Back
SplineSet
763.36328125 258.998046875 m 1,0,-1
 782.23828125 165.674804688 l 1,1,-1
 704.642578125 41.943359375 l 1,2,-1
 619.708007812 -16.77734375 l 1,3,-1
 503.31640625 18.8740234375 l 1,4,-1
 414.188476562 -8.388671875 l 1,5,-1
 270.533203125 60.8173828125 l 1,6,-1
 243.26953125 154.140625 l 1,7,-1
 254.803710938 254.803710938 l 1,8,-1
 243.26953125 293.600585938 l 1,9,-1
 161.481445312 286.260742188 l 1,10,-1
 22.01953125 382.73046875 l 1,11,-1
 76.5458984375 476.053710938 l 1,12,-1
 235.9296875 476.053710938 l 1,13,-1
 339.739257812 519.044921875 l 1,14,-1
 569.376953125 507.510742188 l 1,15,-1
 631.243164062 495.975585938 l 1,16,-1
 747.634765625 507.510742188 l 1,17,-1
 840.958007812 409.993164062 l 1,18,-1
 763.36328125 258.998046875 l 1,0,-1
359.662109375 368.049804688 m 1,19,-1
 483.393554688 332.399414062 l 1,20,-1
 560.98828125 348.126953125 l 1,21,-1
 576.716796875 414.188476562 l 1,22,-1
 592.4453125 468.712890625 l 1,23,-1
 542.114257812 484.442382812 l 1,24,-1
 421.528320312 487.587890625 l 1,25,-1
 375.389648438 495.975585938 l 1,26,27
 381.681640625 478.151367188 381.681640625 478.151367188 385.875976562 466.616210938 c 256,28,29
 390.0703125 455.08203125 390.0703125 455.08203125 391.642578125 447.217773438 c 128,-1,30
 393.215820312 439.352539062 393.215820312 439.352539062 391.119140625 441.450195312 c 256,31,32
 389.022460938 443.547851562 389.022460938 443.547851562 381.157226562 450.887695312 c 128,-1,33
 373.29296875 458.227539062 373.29296875 458.227539062 363.856445312 467.665039062 c 0,34,35
 352.322265625 478.151367188 352.322265625 478.151367188 339.739257812 491.782226562 c 1,36,-1
 243.26953125 452.985351562 l 1,37,-1
 145.751953125 452.985351562 l 1,38,-1
 126.877929688 460.325195312 l 1,39,-1
 158.334960938 409.993164062 l 1,40,-1
 92.275390625 452.985351562 l 1,41,-1
 53.4765625 391.119140625 l 1,42,-1
 158.334960938 317.71875 l 1,43,-1
 247.463867188 325.05859375 l 1,44,-1
 359.662109375 368.049804688 l 1,19,-1
494.927734375 208.666992188 m 1,45,-1
 437.255859375 177.208984375 l 1,46,-1
 480.248046875 154.140625 l 1,47,-1
 522.19140625 188.744140625 l 1,48,-1
 546.307617188 243.26953125 l 1,49,-1
 530.579101562 301.990234375 l 1,50,-1
 483.393554688 297.795898438 l 1,51,-1
 398.458984375 332.399414062 l 1,52,-1
 378.536132812 320.864257812 l 1,53,-1
 386.924804688 258.998046875 l 1,54,-1
 402.653320312 201.327148438 l 1,55,-1
 494.927734375 208.666992188 l 1,45,-1
367.001953125 208.666992188 m 1,56,-1
 320.864257812 177.208984375 l 1,57,-1
 363.856445312 146.80078125 l 1,58,-1
 394.264648438 169.869140625 l 1,59,-1
 378.536132812 220.201171875 l 1,60,-1
 348.126953125 313.524414062 l 1,61,-1
 274.7265625 297.795898438 l 1,62,-1
 297.795898438 224.39453125 l 1,63,-1
 313.524414062 197.131835938 l 1,64,-1
 367.001953125 208.666992188 l 1,56,-1
754.974609375 177.208984375 m 1,65,-1
 736.099609375 286.260742188 l 1,66,-1
 809.500976562 409.993164062 l 1,67,-1
 740.294921875 487.587890625 l 1,68,-1
 651.166015625 476.053710938 l 1,69,-1
 612.368164062 406.846679688 l 1,70,-1
 619.708007812 293.600585938 l 1,71,-1
 576.716796875 197.131835938 l 1,72,-1
 557.841796875 154.140625 l 1,73,-1
 580.911132812 69.2060546875 l 1,74,-1
 533.724609375 138.412109375 l 1,75,-1
 494.927734375 115.342773438 l 1,76,-1
 417.333007812 135.265625 l 1,77,-1
 382.73046875 111.149414062 l 1,78,-1
 293.600585938 154.140625 l 1,79,-1
 270.533203125 197.131835938 l 1,80,-1
 289.407226562 96.46875 l 1,81,-1
 409.993164062 14.6796875 l 1,82,-1
 448.791015625 33.5537109375 l 1,83,-1
 367.001953125 84.9345703125 l 1,84,-1
 615.513671875 10.486328125 l 1,85,-1
 689.962890625 65.01171875 l 1,86,-1
 754.974609375 177.208984375 l 1,65,-1
654.310546875 437.255859375 m 1,87,-1
 716.176757812 375.389648438 l 1,88,-1
 790.625976562 409.993164062 l 1,89,-1
 654.310546875 437.255859375 l 1,87,-1
EndSplineSet
Fore
SplineSet
810 459 m 1,0,-1
 832 350 l 1,1,-1
 741 205 l 1,2,-1
 642 136 l 1,3,-1
 506 178 l 1,4,-1
 401 146 l 1,5,-1
 233 227 l 1,6,-1
 201 336 l 1,7,-1
 214 454 l 1,8,-1
 201 500 l 1,9,-1
 105 491 l 1,10,-1
 -58 604 l 1,11,-1
 5 714 l 1,12,-1
 192 714 l 1,13,-1
 314 764 l 1,14,-1
 583 750 l 1,15,-1
 655 737 l 1,16,-1
 792 750 l 1,17,-1
 901 636 l 1,18,-1
 810 459 l 1,0,-1
337 587 m 1,19,-1
 482 545 l 1,20,-1
 573 564 l 1,21,-1
 592 641 l 1,22,-1
 610 705 l 1,23,-1
 551 723 l 1,24,-1
 410 727 l 1,25,-1
 356 737 l 1,26,27
 363 716 363 716 368 703 c 256,28,29
 373 689 373 689 375 680 c 128,-1,30
 377 671 377 671 374 673 c 256,31,32
 372 675 372 675 362.5 684 c 128,-1,33
 353 693 353 693 342 704 c 0,34,35
 328 716 328 716 314 732 c 1,36,-1
 201 687 l 1,37,-1
 87 687 l 1,38,-1
 64 695 l 1,39,-1
 101 636 l 1,40,-1
 24 687 l 1,41,-1
 -22 614 l 1,42,-1
 101 528 l 1,43,-1
 206 537 l 1,44,-1
 337 587 l 1,19,-1
496 400 m 1,45,-1
 428 363 l 1,46,-1
 479 336 l 1,47,-1
 528 377 l 1,48,-1
 556 441 l 1,49,-1
 537 510 l 1,50,-1
 482 505 l 1,51,-1
 383 545 l 1,52,-1
 359 532 l 1,53,-1
 369 459 l 1,54,-1
 388 392 l 1,55,-1
 496 400 l 1,45,-1
346 400 m 1,56,-1
 292 363 l 1,57,-1
 342 328 l 1,58,-1
 378 355 l 1,59,-1
 359 414 l 1,60,-1
 324 523 l 1,61,-1
 238 505 l 1,62,-1
 265 419 l 1,63,-1
 283 387 l 1,64,-1
 346 400 l 1,56,-1
800 363 m 1,65,-1
 778 491 l 1,66,-1
 864 636 l 1,67,-1
 783 727 l 1,68,-1
 679 714 l 1,69,-1
 633 633 l 1,70,-1
 642 500 l 1,71,-1
 592 387 l 1,72,-1
 569 336 l 1,73,-1
 596 237 l 1,74,-1
 541 318 l 1,75,-1
 496 291 l 1,76,-1
 405 314 l 1,77,-1
 364 286 l 1,78,-1
 260 336 l 1,79,-1
 233 387 l 1,80,-1
 255 269 l 1,81,-1
 396 173 l 1,82,-1
 442 195 l 1,83,-1
 346 255 l 1,84,-1
 637 168 l 1,85,-1
 724 232 l 1,86,-1
 800 363 l 1,65,-1
682 668 m 1,87,-1
 755 596 l 1,88,-1
 842 636 l 1,89,-1
 682 668 l 1,87,-1
EndSplineSet
Validated: 1033
EndChar

StartChar: u
Encoding: 117 117 88
Width: 640
VWidth: 1354
Flags: W
LayerCount: 2
Back
SplineSet
515.899414062 339.739257812 m 1,0,-1
 558.890625 203.423828125 l 1,1,-1
 509.608398438 76.5458984375 l 1,2,-1
 389.022460938 7.33984375 l 1,3,-1
 277.873046875 46.13671875 l 1,4,-1
 178.2578125 14.6796875 l 1,5,-1
 74.44921875 98.56640625 l 1,6,-1
 77.5947265625 167.772460938 l 1,7,-1
 38.796875 246.415039062 l 1,8,-1
 99.615234375 396.362304688 l 1,9,-1
 201.327148438 428.868164062 l 1,10,-1
 158.334960938 681.57421875 l 1,11,-1
 221.25 783.286132812 l 1,12,-1
 301.990234375 763.36328125 l 1,13,-1
 418.381835938 793.772460938 l 1,14,-1
 527.43359375 720.372070312 l 1,15,-1
 492.831054688 554.697265625 l 1,16,-1
 470.810546875 372.244140625 l 1,17,-1
 515.899414062 339.739257812 l 1,0,-1
340.787109375 745.538085938 m 1,18,-1
 294.650390625 626 l 1,19,-1
 340.787109375 382.73046875 l 1,20,-1
 435.159179688 385.875976562 l 1,21,-1
 494.927734375 709.885742188 l 1,22,-1
 414.188476562 763.36328125 l 1,23,-1
 340.787109375 745.538085938 l 1,18,-1
192.938476562 677.379882812 m 1,24,-1
 228.58984375 411.041992188 l 1,25,-1
 242.220703125 375.389648438 l 1,26,-1
 292.552734375 382.73046875 l 1,27,-1
 260.046875 626 l 1,28,-1
 297.795898438 740.294921875 l 1,29,-1
 235.9296875 750.780273438 l 1,30,-1
 192.938476562 677.379882812 l 1,24,-1
69.2060546875 253.754882812 m 1,31,-1
 104.858398438 179.305664062 l 1,32,-1
 168.821289062 152.043945312 l 1,33,-1
 115.342773438 207.618164062 l 1,34,-1
 115.342773438 273.677734375 l 1,35,-1
 147.848632812 330.30078125 l 1,36,-1
 213.91015625 368.049804688 l 1,37,-1
 196.083984375 390.0703125 l 1,38,-1
 122.682617188 372.244140625 l 1,39,-1
 69.2060546875 253.754882812 l 1,31,-1
482.344726562 98.56640625 m 1,40,-1
 512.75390625 164.625976562 l 1,41,-1
 520.09375 203.423828125 l 1,42,-1
 482.344726562 334.49609375 l 1,43,-1
 428.868164062 347.079101562 l 1,44,-1
 228.58984375 334.49609375 l 1,45,-1
 176.161132812 301.990234375 l 1,46,-1
 144.703125 230.686523438 l 1,47,-1
 210.763671875 182.452148438 l 1,48,-1
 297.795898438 192.938476562 l 1,49,-1
 348.126953125 221.25 l 1,50,-1
 475.004882812 207.618164062 l 1,51,-1
 411.041992188 175.112304688 l 1,52,-1
 389.022460938 101.711914062 l 1,53,-1
 358.61328125 164.625976562 l 1,54,-1
 301.990234375 154.140625 l 1,55,-1
 277.873046875 119.538085938 l 1,56,-1
 176.161132812 105.90625 l 1,57,-1
 109.051757812 146.80078125 l 1,58,-1
 94.3720703125 109.051757812 l 1,59,-1
 183.500976562 46.13671875 l 1,60,-1
 242.220703125 55.5751953125 l 1,61,-1
 190.840820312 83.8857421875 l 1,62,-1
 376.439453125 42.9921875 l 1,63,-1
 482.344726562 98.56640625 l 1,40,-1
210.763671875 288.358398438 m 1,64,-1
 260.046875 258.998046875 l 1,65,-1
 235.9296875 207.618164062 l 1,66,-1
 210.763671875 288.358398438 l 1,64,-1
EndSplineSet
Fore
SplineSet
546 525 m 1,0,-1
 597 365 l 1,1,-1
 539 216 l 1,2,-1
 398 135 l 1,3,-1
 267 181 l 1,4,-1
 151 144 l 1,5,-1
 29 242 l 1,6,-1
 33 323 l 1,7,-1
 -13 415 l 1,8,-1
 58 591 l 1,9,-1
 178 629 l 1,10,-1
 127 925 l 1,11,-1
 201 1044 l 1,12,-1
 296 1021 l 1,13,-1
 432 1057 l 1,14,-1
 560 971 l 1,15,-1
 519 777 l 1,16,-1
 493 563 l 1,17,-1
 546 525 l 1,0,-1
341 1000 m 1,18,-1
 287 860 l 1,19,-1
 341 575 l 1,20,-1
 452 579 l 1,21,-1
 522 958 l 1,22,-1
 427 1021 l 1,23,-1
 341 1000 l 1,18,-1
168 920 m 1,24,-1
 210 608 l 1,25,-1
 225 566 l 1,26,-1
 284 575 l 1,27,-1
 246 860 l 1,28,-1
 291 994 l 1,29,-1
 218 1006 l 1,30,-1
 168 920 l 1,24,-1
23 424 m 1,31,-1
 65 337 l 1,32,-1
 139 305 l 1,33,-1
 77 370 l 1,34,-1
 77 447 l 1,35,-1
 115 514 l 1,36,-1
 192 558 l 1,37,-1
 171 584 l 1,38,-1
 85 563 l 1,39,-1
 23 424 l 1,31,-1
507 242 m 1,40,-1
 543 319 l 1,41,-1
 551 365 l 1,42,-1
 507 519 l 1,43,-1
 444 533 l 1,44,-1
 210 519 l 1,45,-1
 148 480 l 1,46,-1
 111 397 l 1,47,-1
 189 340 l 1,48,-1
 291 353 l 1,49,-1
 350 386 l 1,50,-1
 498 370 l 1,51,-1
 423 332 l 1,52,-1
 398 246 l 1,53,-1
 362 319 l 1,54,-1
 296 307 l 1,55,-1
 267 267 l 1,56,-1
 148 251 l 1,57,-1
 69 299 l 1,58,-1
 52 254 l 1,59,-1
 157 181 l 1,60,-1
 225 192 l 1,61,-1
 165 225 l 1,62,-1
 383 177 l 1,63,-1
 507 242 l 1,40,-1
189 464 m 1,64,-1
 246 430 l 1,65,-1
 218 370 l 1,66,-1
 189 464 l 1,64,-1
EndSplineSet
Validated: 1025
EndChar

StartChar: v
Encoding: 118 118 89
Width: 686
VWidth: 1357
Flags: W
LayerCount: 2
Back
SplineSet
493.87890625 373.29296875 m 1,0,-1
 503.31640625 332.399414062 l 1,1,-1
 545.259765625 197.131835938 l 1,2,-1
 495.975585938 70.2548828125 l 1,3,-1
 377.487304688 1.048828125 l 1,4,-1
 265.290039062 38.796875 l 1,5,-1
 167.772460938 8.388671875 l 1,6,-1
 61.8662109375 91.2255859375 l 1,7,-1
 68.1572265625 161.481445312 l 1,8,-1
 28.3115234375 238.02734375 l 1,9,-1
 87.0322265625 390.0703125 l 1,10,-1
 188.744140625 420.478515625 l 1,11,-1
 80.740234375 672.13671875 l 1,12,-1
 144.703125 772.80078125 l 1,13,-1
 268.434570312 762.315429688 l 1,14,-1
 341.8359375 420.478515625 l 1,15,-1
 374.341796875 598.737304688 l 1,16,-1
 411.041992188 754.974609375 l 1,17,-1
 524.288085938 765.459960938 l 1,18,-1
 603.98046875 708.836914062 l 1,19,-1
 545.259765625 545.259765625 l 1,20,-1
 493.87890625 373.29296875 l 1,0,-1
398.458984375 598.737304688 m 1,21,-1
 360.709960938 390.0703125 l 1,22,-1
 461.373046875 373.29296875 l 1,23,-1
 563.084960938 699.400390625 l 1,24,-1
 520.09375 732.955078125 l 1,25,-1
 440.40234375 729.80859375 l 1,26,-1
 398.458984375 598.737304688 l 1,21,-1
115.342773438 666.893554688 m 1,27,-1
 217.0546875 402.653320312 l 1,28,-1
 231.735351562 368.049804688 l 1,29,-1
 318.766601562 390.0703125 l 1,30,-1
 271.581054688 579.86328125 l 1,31,-1
 244.318359375 741.342773438 l 1,32,-1
 158.334960938 741.342773438 l 1,33,-1
 115.342773438 666.893554688 l 1,27,-1
59.7685546875 244.318359375 m 1,34,-1
 94.3720703125 171.965820312 l 1,35,-1
 158.334960938 143.655273438 l 1,36,-1
 104.858398438 200.278320312 l 1,37,-1
 104.858398438 266.337890625 l 1,38,-1
 137.36328125 322.9609375 l 1,39,-1
 202.375 360.709960938 l 1,40,-1
 184.548828125 380.6328125 l 1,41,-1
 112.198242188 363.856445312 l 1,42,-1
 59.7685546875 244.318359375 l 1,34,-1
499.122070312 157.286132812 m 1,43,-1
 506.461914062 197.131835938 l 1,44,-1
 464.518554688 336.592773438 l 1,45,-1
 350.223632812 350.223632812 l 1,46,-1
 217.0546875 326.107421875 l 1,47,-1
 165.674804688 294.650390625 l 1,48,-1
 133.168945312 225.444335938 l 1,49,-1
 199.228515625 175.112304688 l 1,50,-1
 287.309570312 186.647460938 l 1,51,-1
 334.49609375 214.958007812 l 1,52,-1
 461.373046875 200.278320312 l 1,53,-1
 398.458984375 167.772460938 l 1,54,-1
 377.487304688 95.419921875 l 1,55,-1
 346.030273438 157.286132812 l 1,56,-1
 290.456054688 146.80078125 l 1,57,-1
 265.290039062 113.24609375 l 1,58,-1
 165.674804688 98.56640625 l 1,59,-1
 97.517578125 140.508789062 l 1,60,-1
 83.8857421875 101.711914062 l 1,61,-1
 170.91796875 38.796875 l 1,62,-1
 231.735351562 49.283203125 l 1,63,-1
 178.2578125 77.5947265625 l 1,64,-1
 363.856445312 34.6025390625 l 1,65,-1
 464.518554688 91.2255859375 l 1,66,-1
 499.122070312 157.286132812 l 1,43,-1
199.228515625 281.017578125 m 1,67,-1
 247.463867188 252.70703125 l 1,68,-1
 224.39453125 200.278320312 l 1,69,-1
 199.228515625 281.017578125 l 1,67,-1
EndSplineSet
Fore
SplineSet
517 567 m 1,0,-1
 528 519 l 1,1,-1
 577 360 l 1,2,-1
 519 212 l 1,3,-1
 381 130 l 1,4,-1
 249 175 l 1,5,-1
 135 139 l 1,6,-1
 11 236 l 1,7,-1
 18 318 l 1,8,-1
 -29 408 l 1,9,-1
 40 586 l 1,10,-1
 159 622 l 1,11,-1
 33 917 l 1,12,-1
 108 1035 l 1,13,-1
 253 1023 l 1,14,-1
 339 622 l 1,15,-1
 377 831 l 1,16,-1
 420 1014 l 1,17,-1
 553 1026 l 1,18,-1
 646 960 l 1,19,-1
 577 768 l 1,20,-1
 517 567 l 1,0,-1
405 831 m 1,21,-1
 361 586 l 1,22,-1
 479 567 l 1,23,-1
 598 949 l 1,24,-1
 548 988 l 1,25,-1
 454 984 l 1,26,-1
 405 831 l 1,21,-1
73 911 m 1,27,-1
 193 601 l 1,28,-1
 210 561 l 1,29,-1
 312 586 l 1,30,-1
 257 809 l 1,31,-1
 225 998 l 1,32,-1
 124 998 l 1,33,-1
 73 911 l 1,27,-1
8 416 m 1,34,-1
 49 331 l 1,35,-1
 124 298 l 1,36,-1
 61 364 l 1,37,-1
 61 441 l 1,38,-1
 99 508 l 1,39,-1
 175 552 l 1,40,-1
 155 575 l 1,41,-1
 70 556 l 1,42,-1
 8 416 l 1,34,-1
523 314 m 1,43,-1
 532 360 l 1,44,-1
 483 524 l 1,45,-1
 349 540 l 1,46,-1
 193 511 l 1,47,-1
 132 475 l 1,48,-1
 94 393 l 1,49,-1
 172 334 l 1,50,-1
 275 348 l 1,51,-1
 330 381 l 1,52,-1
 479 364 l 1,53,-1
 405 326 l 1,54,-1
 381 241 l 1,55,-1
 344 314 l 1,56,-1
 279 301 l 1,57,-1
 249 262 l 1,58,-1
 132 245 l 1,59,-1
 53 294 l 1,60,-1
 37 248 l 1,61,-1
 139 175 l 1,62,-1
 210 187 l 1,63,-1
 147 220 l 1,64,-1
 365 170 l 1,65,-1
 483 236 l 1,66,-1
 523 314 l 1,43,-1
172 459 m 1,67,-1
 228 425 l 1,68,-1
 201 364 l 1,69,-1
 172 459 l 1,67,-1
EndSplineSet
Validated: 1025
EndChar

StartChar: w
Encoding: 119 119 90
Width: 832
VWidth: 1355
Flags: W
LayerCount: 2
Back
SplineSet
740.294921875 697.302734375 m 1,0,-1
 671.088867188 512.75390625 l 1,1,-1
 611.3203125 367.001953125 l 1,2,-1
 617.611328125 326.107421875 l 1,3,-1
 653.262695312 190.840820312 l 1,4,-1
 596.639648438 68.1572265625 l 1,5,-1
 476.053710938 2.0966796875 l 1,6,-1
 369.098632812 48.234375 l 1,7,-1
 267.38671875 24.1171875 l 1,8,-1
 187.6953125 134.217773438 l 1,9,-1
 187.6953125 213.91015625 l 1,10,-1
 205.521484375 308.28125 l 1,11,-1
 34.6025390625 541.065429688 l 1,12,-1
 80.740234375 620.756835938 l 1,13,-1
 169.869140625 628.096679688 l 1,14,-1
 312.475585938 408.9453125 l 1,15,-1
 216.006835938 689.962890625 l 1,16,-1
 285.212890625 784.334960938 l 1,17,-1
 409.993164062 766.508789062 l 1,18,-1
 465.568359375 423.625 l 1,19,-1
 507.510742188 599.78515625 l 1,20,-1
 552.599609375 752.877929688 l 1,21,-1
 663.749023438 756.0234375 l 1,22,-1
 740.294921875 697.302734375 l 1,0,-1
249.560546875 683.671875 m 1,23,-1
 336.592773438 413.138671875 l 1,24,-1
 351.2734375 377.487304688 l 1,25,-1
 438.3046875 391.119140625 l 1,26,-1
 402.653320312 586.154296875 l 1,27,-1
 384.827148438 745.538085938 l 1,28,-1
 297.795898438 752.877929688 l 1,29,-1
 249.560546875 683.671875 l 1,23,-1
65.01171875 548.405273438 m 1,30,-1
 216.006835938 341.8359375 l 1,31,-1
 243.26953125 332.399414062 l 1,32,-1
 310.377929688 367.001953125 l 1,33,-1
 212.861328125 485.491210938 l 1,34,-1
 157.286132812 599.78515625 l 1,35,-1
 90.177734375 586.154296875 l 1,36,-1
 65.01171875 548.405273438 l 1,30,-1
614.465820312 193.987304688 m 1,37,-1
 580.911132812 332.399414062 l 1,38,-1
 465.568359375 354.418945312 l 1,39,-1
 333.447265625 336.592773438 l 1,40,-1
 277.873046875 308.28125 l 1,41,-1
 243.26953125 242.220703125 l 1,42,-1
 310.377929688 190.840820312 l 1,43,-1
 396.362304688 193.987304688 l 1,44,-1
 445.64453125 218.103515625 l 1,45,-1
 569.376953125 196.083984375 l 1,46,-1
 504.365234375 173.014648438 l 1,47,-1
 479.19921875 99.615234375 l 1,48,-1
 450.887695312 165.674804688 l 1,49,-1
 396.362304688 155.189453125 l 1,50,-1
 364.904296875 147.848632812 l 1,51,-1
 292.552734375 169.869140625 l 1,52,-1
 223.346679688 218.103515625 l 1,53,-1
 212.861328125 137.36328125 l 1,54,-1
 271.581054688 55.5751953125 l 1,55,-1
 333.447265625 60.8173828125 l 1,56,-1
 282.067382812 93.3232421875 l 1,57,-1
 465.568359375 40.8935546875 l 1,58,-1
 569.376953125 89.12890625 l 1,59,-1
 603.98046875 155.189453125 l 1,60,-1
 614.465820312 193.987304688 l 1,37,-1
580.911132812 370.147460938 m 1,61,-1
 694.157226562 686.817382812 l 1,62,-1
 656.409179688 724.56640625 l 1,63,-1
 576.716796875 724.56640625 l 1,64,-1
 527.43359375 596.639648438 l 1,65,-1
 479.19921875 391.119140625 l 1,66,-1
 580.911132812 370.147460938 l 1,61,-1
333.447265625 213.91015625 m 1,67,-1
 312.475585938 293.600585938 l 1,68,-1
 361.758789062 263.193359375 l 1,69,-1
 333.447265625 213.91015625 l 1,67,-1
EndSplineSet
Fore
SplineSet
792 945 m 1,0,-1
 711 729 l 1,1,-1
 641 558 l 1,2,-1
 648 510 l 1,3,-1
 690 352 l 1,4,-1
 624 208 l 1,5,-1
 482 130 l 1,6,-1
 357 185 l 1,7,-1
 238 156 l 1,8,-1
 144 285 l 1,9,-1
 144 379 l 1,10,-1
 165 489 l 1,11,-1
 -35 762 l 1,12,-1
 19 855 l 1,13,-1
 123 864 l 1,14,-1
 291 607 l 1,15,-1
 177 937 l 1,16,-1
 259 1047 l 1,17,-1
 405 1026 l 1,18,-1
 470 624 l 1,19,-1
 519 831 l 1,20,-1
 572 1010 l 1,21,-1
 702 1014 l 1,22,-1
 792 945 l 1,0,-1
217 929 m 1,23,-1
 319 612 l 1,24,-1
 336 570 l 1,25,-1
 438 586 l 1,26,-1
 396 815 l 1,27,-1
 375 1002 l 1,28,-1
 273 1010 l 1,29,-1
 217 929 l 1,23,-1
1 771 m 1,30,-1
 177 529 l 1,31,-1
 209 518 l 1,32,-1
 288 558 l 1,33,-1
 174 697 l 1,34,-1
 109 831 l 1,35,-1
 30 815 l 1,36,-1
 1 771 l 1,30,-1
644 355 m 1,37,-1
 605 518 l 1,38,-1
 470 543 l 1,39,-1
 315 522 l 1,40,-1
 250 489 l 1,41,-1
 209 412 l 1,42,-1
 288 352 l 1,43,-1
 389 355 l 1,44,-1
 447 384 l 1,45,-1
 592 358 l 1,46,-1
 515 331 l 1,47,-1
 486 245 l 1,48,-1
 453 322 l 1,49,-1
 389 310 l 1,50,-1
 352 301 l 1,51,-1
 267 327 l 1,52,-1
 186 384 l 1,53,-1
 174 289 l 1,54,-1
 243 193 l 1,55,-1
 315 199 l 1,56,-1
 255 237 l 1,57,-1
 470 176 l 1,58,-1
 592 232 l 1,59,-1
 632 310 l 1,60,-1
 644 355 l 1,37,-1
605 562 m 1,61,-1
 738 933 l 1,62,-1
 694 977 l 1,63,-1
 600 977 l 1,64,-1
 542 827 l 1,65,-1
 486 586 l 1,66,-1
 605 562 l 1,61,-1
315 379 m 1,67,-1
 291 472 l 1,68,-1
 348 436 l 1,69,-1
 315 379 l 1,67,-1
EndSplineSet
Validated: 1025
EndChar

StartChar: x
Encoding: 120 120 91
Width: 615
VWidth: 1369
Flags: W
LayerCount: 2
Back
SplineSet
504.365234375 362.806640625 m 1,0,-1
 519.044921875 143.655273438 l 1,1,-1
 409.993164062 0 l 1,2,-1
 240.124023438 38.796875 l 1,3,-1
 134.217773438 105.90625 l 1,4,-1
 44.0400390625 241.171875 l 1,5,-1
 89.12890625 356.515625 l 1,6,-1
 121.634765625 362.806640625 l 1,7,-1
 131.072265625 420.478515625 l 1,8,-1
 202.375 478.151367188 l 1,9,-1
 240.124023438 482.344726562 l 1,10,-1
 101.711914062 513.801757812 l 1,11,-1
 70.2548828125 610.271484375 l 1,12,-1
 165.674804688 655.360351562 l 1,13,-1
 429.916015625 613.416992188 l 1,14,-1
 504.365234375 362.806640625 l 1,0,-1
157.286132812 365.953125 m 1,15,-1
 157.286132812 334.49609375 l 1,16,-1
 240.124023438 289.407226562 l 1,17,-1
 224.39453125 365.953125 l 1,18,-1
 277.873046875 314.573242188 l 1,19,-1
 294.650390625 420.478515625 l 1,20,-1
 288.358398438 460.325195312 l 1,21,-1
 210.763671875 449.838867188 l 1,22,-1
 162.529296875 408.9453125 l 1,23,-1
 157.286132812 365.953125 l 1,15,-1
393.215820312 41.943359375 m 1,24,-1
 490.734375 147.848632812 l 1,25,-1
 477.1015625 362.806640625 l 1,26,-1
 407.896484375 587.203125 l 1,27,-1
 341.8359375 540.016601562 l 1,28,-1
 364.904296875 599.78515625 l 1,29,-1
 272.629882812 610.271484375 l 1,30,-1
 214.958007812 626 l 1,31,-1
 159.383789062 568.328125 l 1,32,-1
 168.821289062 629.146484375 l 1,33,-1
 101.711914062 593.494140625 l 1,34,-1
 131.072265625 535.822265625 l 1,35,-1
 330.30078125 494.927734375 l 1,36,-1
 346.030273438 501.21875 l 1,37,-1
 330.30078125 437.255859375 l 1,38,-1
 339.739257812 311.426757812 l 1,39,-1
 298.84375 199.228515625 l 1,40,-1
 276.82421875 250.610351562 l 1,41,-1
 162.529296875 214.958007812 l 1,42,-1
 193.987304688 256.901367188 l 1,43,-1
 99.615234375 314.573242188 l 1,44,-1
 73.400390625 244.318359375 l 1,45,-1
 140.508789062 137.36328125 l 1,46,-1
 249.560546875 70.2548828125 l 1,47,-1
 393.215820312 41.943359375 l 1,24,-1
EndSplineSet
Fore
SplineSet
536 566 m 1,0,-1
 553 309 l 1,1,-1
 425 141 l 1,2,-1
 226 186 l 1,3,-1
 102 265 l 1,4,-1
 -3 423 l 1,5,-1
 49 559 l 1,6,-1
 88 566 l 1,7,-1
 99 634 l 1,8,-1
 182 701 l 1,9,-1
 226 706 l 1,10,-1
 64 743 l 1,11,-1
 27 856 l 1,12,-1
 139 909 l 1,13,-1
 449 860 l 1,14,-1
 536 566 l 1,0,-1
129 570 m 1,15,-1
 129 533 l 1,16,-1
 226 480 l 1,17,-1
 208 570 l 1,18,-1
 271 509 l 1,19,-1
 290 634 l 1,20,-1
 283 680 l 1,21,-1
 192 668 l 1,22,-1
 135 620 l 1,23,-1
 129 570 l 1,15,-1
406 190 m 1,24,-1
 520 314 l 1,25,-1
 504 566 l 1,26,-1
 423 829 l 1,27,-1
 346 774 l 1,28,-1
 373 844 l 1,29,-1
 264 856 l 1,30,-1
 197 874 l 1,31,-1
 132 807 l 1,32,-1
 143 878 l 1,33,-1
 64 836 l 1,34,-1
 99 769 l 1,35,-1
 332 721 l 1,36,-1
 351 728 l 1,37,-1
 332 653 l 1,38,-1
 343 506 l 1,39,-1
 295 374 l 1,40,-1
 269 434 l 1,41,-1
 135 393 l 1,42,-1
 172 442 l 1,43,-1
 62 509 l 1,44,-1
 31 427 l 1,45,-1
 110 302 l 1,46,-1
 237 223 l 1,47,-1
 406 190 l 1,24,-1
EndSplineSet
Validated: 1
EndChar

StartChar: y
Encoding: 121 121 92
Width: 1260
VWidth: 1384
Flags: W
LayerCount: 2
Back
SplineSet
1073.7421875 306.18359375 m 1,0,-1
 1145.04492188 252.70703125 l 1,1,-1
 1124.07324219 139.4609375 l 1,2,-1
 1006.6328125 67.109375 l 1,3,-1
 859.83203125 70.2548828125 l 1,4,-1
 748.682617188 -18.8740234375 l 1,5,-1
 602.930664062 16.77734375 l 1,6,-1
 484.442382812 9.4365234375 l 1,7,-1
 346.030273438 77.5947265625 l 1,8,-1
 291.50390625 132.12109375 l 1,9,-1
 267.38671875 178.2578125 l 1,10,-1
 124.78125 220.201171875 l 1,11,-1
 49.283203125 306.18359375 l 1,12,-1
 117.44140625 398.458984375 l 1,13,-1
 291.50390625 370.147460938 l 1,14,-1
 341.8359375 367.001953125 l 1,15,-1
 352.322265625 435.159179688 l 1,16,-1
 459.276367188 502.267578125 l 1,17,-1
 559.940429688 488.635742188 l 1,18,-1
 641.728515625 520.09375 l 1,19,-1
 803.208984375 435.159179688 l 1,20,-1
 791.674804688 313.524414062 l 1,21,-1
 806.35546875 256.901367188 l 1,22,-1
 880.803710938 281.017578125 l 1,23,-1
 1073.7421875 306.18359375 l 1,0,-1
387.97265625 416.28515625 m 1,24,-1
 377.487304688 384.827148438 l 1,25,-1
 403.702148438 234.880859375 l 1,26,-1
 463.470703125 217.0546875 l 1,27,-1
 409.993164062 199.228515625 l 1,28,-1
 463.470703125 181.404296875 l 1,29,-1
 484.442382812 191.888671875 l 1,30,-1
 477.1015625 223.346679688 l 1,31,-1
 452.985351562 387.97265625 l 1,32,-1
 466.616210938 435.159179688 l 1,33,-1
 527.43359375 463.470703125 l 1,34,-1
 470.810546875 470.810546875 l 1,35,-1
 406.846679688 435.159179688 l 1,36,-1
 445.64453125 426.76953125 l 1,37,-1
 387.97265625 416.28515625 l 1,24,-1
1103.1015625 156.23828125 m 1,38,-1
 1116.73339844 239.075195312 l 1,39,-1
 1070.59570312 274.7265625 l 1,40,-1
 894.434570312 249.560546875 l 1,41,-1
 787.481445312 206.569335938 l 1,42,-1
 756.0234375 277.873046875 l 1,43,-1
 763.36328125 409.993164062 l 1,44,-1
 641.728515625 488.635742188 l 1,45,-1
 510.657226562 423.625 l 1,46,-1
 602.930664062 413.138671875 l 1,47,-1
 487.587890625 395.313476562 l 1,48,-1
 500.170898438 288.358398438 l 1,49,-1
 510.657226562 249.560546875 l 1,50,-1
 516.948242188 223.346679688 l 1,51,-1
 638.583007812 217.0546875 l 1,52,-1
 524.288085938 191.888671875 l 1,53,-1
 610.271484375 166.723632812 l 1,54,-1
 677.379882812 188.744140625 l 1,55,-1
 691.01171875 256.901367188 l 1,56,-1
 649.069335938 342.883789062 l 1,57,-1
 662.700195312 460.325195312 l 1,58,-1
 691.01171875 413.138671875 l 1,59,-1
 727.711914062 402.653320312 l 1,60,-1
 687.866210938 392.166992188 l 1,61,-1
 695.206054688 346.030273438 l 1,62,-1
 731.90625 252.70703125 l 1,63,-1
 714.080078125 163.578125 l 1,64,-1
 602.930664062 135.265625 l 1,65,-1
 542.114257812 160.431640625 l 1,66,-1
 466.616210938 139.4609375 l 1,67,-1
 377.487304688 191.888671875 l 1,68,-1
 346.030273438 324.009765625 l 1,69,-1
 281.017578125 342.883789062 l 1,70,-1
 120.5859375 374.341796875 l 1,71,-1
 91.2255859375 309.330078125 l 1,72,-1
 138.412109375 246.415039062 l 1,73,-1
 288.358398438 202.375 l 1,74,-1
 317.71875 142.606445312 l 1,75,-1
 362.806640625 105.90625 l 1,76,-1
 481.295898438 42.9921875 l 1,77,-1
 542.114257812 42.9921875 l 1,78,-1
 463.470703125 98.56640625 l 1,79,-1
 752.877929688 16.77734375 l 1,80,-1
 862.977539062 102.759765625 l 1,81,-1
 1020.26367188 113.24609375 l 1,82,-1
 1042.28515625 191.888671875 l 1,83,-1
 1059.06152344 132.12109375 l 1,84,-1
 1103.1015625 156.23828125 l 1,38,-1
EndSplineSet
Fore
SplineSet
1142 515 m 1,0,-1
 1225 452 l 1,1,-1
 1201 319 l 1,2,-1
 1063 234 l 1,3,-1
 891 238 l 1,4,-1
 761 134 l 1,5,-1
 590 176 l 1,6,-1
 451 167 l 1,7,-1
 289 247 l 1,8,-1
 225 311 l 1,9,-1
 197 365 l 1,10,-1
 30 414 l 1,11,-1
 -59 515 l 1,12,-1
 21 623 l 1,13,-1
 225 590 l 1,14,-1
 284 586 l 1,15,-1
 296 666 l 1,16,-1
 422 744 l 1,17,-1
 540 728 l 1,18,-1
 635 765 l 1,19,-1
 825 666 l 1,20,-1
 811 523 l 1,21,-1
 828 457 l 1,22,-1
 916 485 l 1,23,-1
 1142 515 l 1,0,-1
338 644 m 1,24,-1
 326 607 l 1,25,-1
 356 431 l 1,26,-1
 426 410 l 1,27,-1
 364 389 l 1,28,-1
 426 368 l 1,29,-1
 451 381 l 1,30,-1
 442 418 l 1,31,-1
 414 611 l 1,32,-1
 430 666 l 1,33,-1
 501 699 l 1,34,-1
 435 708 l 1,35,-1
 360 666 l 1,36,-1
 406 656 l 1,37,-1
 338 644 l 1,24,-1
1176 339 m 1,38,-1
 1192 436 l 1,39,-1
 1138 478 l 1,40,-1
 932 448 l 1,41,-1
 806 398 l 1,42,-1
 769 481 l 1,43,-1
 778 636 l 1,44,-1
 635 728 l 1,45,-1
 482 652 l 1,46,-1
 590 640 l 1,47,-1
 455 619 l 1,48,-1
 470 494 l 1,49,-1
 482 448 l 1,50,-1
 489 418 l 1,51,-1
 632 410 l 1,52,-1
 498 381 l 1,53,-1
 599 351 l 1,54,-1
 677 377 l 1,55,-1
 693 457 l 1,56,-1
 644 558 l 1,57,-1
 660 695 l 1,58,-1
 693 640 l 1,59,-1
 736 628 l 1,60,-1
 689 615 l 1,61,-1
 698 561 l 1,62,-1
 741 452 l 1,63,-1
 720 348 l 1,64,-1
 590 314 l 1,65,-1
 519 344 l 1,66,-1
 430 319 l 1,67,-1
 326 381 l 1,68,-1
 289 536 l 1,69,-1
 213 558 l 1,70,-1
 25 595 l 1,71,-1
 -10 518 l 1,72,-1
 46 445 l 1,73,-1
 221 393 l 1,74,-1
 256 323 l 1,75,-1
 309 280 l 1,76,-1
 447 206 l 1,77,-1
 519 206 l 1,78,-1
 426 271 l 1,79,-1
 766 176 l 1,80,-1
 895 276 l 1,81,-1
 1079 289 l 1,82,-1
 1105 381 l 1,83,-1
 1124 311 l 1,84,-1
 1176 339 l 1,38,-1
EndSplineSet
Validated: 1025
EndChar

StartChar: z
Encoding: 122 122 93
Width: 1416
VWidth: 1367
Flags: W
LayerCount: 2
Back
SplineSet
1250.95117188 316.669921875 m 1,0,-1
 1240.46484375 197.131835938 l 1,1,-1
 1177.55078125 52.4287109375 l 1,2,-1
 1011.87597656 29.3603515625 l 1,3,-1
 942.669921875 -9.4365234375 l 1,4,-1
 804.2578125 29.3603515625 l 1,5,-1
 769.655273438 106.955078125 l 1,6,-1
 715.12890625 135.265625 l 1,7,-1
 639.630859375 263.193359375 l 1,8,-1
 732.955078125 351.2734375 l 1,9,-1
 757.072265625 359.662109375 l 1,10,-1
 779.091796875 396.362304688 l 1,11,-1
 870.318359375 422.576171875 l 1,12,-1
 674.234375 501.21875 l 1,13,-1
 588.250976562 562.037109375 l 1,14,-1
 613.416992188 660.602539062 l 1,15,-1
 722.46875 667.943359375 l 1,16,-1
 1047.52734375 562.037109375 l 1,17,-1
 1211.10546875 425.721679688 l 1,18,-1
 1250.95117188 316.669921875 l 1,0,-1
753.92578125 279.969726562 m 1,19,-1
 732.955078125 324.009765625 l 1,20,-1
 671.088867188 266.337890625 l 1,21,22
 687.866210938 264.241210938 687.866210938 264.241210938 699.400390625 262.143554688 c 0,23,24
 709.885742188 260.046875 709.885742188 260.046875 718.275390625 258.998046875 c 128,-1,25
 726.663085938 257.950195312 726.663085938 257.950195312 724.56640625 257.950195312 c 256,26,27
 722.46875 257.950195312 722.46875 257.950195312 713.555664062 255.328125 c 128,-1,28
 704.642578125 252.70703125 704.642578125 252.70703125 695.206054688 250.610351562 c 0,29,30
 683.671875 246.415039062 683.671875 246.415039062 671.088867188 243.26953125 c 1,31,-1
 695.206054688 204.471679688 l 1,32,-1
 737.149414062 241.171875 l 1,33,-1
 753.92578125 279.969726562 l 1,19,-1
769.655273438 312.475585938 m 1,34,-1
 818.938476562 319.81640625 l 1,35,-1
 942.669921875 363.856445312 l 1,36,-1
 899.677734375 402.653320312 l 1,37,-1
 799.014648438 374.341796875 l 1,38,-1
 833.618164062 341.8359375 l 1,39,-1
 783.286132812 363.856445312 l 1,40,-1
 769.655273438 312.475585938 l 1,34,-1
1218.4453125 316.669921875 m 1,41,-1
 1175.45410156 422.576171875 l 1,42,-1
 1043.33300781 530.579101562 l 1,43,-1
 1016.0703125 493.87890625 l 1,44,-1
 1007.68164062 552.599609375 l 1,45,-1
 737.149414062 631.243164062 l 1,46,-1
 740.294921875 585.10546875 l 1,47,-1
 695.206054688 639.630859375 l 1,48,-1
 660.602539062 641.728515625 l 1,49,-1
 623.903320312 628.096679688 l 1,50,-1
 616.563476562 572.522460938 l 1,51,-1
 693.109375 519.044921875 l 1,52,-1
 945.81640625 425.721679688 l 1,53,-1
 986.709960938 371.196289062 l 1,54,-1
 1047.52734375 359.662109375 l 1,55,-1
 1123.02539062 324.009765625 l 1,56,-1
 1163.91894531 218.103515625 l 1,57,-1
 1091.56835938 297.795898438 l 1,58,-1
 997.196289062 327.15625 l 1,59,-1
 895.484375 305.135742188 l 1,60,-1
 804.2578125 287.309570312 l 1,61,-1
 762.315429688 201.327148438 l 1,62,-1
 802.161132812 153.091796875 l 1,63,-1
 848.297851562 149.946289062 l 1,64,-1
 907.017578125 179.305664062 l 1,65,-1
 958.3984375 167.772460938 l 2,66,67
 999.29296875 158.334960938 999.29296875 158.334960938 1033.89648438 150.995117188 c 0,68,69
 1062.20703125 144.703125 1062.20703125 144.703125 1086.84863281 139.985351562 c 128,-1,70
 1111.49121094 135.265625 1111.49121094 135.265625 1113.58789062 135.265625 c 256,71,72
 1115.68457031 135.265625 1115.68457031 135.265625 1103.62597656 134.217773438 c 128,-1,73
 1091.56835938 133.168945312 1091.56835938 133.168945312 1075.83886719 131.072265625 c 0,74,75
 1056.96484375 128.974609375 1056.96484375 128.974609375 1032.84667969 127.92578125 c 1,76,-1
 1019.21582031 83.8857421875 l 1,77,-1
 978.321289062 135.265625 l 1,78,-1
 936.377929688 113.24609375 l 1,79,-1
 870.318359375 132.12109375 l 1,80,-1
 848.297851562 103.80859375 l 1,81,-1
 794.821289062 106.955078125 l 1,82,-1
 827.326171875 49.283203125 l 1,83,-1
 936.377929688 15.728515625 l 1,84,-1
 961.543945312 29.3603515625 l 1,85,-1
 877.658203125 54.5263671875 l 1,86,-1
 1146.09375 74.44921875 l 1,87,-1
 1214.25097656 208.666992188 l 1,88,-1
 1218.4453125 316.669921875 l 1,41,-1
808.452148438 275.775390625 m 1,89,-1
 870.318359375 247.463867188 l 1,90,-1
 862.977539062 186.647460938 l 1,91,-1
 808.452148438 275.775390625 l 1,89,-1
344.982421875 620.756835938 m 1,92,-1
 594.54296875 297.795898438 l 1,93,-1
 94.3720703125 389.022460938 l 1,94,-1
 94.3720703125 338.690429688 l 1,95,-1
 -13.630859375 418.381835938 l 1,96,-1
 132.12109375 468.712890625 l 1,97,-1
 99.615234375 418.381835938 l 1,98,-1
 432.012695312 389.022460938 l 1,99,-1
 233.83203125 682.623046875 l 1,100,-1
 562.037109375 616.563476562 l 1,101,-1
 344.982421875 620.756835938 l 1,92,-1
EndSplineSet
Fore
SplineSet
1373 510 m 1,0,-1
 1360 370 l 1,1,-1
 1287 200 l 1,2,-1
 1093 173 l 1,3,-1
 1012 128 l 1,4,-1
 849 173 l 1,5,-1
 809 264 l 1,6,-1
 745 298 l 1,7,-1
 656 447 l 1,8,-1
 766 551 l 1,9,-1
 794 561 l 1,10,-1
 820 604 l 1,11,-1
 927 634 l 1,12,-1
 697 726 l 1,13,-1
 596 798 l 1,14,-1
 626 913 l 1,15,-1
 753 922 l 1,16,-1
 1134 798 l 1,17,-1
 1326 638 l 1,18,-1
 1373 510 l 1,0,-1
790 467 m 1,19,-1
 766 519 l 1,20,-1
 693 451 l 1,21,22
 713 449 713 449 726 446 c 0,23,24
 738 444 738 444 748 442.5 c 128,-1,25
 758 441 758 441 756 441 c 256,26,27
 754 441 754 441 743.5 438 c 128,-1,28
 733 435 733 435 722 433 c 0,29,30
 708 428 708 428 693 424 c 1,31,-1
 722 379 l 1,32,-1
 771 422 l 1,33,-1
 790 467 l 1,19,-1
809 505 m 1,34,-1
 867 514 l 1,35,-1
 1012 565 l 1,36,-1
 961 611 l 1,37,-1
 843 578 l 1,38,-1
 884 540 l 1,39,-1
 825 565 l 1,40,-1
 809 505 l 1,34,-1
1335 510 m 1,41,-1
 1284 634 l 1,42,-1
 1129 761 l 1,43,-1
 1098 718 l 1,44,-1
 1088 787 l 1,45,-1
 771 879 l 1,46,-1
 774 825 l 1,47,-1
 722 889 l 1,48,-1
 681 891 l 1,49,-1
 638 875 l 1,50,-1
 629 810 l 1,51,-1
 719 747 l 1,52,-1
 1015 638 l 1,53,-1
 1063 574 l 1,54,-1
 1134 561 l 1,55,-1
 1223 519 l 1,56,-1
 1271 395 l 1,57,-1
 1186 488 l 1,58,-1
 1075 522 l 1,59,-1
 956 497 l 1,60,-1
 849 476 l 1,61,-1
 800 375 l 1,62,-1
 847 318 l 1,63,-1
 901 315 l 1,64,-1
 970 349 l 1,65,-1
 1030 336 l 2,66,67
 1078 325 1078 325 1118 316 c 0,68,69
 1151 309 1151 309 1180 303.5 c 128,-1,70
 1209 298 1209 298 1212 298 c 256,71,72
 1214 298 1214 298 1200 296.5 c 128,-1,73
 1186 295 1186 295 1168 293 c 0,74,75
 1146 291 1146 291 1117 289 c 1,76,-1
 1101 237 l 1,77,-1
 1053 298 l 1,78,-1
 1004 272 l 1,79,-1
 927 294 l 1,80,-1
 901 261 l 1,81,-1
 838 264 l 1,82,-1
 876 197 l 1,83,-1
 1004 157 l 1,84,-1
 1034 173 l 1,85,-1
 935 203 l 1,86,-1
 1250 226 l 1,87,-1
 1330 384 l 1,88,-1
 1335 510 l 1,41,-1
854 462 m 1,89,-1
 927 429 l 1,90,-1
 918 358 l 1,91,-1
 854 462 l 1,89,-1
311 867 m 1,92,-1
 604 488 l 1,93,-1
 17 595 l 1,94,-1
 17 536 l 1,95,-1
 -109 629 l 1,96,-1
 62 688 l 1,97,-1
 24 629 l 1,98,-1
 413 595 l 1,99,-1
 181 939 l 1,100,-1
 565 862 l 1,101,-1
 311 867 l 1,92,-1
EndSplineSet
Validated: 1025
EndChar

StartChar: braceleft
Encoding: 123 123 94
Width: 655
Flags: W
LayerCount: 2
Fore
SplineSet
524 -135 m 1,0,-1
 124 -135 l 1,1,-1
 124 521 l 1,2,-1
 -7 521 l 1,3,-1
 -7 791 l 1,4,-1
 124 791 l 1,5,-1
 124 1446 l 1,6,-1
 524 1446 l 1,7,-1
 524 1177 l 1,8,-1
 393 1177 l 1,9,-1
 393 135 l 1,10,-1
 524 135 l 1,11,-1
 524 -135 l 1,0,-1
EndSplineSet
Validated: 1
EndChar

StartChar: bar
Encoding: 124 124 95
Width: 393
Flags: W
LayerCount: 2
Fore
SplineSet
262 -135 m 1,0,-1
 -7 -135 l 1,1,-1
 -7 1446 l 1,2,-1
 262 1446 l 1,3,-1
 262 -135 l 1,0,-1
EndSplineSet
Validated: 1
EndChar

StartChar: braceright
Encoding: 125 125 96
Width: 655
Flags: W
LayerCount: 2
Fore
SplineSet
-7 -135 m 1,0,-1
 393 -135 l 1,1,-1
 393 521 l 1,2,-1
 524 521 l 1,3,-1
 524 791 l 1,4,-1
 393 791 l 1,5,-1
 393 1446 l 1,6,-1
 -7 1446 l 1,7,-1
 -7 1177 l 1,8,-1
 124 1177 l 1,9,-1
 124 135 l 1,10,-1
 -7 135 l 1,11,-1
 -7 -135 l 1,0,-1
EndSplineSet
Validated: 9
EndChar

StartChar: asciitilde
Encoding: 126 126 97
Width: 1179
Flags: W
LayerCount: 2
Fore
SplineSet
262 390 m 1,0,-1
 -7 390 l 1,1,-1
 -7 922 l 1,2,-1
 655 922 l 1,3,-1
 655 659 l 1,4,-1
 779 659 l 1,5,-1
 779 922 l 1,6,-1
 1049 922 l 1,7,-1
 1049 390 l 1,8,-1
 386 390 l 1,9,-1
 386 652 l 1,10,-1
 262 652 l 1,11,-1
 262 390 l 1,0,-1
EndSplineSet
Validated: 1
EndChar

StartChar: Euro
Encoding: 8364 8364 98
Width: 1048
Flags: W
LayerCount: 2
Fore
SplineSet
124 -4 m 1,0,-1
 124 521 l 1,1,-1
 -7 521 l 1,2,-1
 -7 791 l 1,3,-1
 124 791 l 1,4,-1
 124 1315 l 1,5,-1
 918 1315 l 1,6,-1
 918 914 l 1,7,-1
 648 914 l 1,8,-1
 648 1046 l 1,9,-1
 393 1046 l 1,10,-1
 393 791 l 1,11,-1
 655 791 l 1,12,-1
 655 521 l 1,13,-1
 393 521 l 1,14,-1
 393 266 l 1,15,-1
 648 266 l 1,16,-1
 648 397 l 1,17,-1
 918 397 l 1,18,-1
 918 -4 l 1,19,-1
 124 -4 l 1,0,-1
EndSplineSet
Validated: 1
EndChar

StartChar: exclamdown
Encoding: 161 161 99
Width: 393
Flags: W
LayerCount: 2
Fore
SplineSet
262 523 m 1,0,-1
 -7 523 l 1,1,-1
 -7 -402 l 1,2,-1
 262 -402 l 1,3,-1
 262 523 l 1,0,-1
262 916 m 1,4,-1
 -7 916 l 1,5,-1
 -7 647 l 1,6,-1
 262 647 l 1,7,-1
 262 916 l 1,4,-1
EndSplineSet
Validated: 9
EndChar

StartChar: sterling
Encoding: 163 163 100
Width: 1048
Flags: W
LayerCount: 2
Fore
SplineSet
-7 -4 m 1,0,-1
 -7 266 l 1,1,-1
 124 266 l 1,2,-1
 124 521 l 1,3,-1
 -7 521 l 1,4,-1
 -7 791 l 1,5,-1
 124 791 l 1,6,-1
 124 1315 l 1,7,-1
 786 1315 l 1,8,-1
 786 914 l 1,9,-1
 517 914 l 1,10,-1
 517 1046 l 1,11,-1
 393 1046 l 1,12,-1
 393 791 l 1,13,-1
 655 791 l 1,14,-1
 655 521 l 1,15,-1
 393 521 l 1,16,-1
 393 266 l 1,17,-1
 918 266 l 1,18,-1
 918 -4 l 1,19,-1
 -7 -4 l 1,0,-1
EndSplineSet
Validated: 1
EndChar

StartChar: yen
Encoding: 165 165 101
Width: 917
Flags: W
LayerCount: 2
Fore
SplineSet
255 390 m 1,0,-1
 -7 390 l 1,1,-1
 -7 659 l 1,2,-1
 255 659 l 1,3,-1
 255 783 l 1,4,-1
 -7 783 l 1,5,-1
 -7 1315 l 1,6,-1
 262 1315 l 1,7,-1
 262 1053 l 1,8,-1
 517 1053 l 1,9,-1
 517 1315 l 1,10,-1
 786 1315 l 1,11,-1
 786 783 l 1,12,-1
 524 783 l 1,13,-1
 524 659 l 1,14,-1
 786 659 l 1,15,-1
 786 390 l 1,16,-1
 524 390 l 1,17,-1
 524 -4 l 1,18,-1
 255 -4 l 1,19,-1
 255 390 l 1,0,-1
EndSplineSet
Validated: 1
EndChar

StartChar: copyright
Encoding: 169 169 102
Width: 1572
Flags: W
LayerCount: 2
Fore
SplineSet
262 130 m 1,0,-1
 1172 130 l 1,1,-1
 1172 1171 l 1,2,-1
 262 1171 l 1,3,-1
 262 130 l 1,0,-1
1442 -140 m 1,4,-1
 -7 -140 l 1,5,-1
 -7 1441 l 1,6,-1
 1442 1441 l 1,7,-1
 1442 -140 l 1,4,-1
386 254 m 1,8,-1
 386 1048 l 1,9,-1
 1049 1048 l 1,10,-1
 1049 778 l 1,11,-1
 655 778 l 1,12,-1
 655 523 l 1,13,-1
 1049 523 l 1,14,-1
 1049 254 l 1,15,-1
 386 254 l 1,8,-1
EndSplineSet
Validated: 1
EndChar

StartChar: registered
Encoding: 174 174 103
Width: 1572
Flags: W
LayerCount: 2
Fore
SplineSet
262 130 m 1,0,-1
 1172 130 l 1,1,-1
 1172 1171 l 1,2,-1
 262 1171 l 1,3,-1
 262 130 l 1,0,-1
-7 -140 m 1,4,-1
 -7 1441 l 1,5,-1
 1442 1441 l 1,6,-1
 1442 -140 l 1,7,-1
 -7 -140 l 1,4,-1
655 778 m 1,8,-1
 655 654 l 1,9,-1
 779 654 l 1,10,-1
 779 778 l 1,11,-1
 655 778 l 1,8,-1
655 254 m 1,12,-1
 386 254 l 1,13,-1
 386 1048 l 1,14,-1
 1049 1048 l 1,15,-1
 1049 647 l 1,16,-1
 918 647 l 1,17,-1
 918 523 l 1,18,-1
 1049 523 l 1,19,-1
 1049 254 l 1,20,-1
 779 254 l 1,21,-1
 779 516 l 1,22,-1
 655 516 l 1,23,-1
 655 254 l 1,12,-1
EndSplineSet
Validated: 1
EndChar

StartChar: ordmasculine
Encoding: 186 186 104
Width: 786
Flags: W
LayerCount: 2
Fore
SplineSet
262 922 m 1,0,-1
 386 922 l 1,1,-1
 386 1177 l 1,2,-1
 262 1177 l 1,3,-1
 262 922 l 1,0,-1
-7 1315 m 1,4,-1
 655 1315 l 1,5,-1
 655 783 l 1,6,-1
 -7 783 l 1,7,-1
 -7 1315 l 1,4,-1
EndSplineSet
Validated: 1
EndChar

StartChar: questiondown
Encoding: 191 191 105
Width: 917
Flags: W
LayerCount: 2
Fore
SplineSet
255 523 m 1,0,-1
 524 523 l 1,1,-1
 524 123 l 1,2,-1
 262 123 l 1,3,-1
 262 -133 l 1,4,-1
 517 -133 l 1,5,-1
 517 -2 l 1,6,-1
 786 -2 l 1,7,-1
 786 -402 l 1,8,-1
 -7 -402 l 1,9,-1
 -7 392 l 1,10,-1
 255 392 l 1,11,-1
 255 523 l 1,0,-1
255 916 m 1,12,-1
 524 916 l 1,13,-1
 524 647 l 1,14,-1
 255 647 l 1,15,-1
 255 916 l 1,12,-1
EndSplineSet
Validated: 1
EndChar

StartChar: Agrave
Encoding: 192 192 106
Width: 917
Flags: W
LayerCount: 2
Fore
SplineSet
262 1046 m 1,0,-1
 262 791 l 1,1,-1
 517 791 l 1,2,-1
 517 1046 l 1,3,-1
 262 1046 l 1,0,-1
262 -4 m 1,4,-1
 -7 -4 l 1,5,-1
 -7 1315 l 1,6,-1
 786 1315 l 1,7,-1
 786 -4 l 1,8,-1
 517 -4 l 1,9,-1
 517 521 l 1,10,-1
 262 521 l 1,11,-1
 262 -4 l 1,4,-1
259 1573 m 1,12,-1
 521 1573 l 1,13,-1
 521 1442 l 1,14,-1
 259 1442 l 1,15,-1
 259 1573 l 1,12,-1
128 1704 m 1,16,-1
 390 1704 l 1,17,-1
 390 1573 l 1,18,-1
 128 1573 l 1,19,-1
 128 1704 l 1,16,-1
EndSplineSet
Validated: 5
EndChar

StartChar: Aacute
Encoding: 193 193 107
Width: 917
Flags: W
LayerCount: 2
Fore
SplineSet
262 1046 m 1,0,-1
 262 791 l 1,1,-1
 517 791 l 1,2,-1
 517 1046 l 1,3,-1
 262 1046 l 1,0,-1
262 -4 m 1,4,-1
 -7 -4 l 1,5,-1
 -7 1315 l 1,6,-1
 786 1315 l 1,7,-1
 786 -4 l 1,8,-1
 517 -4 l 1,9,-1
 517 521 l 1,10,-1
 262 521 l 1,11,-1
 262 -4 l 1,4,-1
259 1573 m 1,12,-1
 521 1573 l 1,13,-1
 521 1442 l 1,14,-1
 259 1442 l 1,15,-1
 259 1573 l 1,12,-1
390 1704 m 1,16,-1
 652 1704 l 1,17,-1
 652 1573 l 1,18,-1
 390 1573 l 1,19,-1
 390 1704 l 1,16,-1
EndSplineSet
Validated: 5
EndChar

StartChar: Acircumflex
Encoding: 194 194 108
Width: 917
Flags: W
LayerCount: 2
Fore
SplineSet
262 1046 m 1,0,-1
 262 791 l 1,1,-1
 517 791 l 1,2,-1
 517 1046 l 1,3,-1
 262 1046 l 1,0,-1
262 -4 m 1,4,-1
 -7 -4 l 1,5,-1
 -7 1315 l 1,6,-1
 786 1315 l 1,7,-1
 786 -4 l 1,8,-1
 517 -4 l 1,9,-1
 517 521 l 1,10,-1
 262 521 l 1,11,-1
 262 -4 l 1,4,-1
128 1573 m 1,12,-1
 390 1573 l 1,13,-1
 390 1442 l 1,14,-1
 128 1442 l 1,15,-1
 128 1573 l 1,12,-1
259 1704 m 1,16,-1
 652 1704 l 1,17,-1
 652 1573 l 1,18,-1
 259 1573 l 1,19,-1
 259 1704 l 1,16,-1
521 1573 m 1,20,-1
 783 1573 l 1,21,-1
 783 1442 l 1,22,-1
 521 1442 l 1,23,-1
 521 1573 l 1,20,-1
EndSplineSet
Validated: 5
EndChar

StartChar: Atilde
Encoding: 195 195 109
Width: 917
Flags: W
LayerCount: 2
Fore
SplineSet
262 1046 m 1,0,-1
 262 791 l 1,1,-1
 517 791 l 1,2,-1
 517 1046 l 1,3,-1
 262 1046 l 1,0,-1
262 -4 m 1,4,-1
 -7 -4 l 1,5,-1
 -7 1315 l 1,6,-1
 786 1315 l 1,7,-1
 786 -4 l 1,8,-1
 517 -4 l 1,9,-1
 517 521 l 1,10,-1
 262 521 l 1,11,-1
 262 -4 l 1,4,-1
128 1573 m 1,12,-1
 259 1573 l 1,13,-1
 259 1442 l 1,14,-1
 128 1442 l 1,15,-1
 128 1573 l 1,12,-1
259 1704 m 1,16,-1
 521 1704 l 1,17,-1
 521 1573 l 1,18,-1
 259 1573 l 1,19,-1
 259 1704 l 1,16,-1
390 1573 m 1,20,-1
 652 1573 l 1,21,-1
 652 1442 l 1,22,-1
 390 1442 l 1,23,-1
 390 1573 l 1,20,-1
652 1704 m 1,24,-1
 783 1704 l 1,25,-1
 783 1573 l 1,26,-1
 652 1573 l 1,27,-1
 652 1704 l 1,24,-1
EndSplineSet
Validated: 5
EndChar

StartChar: Adieresis
Encoding: 196 196 110
Width: 917
Flags: W
LayerCount: 2
Fore
SplineSet
262 1046 m 1,0,-1
 262 791 l 1,1,-1
 517 791 l 1,2,-1
 517 1046 l 1,3,-1
 262 1046 l 1,0,-1
262 -4 m 1,4,-1
 -7 -4 l 1,5,-1
 -7 1315 l 1,6,-1
 786 1315 l 1,7,-1
 786 -4 l 1,8,-1
 517 -4 l 1,9,-1
 517 521 l 1,10,-1
 262 521 l 1,11,-1
 262 -4 l 1,4,-1
128 1704 m 1,12,-1
 259 1704 l 1,13,-1
 259 1442 l 1,14,-1
 128 1442 l 1,15,-1
 128 1704 l 1,12,-1
521 1704 m 1,16,-1
 652 1704 l 1,17,-1
 652 1442 l 1,18,-1
 521 1442 l 1,19,-1
 521 1704 l 1,16,-1
EndSplineSet
Validated: 1
EndChar

StartChar: Aring
Encoding: 197 197 111
Width: 917
Flags: W
LayerCount: 2
Fore
SplineSet
393 1577 m 1,0,-1
 517 1577 l 1,1,-1
 517 1701 l 1,2,-1
 393 1701 l 1,3,-1
 393 1577 l 1,0,-1
655 1439 m 1,4,-1
 255 1439 l 1,5,-1
 255 1839 l 1,6,-1
 655 1839 l 1,7,-1
 655 1439 l 1,4,-1
262 1046 m 1,8,-1
 262 791 l 1,9,-1
 517 791 l 1,10,-1
 517 1046 l 1,11,-1
 262 1046 l 1,8,-1
262 -4 m 1,12,-1
 -7 -4 l 1,13,-1
 -7 1315 l 1,14,-1
 786 1315 l 1,15,-1
 786 -4 l 1,16,-1
 517 -4 l 1,17,-1
 517 521 l 1,18,-1
 262 521 l 1,19,-1
 262 -4 l 1,12,-1
EndSplineSet
Validated: 1
EndChar

StartChar: AE
Encoding: 198 198 112
Width: 1310
Flags: W
LayerCount: 2
Fore
SplineSet
262 1046 m 1,0,-1
 262 791 l 1,1,-1
 517 791 l 1,2,-1
 517 1046 l 1,3,-1
 262 1046 l 1,0,-1
262 -4 m 1,4,-1
 -7 -4 l 1,5,-1
 -7 1315 l 1,6,-1
 1180 1315 l 1,7,-1
 1180 1046 l 1,8,-1
 786 1046 l 1,9,-1
 786 791 l 1,10,-1
 1180 791 l 1,11,-1
 1180 521 l 1,12,-1
 786 521 l 1,13,-1
 786 266 l 1,14,-1
 1180 266 l 1,15,-1
 1180 -4 l 1,16,-1
 517 -4 l 1,17,-1
 517 521 l 1,18,-1
 262 521 l 1,19,-1
 262 -4 l 1,4,-1
EndSplineSet
Validated: 1
EndChar

StartChar: Ccedilla
Encoding: 199 199 113
Width: 917
Flags: W
LayerCount: 2
Fore
SplineSet
124 -4 m 1,0,-1
 124 128 l 1,1,-1
 -7 128 l 1,2,-1
 -7 1184 l 1,3,-1
 124 1184 l 1,4,-1
 124 1315 l 1,5,-1
 655 1315 l 1,6,-1
 655 1184 l 1,7,-1
 786 1184 l 1,8,-1
 786 783 l 1,9,-1
 517 783 l 1,10,-1
 517 1046 l 1,11,-1
 262 1046 l 1,12,-1
 262 266 l 1,13,-1
 517 266 l 1,14,-1
 517 528 l 1,15,-1
 786 528 l 1,16,-1
 786 128 l 1,17,-1
 655 128 l 1,18,-1
 655 -4 l 1,19,-1
 124 -4 l 1,0,-1
0 1311 m 1,20,-1
 124 1311 l 1,21,-1
 124 1184 l 1,22,-1
 0 1184 l 1,23,-1
 0 1311 l 1,20,-1
-7 128 m 1,24,-1
 124 128 l 1,25,-1
 124 -4 l 1,26,-1
 -7 -4 l 1,27,-1
 -7 128 l 1,24,-1
655 131 m 1,28,-1
 786 131 l 1,29,-1
 786 0 l 1,30,-1
 655 0 l 1,31,-1
 655 131 l 1,28,-1
655 1311 m 1,32,-1
 786 1311 l 1,33,-1
 786 1184 l 1,34,-1
 655 1184 l 1,35,-1
 655 1311 l 1,32,-1
262 -4 m 1,36,-1
 524 -4 l 1,37,-1
 524 -131 l 1,38,-1
 262 -131 l 1,39,-1
 262 -4 l 1,36,-1
131 -131 m 1,40,-1
 393 -131 l 1,41,-1
 393 -262 l 1,42,-1
 131 -262 l 1,43,-1
 131 -131 l 1,40,-1
EndSplineSet
Validated: 5
EndChar

StartChar: Egrave
Encoding: 200 200 114
Width: 786
Flags: W
LayerCount: 2
Fore
SplineSet
655 -4 m 1,0,-1
 -7 -4 l 1,1,-1
 -7 1315 l 1,2,-1
 655 1315 l 1,3,-1
 655 1046 l 1,4,-1
 262 1046 l 1,5,-1
 262 791 l 1,6,-1
 655 791 l 1,7,-1
 655 521 l 1,8,-1
 262 521 l 1,9,-1
 262 266 l 1,10,-1
 655 266 l 1,11,-1
 655 -4 l 1,0,-1
131 1573 m 1,12,-1
 393 1573 l 1,13,-1
 393 1442 l 1,14,-1
 131 1442 l 1,15,-1
 131 1573 l 1,12,-1
0 1704 m 1,16,-1
 262 1704 l 1,17,-1
 262 1573 l 1,18,-1
 0 1573 l 1,19,-1
 0 1704 l 1,16,-1
EndSplineSet
Validated: 5
EndChar

StartChar: Eacute
Encoding: 201 201 115
Width: 786
Flags: W
LayerCount: 2
Fore
SplineSet
655 -4 m 1,0,-1
 -7 -4 l 1,1,-1
 -7 1315 l 1,2,-1
 655 1315 l 1,3,-1
 655 1046 l 1,4,-1
 262 1046 l 1,5,-1
 262 791 l 1,6,-1
 655 791 l 1,7,-1
 655 521 l 1,8,-1
 262 521 l 1,9,-1
 262 266 l 1,10,-1
 655 266 l 1,11,-1
 655 -4 l 1,0,-1
262 1573 m 1,12,-1
 524 1573 l 1,13,-1
 524 1442 l 1,14,-1
 262 1442 l 1,15,-1
 262 1573 l 1,12,-1
393 1704 m 1,16,-1
 655 1704 l 1,17,-1
 655 1573 l 1,18,-1
 393 1573 l 1,19,-1
 393 1704 l 1,16,-1
EndSplineSet
Validated: 5
EndChar

StartChar: Ecircumflex
Encoding: 202 202 116
Width: 786
Flags: W
LayerCount: 2
Fore
SplineSet
655 -4 m 1,0,-1
 -7 -4 l 1,1,-1
 -7 1315 l 1,2,-1
 655 1315 l 1,3,-1
 655 1046 l 1,4,-1
 262 1046 l 1,5,-1
 262 791 l 1,6,-1
 655 791 l 1,7,-1
 655 521 l 1,8,-1
 262 521 l 1,9,-1
 262 266 l 1,10,-1
 655 266 l 1,11,-1
 655 -4 l 1,0,-1
0 1573 m 1,12,-1
 262 1573 l 1,13,-1
 262 1442 l 1,14,-1
 0 1442 l 1,15,-1
 0 1573 l 1,12,-1
393 1573 m 1,16,-1
 655 1573 l 1,17,-1
 655 1442 l 1,18,-1
 393 1442 l 1,19,-1
 393 1573 l 1,16,-1
131 1704 m 1,20,-1
 524 1704 l 1,21,-1
 524 1573 l 1,22,-1
 131 1573 l 1,23,-1
 131 1704 l 1,20,-1
EndSplineSet
Validated: 5
EndChar

StartChar: Edieresis
Encoding: 203 203 117
Width: 786
Flags: W
LayerCount: 2
Fore
SplineSet
655 -4 m 1,0,-1
 -7 -4 l 1,1,-1
 -7 1315 l 1,2,-1
 655 1315 l 1,3,-1
 655 1046 l 1,4,-1
 262 1046 l 1,5,-1
 262 791 l 1,6,-1
 655 791 l 1,7,-1
 655 521 l 1,8,-1
 262 521 l 1,9,-1
 262 266 l 1,10,-1
 655 266 l 1,11,-1
 655 -4 l 1,0,-1
131 1704 m 1,12,-1
 262 1704 l 1,13,-1
 262 1442 l 1,14,-1
 131 1442 l 1,15,-1
 131 1704 l 1,12,-1
393 1704 m 1,16,-1
 524 1704 l 1,17,-1
 524 1442 l 1,18,-1
 393 1442 l 1,19,-1
 393 1704 l 1,16,-1
EndSplineSet
Validated: 1
EndChar

StartChar: Igrave
Encoding: 204 204 118
Width: 393
Flags: W
LayerCount: 2
Fore
SplineSet
262 1439 m 1,0,-1
 -7 1439 l 1,1,-1
 -7 1570 l 1,2,-1
 -138 1570 l 1,3,-1
 -138 1708 l 1,4,-1
 131 1708 l 1,5,-1
 131 1577 l 1,6,-1
 262 1577 l 1,7,-1
 262 1439 l 1,0,-1
262 -4 m 1,8,-1
 -7 -4 l 1,9,-1
 -7 1315 l 1,10,-1
 262 1315 l 1,11,-1
 262 -4 l 1,8,-1
EndSplineSet
Validated: 1
EndChar

StartChar: Iacute
Encoding: 205 205 119
Width: 393
Flags: W
LayerCount: 2
Fore
SplineSet
262 1439 m 1,0,-1
 -7 1439 l 1,1,-1
 -7 1577 l 1,2,-1
 124 1577 l 1,3,-1
 124 1708 l 1,4,-1
 393 1708 l 1,5,-1
 393 1570 l 1,6,-1
 262 1570 l 1,7,-1
 262 1439 l 1,0,-1
262 -4 m 1,8,-1
 -7 -4 l 1,9,-1
 -7 1315 l 1,10,-1
 262 1315 l 1,11,-1
 262 -4 l 1,8,-1
EndSplineSet
Validated: 1
EndChar

StartChar: Icircumflex
Encoding: 206 206 120
Width: 393
Flags: W
LayerCount: 2
Fore
SplineSet
-138 1439 m 1,0,-1
 -138 1577 l 1,1,-1
 -7 1577 l 1,2,-1
 -7 1708 l 1,3,-1
 393 1708 l 1,4,-1
 393 1577 l 1,5,-1
 524 1577 l 1,6,-1
 524 1439 l 1,7,-1
 255 1439 l 1,8,-1
 255 1570 l 1,9,-1
 131 1570 l 1,10,-1
 131 1439 l 1,11,-1
 -138 1439 l 1,0,-1
262 -4 m 1,12,-1
 -7 -4 l 1,13,-1
 -7 1315 l 1,14,-1
 262 1315 l 1,15,-1
 262 -4 l 1,12,-1
EndSplineSet
Validated: 1
EndChar

StartChar: Idieresis
Encoding: 207 207 121
Width: 393
Flags: W
LayerCount: 2
Fore
SplineSet
393 1439 m 1,0,-1
 255 1439 l 1,1,-1
 255 1708 l 1,2,-1
 393 1708 l 1,3,-1
 393 1439 l 1,0,-1
0 1439 m 1,4,-1
 -138 1439 l 1,5,-1
 -138 1708 l 1,6,-1
 0 1708 l 1,7,-1
 0 1439 l 1,4,-1
262 -4 m 1,8,-1
 -7 -4 l 1,9,-1
 -7 1315 l 1,10,-1
 262 1315 l 1,11,-1
 262 -4 l 1,8,-1
EndSplineSet
Validated: 1
EndChar

StartChar: Ntilde
Encoding: 209 209 122
Width: 917
Flags: W
LayerCount: 2
Fore
SplineSet
262 -4 m 1,0,-1
 -7 -4 l 1,1,-1
 -7 1315 l 1,2,-1
 786 1315 l 1,3,-1
 786 -4 l 1,4,-1
 517 -4 l 1,5,-1
 517 1046 l 1,6,-1
 262 1046 l 1,7,-1
 262 -4 l 1,0,-1
128 1573 m 1,8,-1
 259 1573 l 1,9,-1
 259 1442 l 1,10,-1
 128 1442 l 1,11,-1
 128 1573 l 1,8,-1
259 1704 m 1,12,-1
 521 1704 l 1,13,-1
 521 1573 l 1,14,-1
 259 1573 l 1,15,-1
 259 1704 l 1,12,-1
390 1573 m 1,16,-1
 652 1573 l 1,17,-1
 652 1442 l 1,18,-1
 390 1442 l 1,19,-1
 390 1573 l 1,16,-1
652 1704 m 1,20,-1
 783 1704 l 1,21,-1
 783 1573 l 1,22,-1
 652 1573 l 1,23,-1
 652 1704 l 1,20,-1
EndSplineSet
Validated: 5
EndChar

StartChar: Ograve
Encoding: 210 210 123
Width: 917
Flags: W
LayerCount: 2
Fore
SplineSet
262 266 m 1,0,-1
 517 266 l 1,1,-1
 517 1046 l 1,2,-1
 262 1046 l 1,3,-1
 262 266 l 1,0,-1
124 -4 m 1,4,-1
 124 128 l 1,5,-1
 -7 128 l 1,6,-1
 -7 1184 l 1,7,-1
 124 1184 l 1,8,-1
 124 1315 l 1,9,-1
 655 1315 l 1,10,-1
 655 1184 l 1,11,-1
 786 1184 l 1,12,-1
 786 128 l 1,13,-1
 655 128 l 1,14,-1
 655 -4 l 1,15,-1
 124 -4 l 1,4,-1
0 1311 m 1,16,-1
 124 1311 l 1,17,-1
 124 1184 l 1,18,-1
 0 1184 l 1,19,-1
 0 1311 l 1,16,-1
655 1315 m 1,20,-1
 786 1315 l 1,21,-1
 786 1184 l 1,22,-1
 655 1184 l 1,23,-1
 655 1315 l 1,20,-1
655 128 m 1,24,-1
 786 128 l 1,25,-1
 786 0 l 1,26,-1
 655 0 l 1,27,-1
 655 128 l 1,24,-1
-7 128 m 1,28,-1
 124 128 l 1,29,-1
 124 -4 l 1,30,-1
 -7 -4 l 1,31,-1
 -7 128 l 1,28,-1
262 1573 m 1,32,-1
 524 1573 l 1,33,-1
 524 1442 l 1,34,-1
 262 1442 l 1,35,-1
 262 1573 l 1,32,-1
131 1704 m 1,36,-1
 393 1704 l 1,37,-1
 393 1573 l 1,38,-1
 131 1573 l 1,39,-1
 131 1704 l 1,36,-1
EndSplineSet
Validated: 5
EndChar

StartChar: Oacute
Encoding: 211 211 124
Width: 917
Flags: W
LayerCount: 2
Fore
SplineSet
262 266 m 1,0,-1
 517 266 l 1,1,-1
 517 1046 l 1,2,-1
 262 1046 l 1,3,-1
 262 266 l 1,0,-1
124 -4 m 1,4,-1
 124 128 l 1,5,-1
 -7 128 l 1,6,-1
 -7 1184 l 1,7,-1
 124 1184 l 1,8,-1
 124 1315 l 1,9,-1
 655 1315 l 1,10,-1
 655 1184 l 1,11,-1
 786 1184 l 1,12,-1
 786 128 l 1,13,-1
 655 128 l 1,14,-1
 655 -4 l 1,15,-1
 124 -4 l 1,4,-1
0 1311 m 1,16,-1
 124 1311 l 1,17,-1
 124 1184 l 1,18,-1
 0 1184 l 1,19,-1
 0 1311 l 1,16,-1
655 1315 m 1,20,-1
 786 1315 l 1,21,-1
 786 1184 l 1,22,-1
 655 1184 l 1,23,-1
 655 1315 l 1,20,-1
655 128 m 1,24,-1
 786 128 l 1,25,-1
 786 0 l 1,26,-1
 655 0 l 1,27,-1
 655 128 l 1,24,-1
-7 128 m 1,28,-1
 124 128 l 1,29,-1
 124 -4 l 1,30,-1
 -7 -4 l 1,31,-1
 -7 128 l 1,28,-1
262 1573 m 1,32,-1
 524 1573 l 1,33,-1
 524 1442 l 1,34,-1
 262 1442 l 1,35,-1
 262 1573 l 1,32,-1
393 1704 m 1,36,-1
 655 1704 l 1,37,-1
 655 1573 l 1,38,-1
 393 1573 l 1,39,-1
 393 1704 l 1,36,-1
EndSplineSet
Validated: 5
EndChar

StartChar: Ocircumflex
Encoding: 212 212 125
Width: 917
Flags: W
LayerCount: 2
Fore
SplineSet
262 266 m 1,0,-1
 517 266 l 1,1,-1
 517 1046 l 1,2,-1
 262 1046 l 1,3,-1
 262 266 l 1,0,-1
124 -4 m 1,4,-1
 124 128 l 1,5,-1
 -7 128 l 1,6,-1
 -7 1184 l 1,7,-1
 124 1184 l 1,8,-1
 124 1315 l 1,9,-1
 655 1315 l 1,10,-1
 655 1184 l 1,11,-1
 786 1184 l 1,12,-1
 786 128 l 1,13,-1
 655 128 l 1,14,-1
 655 -4 l 1,15,-1
 124 -4 l 1,4,-1
0 1311 m 1,16,-1
 124 1311 l 1,17,-1
 124 1184 l 1,18,-1
 0 1184 l 1,19,-1
 0 1311 l 1,16,-1
655 1315 m 1,20,-1
 786 1315 l 1,21,-1
 786 1184 l 1,22,-1
 655 1184 l 1,23,-1
 655 1315 l 1,20,-1
655 128 m 1,24,-1
 786 128 l 1,25,-1
 786 0 l 1,26,-1
 655 0 l 1,27,-1
 655 128 l 1,24,-1
-7 128 m 1,28,-1
 124 128 l 1,29,-1
 124 -4 l 1,30,-1
 -7 -4 l 1,31,-1
 -7 128 l 1,28,-1
131 1573 m 1,32,-1
 393 1573 l 1,33,-1
 393 1442 l 1,34,-1
 131 1442 l 1,35,-1
 131 1573 l 1,32,-1
262 1704 m 1,36,-1
 655 1704 l 1,37,-1
 655 1573 l 1,38,-1
 262 1573 l 1,39,-1
 262 1704 l 1,36,-1
524 1573 m 1,40,-1
 786 1573 l 1,41,-1
 786 1442 l 1,42,-1
 524 1442 l 1,43,-1
 524 1573 l 1,40,-1
EndSplineSet
Validated: 5
EndChar

StartChar: Otilde
Encoding: 213 213 126
Width: 917
Flags: W
LayerCount: 2
Fore
SplineSet
262 266 m 1,0,-1
 517 266 l 1,1,-1
 517 1046 l 1,2,-1
 262 1046 l 1,3,-1
 262 266 l 1,0,-1
124 -4 m 1,4,-1
 124 128 l 1,5,-1
 -7 128 l 1,6,-1
 -7 1184 l 1,7,-1
 124 1184 l 1,8,-1
 124 1315 l 1,9,-1
 655 1315 l 1,10,-1
 655 1184 l 1,11,-1
 786 1184 l 1,12,-1
 786 128 l 1,13,-1
 655 128 l 1,14,-1
 655 -4 l 1,15,-1
 124 -4 l 1,4,-1
0 1311 m 1,16,-1
 124 1311 l 1,17,-1
 124 1184 l 1,18,-1
 0 1184 l 1,19,-1
 0 1311 l 1,16,-1
655 1315 m 1,20,-1
 786 1315 l 1,21,-1
 786 1184 l 1,22,-1
 655 1184 l 1,23,-1
 655 1315 l 1,20,-1
655 128 m 1,24,-1
 786 128 l 1,25,-1
 786 0 l 1,26,-1
 655 0 l 1,27,-1
 655 128 l 1,24,-1
-7 128 m 1,28,-1
 124 128 l 1,29,-1
 124 -4 l 1,30,-1
 -7 -4 l 1,31,-1
 -7 128 l 1,28,-1
131 1573 m 1,32,-1
 262 1573 l 1,33,-1
 262 1442 l 1,34,-1
 131 1442 l 1,35,-1
 131 1573 l 1,32,-1
262 1704 m 1,36,-1
 524 1704 l 1,37,-1
 524 1573 l 1,38,-1
 262 1573 l 1,39,-1
 262 1704 l 1,36,-1
393 1573 m 1,40,-1
 655 1573 l 1,41,-1
 655 1442 l 1,42,-1
 393 1442 l 1,43,-1
 393 1573 l 1,40,-1
655 1704 m 1,44,-1
 786 1704 l 1,45,-1
 786 1573 l 1,46,-1
 655 1573 l 1,47,-1
 655 1704 l 1,44,-1
EndSplineSet
Validated: 5
EndChar

StartChar: Odieresis
Encoding: 214 214 127
Width: 917
Flags: W
LayerCount: 2
Fore
SplineSet
262 266 m 1,0,-1
 517 266 l 1,1,-1
 517 1046 l 1,2,-1
 262 1046 l 1,3,-1
 262 266 l 1,0,-1
124 -4 m 1,4,-1
 124 128 l 1,5,-1
 -7 128 l 1,6,-1
 -7 1184 l 1,7,-1
 124 1184 l 1,8,-1
 124 1315 l 1,9,-1
 655 1315 l 1,10,-1
 655 1184 l 1,11,-1
 786 1184 l 1,12,-1
 786 128 l 1,13,-1
 655 128 l 1,14,-1
 655 -4 l 1,15,-1
 124 -4 l 1,4,-1
0 1311 m 1,16,-1
 124 1311 l 1,17,-1
 124 1184 l 1,18,-1
 0 1184 l 1,19,-1
 0 1311 l 1,16,-1
655 1315 m 1,20,-1
 786 1315 l 1,21,-1
 786 1184 l 1,22,-1
 655 1184 l 1,23,-1
 655 1315 l 1,20,-1
655 128 m 1,24,-1
 786 128 l 1,25,-1
 786 0 l 1,26,-1
 655 0 l 1,27,-1
 655 128 l 1,24,-1
-7 128 m 1,28,-1
 124 128 l 1,29,-1
 124 -4 l 1,30,-1
 -7 -4 l 1,31,-1
 -7 128 l 1,28,-1
131 1704 m 1,32,-1
 262 1704 l 1,33,-1
 262 1442 l 1,34,-1
 131 1442 l 1,35,-1
 131 1704 l 1,32,-1
524 1704 m 1,36,-1
 655 1704 l 1,37,-1
 655 1442 l 1,38,-1
 524 1442 l 1,39,-1
 524 1704 l 1,36,-1
EndSplineSet
Validated: 5
EndChar

StartChar: Oslash
Encoding: 216 216 128
Width: 917
Flags: W
LayerCount: 2
Fore
SplineSet
-7 -4 m 1,0,-1
 -7 1184 l 1,1,-1
 0 1184 l 1,2,-1
 0 1311 l 1,3,-1
 124 1311 l 1,4,-1
 124 1315 l 1,5,-1
 786 1315 l 1,6,-1
 786 0 l 1,7,-1
 655 0 l 1,8,-1
 655 -4 l 1,9,-1
 -7 -4 l 1,0,-1
393 655 m 1,10,-1
 393 524 l 1,11,-1
 262 524 l 1,12,-1
 262 266 l 1,13,-1
 517 266 l 1,14,-1
 517 655 l 1,15,-1
 393 655 l 1,10,-1
262 786 m 1,16,-1
 393 786 l 1,17,-1
 393 918 l 1,18,-1
 517 918 l 1,19,-1
 517 1046 l 1,20,-1
 262 1046 l 1,21,-1
 262 786 l 1,16,-1
EndSplineSet
Validated: 1
EndChar

StartChar: Ugrave
Encoding: 217 217 129
Width: 917
Flags: W
LayerCount: 2
Fore
SplineSet
124 -4 m 1,0,-1
 124 128 l 1,1,-1
 -7 128 l 1,2,-1
 -7 1315 l 1,3,-1
 262 1315 l 1,4,-1
 262 266 l 1,5,-1
 517 266 l 1,6,-1
 517 1315 l 1,7,-1
 786 1315 l 1,8,-1
 786 128 l 1,9,-1
 655 128 l 1,10,-1
 655 -4 l 1,11,-1
 124 -4 l 1,0,-1
-7 128 m 1,12,-1
 124 128 l 1,13,-1
 124 -4 l 1,14,-1
 -7 -4 l 1,15,-1
 -7 128 l 1,12,-1
655 128 m 1,16,-1
 786 128 l 1,17,-1
 786 0 l 1,18,-1
 655 0 l 1,19,-1
 655 128 l 1,16,-1
262 1573 m 1,20,-1
 524 1573 l 1,21,-1
 524 1442 l 1,22,-1
 262 1442 l 1,23,-1
 262 1573 l 1,20,-1
131 1704 m 1,24,-1
 393 1704 l 1,25,-1
 393 1573 l 1,26,-1
 131 1573 l 1,27,-1
 131 1704 l 1,24,-1
EndSplineSet
Validated: 5
EndChar

StartChar: Uacute
Encoding: 218 218 130
Width: 917
Flags: W
LayerCount: 2
Fore
SplineSet
124 -4 m 1,0,-1
 124 128 l 1,1,-1
 -7 128 l 1,2,-1
 -7 1315 l 1,3,-1
 262 1315 l 1,4,-1
 262 266 l 1,5,-1
 517 266 l 1,6,-1
 517 1315 l 1,7,-1
 786 1315 l 1,8,-1
 786 128 l 1,9,-1
 655 128 l 1,10,-1
 655 -4 l 1,11,-1
 124 -4 l 1,0,-1
-7 128 m 1,12,-1
 124 128 l 1,13,-1
 124 -4 l 1,14,-1
 -7 -4 l 1,15,-1
 -7 128 l 1,12,-1
655 128 m 1,16,-1
 786 128 l 1,17,-1
 786 0 l 1,18,-1
 655 0 l 1,19,-1
 655 128 l 1,16,-1
262 1573 m 1,20,-1
 524 1573 l 1,21,-1
 524 1442 l 1,22,-1
 262 1442 l 1,23,-1
 262 1573 l 1,20,-1
393 1704 m 1,24,-1
 655 1704 l 1,25,-1
 655 1573 l 1,26,-1
 393 1573 l 1,27,-1
 393 1704 l 1,24,-1
EndSplineSet
Validated: 5
EndChar

StartChar: Ucircumflex
Encoding: 219 219 131
Width: 917
Flags: W
LayerCount: 2
Fore
SplineSet
124 -4 m 1,0,-1
 124 128 l 1,1,-1
 -7 128 l 1,2,-1
 -7 1315 l 1,3,-1
 262 1315 l 1,4,-1
 262 266 l 1,5,-1
 517 266 l 1,6,-1
 517 1315 l 1,7,-1
 786 1315 l 1,8,-1
 786 128 l 1,9,-1
 655 128 l 1,10,-1
 655 -4 l 1,11,-1
 124 -4 l 1,0,-1
-7 128 m 1,12,-1
 124 128 l 1,13,-1
 124 -4 l 1,14,-1
 -7 -4 l 1,15,-1
 -7 128 l 1,12,-1
655 128 m 1,16,-1
 786 128 l 1,17,-1
 786 0 l 1,18,-1
 655 0 l 1,19,-1
 655 128 l 1,16,-1
131 1573 m 1,20,-1
 393 1573 l 1,21,-1
 393 1442 l 1,22,-1
 131 1442 l 1,23,-1
 131 1573 l 1,20,-1
262 1704 m 1,24,-1
 655 1704 l 1,25,-1
 655 1573 l 1,26,-1
 262 1573 l 1,27,-1
 262 1704 l 1,24,-1
524 1573 m 1,28,-1
 786 1573 l 1,29,-1
 786 1442 l 1,30,-1
 524 1442 l 1,31,-1
 524 1573 l 1,28,-1
EndSplineSet
Validated: 5
EndChar

StartChar: Udieresis
Encoding: 220 220 132
Width: 917
Flags: W
LayerCount: 2
Fore
SplineSet
124 -4 m 1,0,-1
 124 128 l 1,1,-1
 -7 128 l 1,2,-1
 -7 1315 l 1,3,-1
 262 1315 l 1,4,-1
 262 266 l 1,5,-1
 517 266 l 1,6,-1
 517 1315 l 1,7,-1
 786 1315 l 1,8,-1
 786 128 l 1,9,-1
 655 128 l 1,10,-1
 655 -4 l 1,11,-1
 124 -4 l 1,0,-1
-7 128 m 1,12,-1
 124 128 l 1,13,-1
 124 -4 l 1,14,-1
 -7 -4 l 1,15,-1
 -7 128 l 1,12,-1
655 128 m 1,16,-1
 786 128 l 1,17,-1
 786 0 l 1,18,-1
 655 0 l 1,19,-1
 655 128 l 1,16,-1
131 1704 m 1,20,-1
 262 1704 l 1,21,-1
 262 1442 l 1,22,-1
 131 1442 l 1,23,-1
 131 1704 l 1,20,-1
524 1704 m 1,24,-1
 655 1704 l 1,25,-1
 655 1442 l 1,26,-1
 524 1442 l 1,27,-1
 524 1704 l 1,24,-1
EndSplineSet
Validated: 5
EndChar

StartChar: Yacute
Encoding: 221 221 133
Width: 917
Flags: W
LayerCount: 2
Fore
SplineSet
524 -4 m 1,0,-1
 255 -4 l 1,1,-1
 255 521 l 1,2,-1
 -7 521 l 1,3,-1
 -7 1315 l 1,4,-1
 262 1315 l 1,5,-1
 262 791 l 1,6,-1
 517 791 l 1,7,-1
 517 1315 l 1,8,-1
 786 1315 l 1,9,-1
 786 521 l 1,10,-1
 524 521 l 1,11,-1
 524 -4 l 1,0,-1
259 1573 m 1,12,-1
 521 1573 l 1,13,-1
 521 1442 l 1,14,-1
 259 1442 l 1,15,-1
 259 1573 l 1,12,-1
390 1704 m 1,16,-1
 652 1704 l 1,17,-1
 652 1573 l 1,18,-1
 390 1573 l 1,19,-1
 390 1704 l 1,16,-1
EndSplineSet
Validated: 5
EndChar

StartChar: germandbls
Encoding: 223 223 134
Width: 917
Flags: W
LayerCount: 2
Fore
SplineSet
262 1046 m 1,0,-1
 262 922 l 1,1,-1
 386 922 l 1,2,-1
 386 1046 l 1,3,-1
 262 1046 l 1,0,-1
386 -4 m 1,4,-1
 386 266 l 1,5,-1
 517 266 l 1,6,-1
 517 652 l 1,7,-1
 262 652 l 1,8,-1
 262 -4 l 1,9,-1
 -7 -4 l 1,10,-1
 -7 1315 l 1,11,-1
 655 1315 l 1,12,-1
 655 914 l 1,13,-1
 524 914 l 1,14,-1
 524 791 l 1,15,-1
 786 791 l 1,16,-1
 786 -4 l 1,17,-1
 386 -4 l 1,4,-1
EndSplineSet
Validated: 1
EndChar

StartChar: agrave
Encoding: 224 224 135
Width: 786
Flags: W
LayerCount: 2
Fore
SplineSet
262 390 m 1,0,-1
 262 266 l 1,1,-1
 386 266 l 1,2,-1
 386 390 l 1,3,-1
 262 390 l 1,0,-1
-7 -4 m 1,4,-1
 -7 528 l 1,5,-1
 386 528 l 1,6,-1
 386 652 l 1,7,-1
 -7 652 l 1,8,-1
 -7 922 l 1,9,-1
 655 922 l 1,10,-1
 655 -4 l 1,11,-1
 -7 -4 l 1,4,-1
131 1180 m 1,12,-1
 393 1180 l 1,13,-1
 393 1049 l 1,14,-1
 131 1049 l 1,15,-1
 131 1180 l 1,12,-1
0 1311 m 1,16,-1
 262 1311 l 1,17,-1
 262 1180 l 1,18,-1
 0 1180 l 1,19,-1
 0 1311 l 1,16,-1
EndSplineSet
Validated: 5
EndChar

StartChar: aacute
Encoding: 225 225 136
Width: 786
Flags: W
LayerCount: 2
Fore
SplineSet
262 390 m 1,0,-1
 262 266 l 1,1,-1
 386 266 l 1,2,-1
 386 390 l 1,3,-1
 262 390 l 1,0,-1
-7 -4 m 1,4,-1
 -7 528 l 1,5,-1
 386 528 l 1,6,-1
 386 652 l 1,7,-1
 -7 652 l 1,8,-1
 -7 922 l 1,9,-1
 655 922 l 1,10,-1
 655 -4 l 1,11,-1
 -7 -4 l 1,4,-1
131 1180 m 1,12,-1
 393 1180 l 1,13,-1
 393 1049 l 1,14,-1
 131 1049 l 1,15,-1
 131 1180 l 1,12,-1
262 1311 m 1,16,-1
 524 1311 l 1,17,-1
 524 1180 l 1,18,-1
 262 1180 l 1,19,-1
 262 1311 l 1,16,-1
EndSplineSet
Validated: 5
EndChar

StartChar: acircumflex
Encoding: 226 226 137
Width: 786
Flags: W
LayerCount: 2
Fore
SplineSet
262 390 m 1,0,-1
 262 266 l 1,1,-1
 386 266 l 1,2,-1
 386 390 l 1,3,-1
 262 390 l 1,0,-1
-7 -4 m 1,4,-1
 -7 528 l 1,5,-1
 386 528 l 1,6,-1
 386 652 l 1,7,-1
 -7 652 l 1,8,-1
 -7 922 l 1,9,-1
 655 922 l 1,10,-1
 655 -4 l 1,11,-1
 -7 -4 l 1,4,-1
0 1180 m 1,12,-1
 262 1180 l 1,13,-1
 262 1049 l 1,14,-1
 0 1049 l 1,15,-1
 0 1180 l 1,12,-1
131 1311 m 1,16,-1
 524 1311 l 1,17,-1
 524 1180 l 1,18,-1
 131 1180 l 1,19,-1
 131 1311 l 1,16,-1
393 1180 m 1,20,-1
 655 1180 l 1,21,-1
 655 1049 l 1,22,-1
 393 1049 l 1,23,-1
 393 1180 l 1,20,-1
EndSplineSet
Validated: 5
EndChar

StartChar: atilde
Encoding: 227 227 138
Width: 786
Flags: W
LayerCount: 2
Fore
SplineSet
262 390 m 1,0,-1
 262 266 l 1,1,-1
 386 266 l 1,2,-1
 386 390 l 1,3,-1
 262 390 l 1,0,-1
-7 -4 m 1,4,-1
 -7 528 l 1,5,-1
 386 528 l 1,6,-1
 386 652 l 1,7,-1
 -7 652 l 1,8,-1
 -7 922 l 1,9,-1
 655 922 l 1,10,-1
 655 -4 l 1,11,-1
 -7 -4 l 1,4,-1
0 1180 m 1,12,-1
 131 1180 l 1,13,-1
 131 1049 l 1,14,-1
 0 1049 l 1,15,-1
 0 1180 l 1,12,-1
131 1311 m 1,16,-1
 393 1311 l 1,17,-1
 393 1180 l 1,18,-1
 131 1180 l 1,19,-1
 131 1311 l 1,16,-1
262 1180 m 1,20,-1
 524 1180 l 1,21,-1
 524 1049 l 1,22,-1
 262 1049 l 1,23,-1
 262 1180 l 1,20,-1
524 1311 m 1,24,-1
 655 1311 l 1,25,-1
 655 1180 l 1,26,-1
 524 1180 l 1,27,-1
 524 1311 l 1,24,-1
EndSplineSet
Validated: 5
EndChar

StartChar: adieresis
Encoding: 228 228 139
Width: 786
Flags: W
LayerCount: 2
Fore
SplineSet
262 390 m 1,0,-1
 262 266 l 1,1,-1
 386 266 l 1,2,-1
 386 390 l 1,3,-1
 262 390 l 1,0,-1
-7 -4 m 1,4,-1
 -7 528 l 1,5,-1
 386 528 l 1,6,-1
 386 652 l 1,7,-1
 -7 652 l 1,8,-1
 -7 922 l 1,9,-1
 655 922 l 1,10,-1
 655 -4 l 1,11,-1
 -7 -4 l 1,4,-1
131 1311 m 1,12,-1
 262 1311 l 1,13,-1
 262 1049 l 1,14,-1
 131 1049 l 1,15,-1
 131 1311 l 1,12,-1
393 1311 m 1,16,-1
 524 1311 l 1,17,-1
 524 1049 l 1,18,-1
 393 1049 l 1,19,-1
 393 1311 l 1,16,-1
EndSplineSet
Validated: 1
EndChar

StartChar: aring
Encoding: 229 229 140
Width: 786
Flags: W
LayerCount: 2
Fore
SplineSet
262 1184 m 1,0,-1
 386 1184 l 1,1,-1
 386 1308 l 1,2,-1
 262 1308 l 1,3,-1
 262 1184 l 1,0,-1
524 1046 m 1,4,-1
 124 1046 l 1,5,-1
 124 1446 l 1,6,-1
 524 1446 l 1,7,-1
 524 1046 l 1,4,-1
262 266 m 1,8,-1
 386 266 l 1,9,-1
 386 390 l 1,10,-1
 262 390 l 1,11,-1
 262 266 l 1,8,-1
-7 -4 m 1,12,-1
 -7 528 l 1,13,-1
 386 528 l 1,14,-1
 386 652 l 1,15,-1
 -7 652 l 1,16,-1
 -7 922 l 1,17,-1
 655 922 l 1,18,-1
 655 -4 l 1,19,-1
 -7 -4 l 1,12,-1
EndSplineSet
Validated: 1
EndChar

StartChar: ae
Encoding: 230 230 141
Width: 1179
Flags: W
LayerCount: 2
Fore
SplineSet
262 390 m 1,0,-1
 262 266 l 1,1,-1
 386 266 l 1,2,-1
 386 390 l 1,3,-1
 262 390 l 1,0,-1
655 524 m 1,4,-1
 786 524 l 1,5,-1
 786 655 l 1,6,-1
 655 655 l 1,7,-1
 655 524 l 1,4,-1
655 262 m 1,8,-1
 1049 262 l 1,9,-1
 1049 0 l 1,10,-1
 655 0 l 1,11,-1
 655 -4 l 1,12,-1
 -7 -4 l 1,13,-1
 -7 528 l 1,14,-1
 386 528 l 1,15,-1
 386 652 l 1,16,-1
 -7 652 l 1,17,-1
 -7 922 l 1,18,-1
 1049 922 l 1,19,-1
 1049 393 l 1,20,-1
 655 393 l 1,21,-1
 655 262 l 1,8,-1
EndSplineSet
Validated: 1
EndChar

StartChar: ccedilla
Encoding: 231 231 142
Width: 786
Flags: W
LayerCount: 2
Fore
SplineSet
124 -4 m 1,0,-1
 124 128 l 1,1,-1
 -7 128 l 1,2,-1
 -7 791 l 1,3,-1
 124 791 l 1,4,-1
 124 922 l 1,5,-1
 524 922 l 1,6,-1
 524 791 l 1,7,-1
 655 791 l 1,8,-1
 655 521 l 1,9,-1
 386 521 l 1,10,-1
 386 652 l 1,11,-1
 262 652 l 1,12,-1
 262 266 l 1,13,-1
 386 266 l 1,14,-1
 386 397 l 1,15,-1
 655 397 l 1,16,-1
 655 128 l 1,17,-1
 524 128 l 1,18,-1
 524 -4 l 1,19,-1
 124 -4 l 1,0,-1
0 918 m 1,20,-1
 131 918 l 1,21,-1
 131 786 l 1,22,-1
 0 786 l 1,23,-1
 0 918 l 1,20,-1
524 918 m 1,24,-1
 655 918 l 1,25,-1
 655 791 l 1,26,-1
 524 791 l 1,27,-1
 524 918 l 1,24,-1
524 128 m 1,28,-1
 655 128 l 1,29,-1
 655 0 l 1,30,-1
 524 0 l 1,31,-1
 524 128 l 1,28,-1
-7 128 m 1,32,-1
 124 128 l 1,33,-1
 124 -4 l 1,34,-1
 -7 -4 l 1,35,-1
 -7 128 l 1,32,-1
EndSplineSet
Validated: 5
EndChar

StartChar: egrave
Encoding: 232 232 143
Width: 786
Flags: W
LayerCount: 2
Fore
SplineSet
262 652 m 1,0,-1
 262 528 l 1,1,-1
 386 528 l 1,2,-1
 386 652 l 1,3,-1
 262 652 l 1,0,-1
124 -4 m 1,4,-1
 124 128 l 1,5,-1
 -7 128 l 1,6,-1
 -7 791 l 1,7,-1
 124 791 l 1,8,-1
 124 922 l 1,9,-1
 524 922 l 1,10,-1
 524 791 l 1,11,-1
 655 791 l 1,12,-1
 655 390 l 1,13,-1
 262 390 l 1,14,-1
 262 266 l 1,15,-1
 655 266 l 1,16,-1
 655 -4 l 1,17,-1
 124 -4 l 1,4,-1
0 918 m 1,18,-1
 124 918 l 1,19,-1
 124 791 l 1,20,-1
 0 791 l 1,21,-1
 0 918 l 1,18,-1
524 922 m 1,22,-1
 655 922 l 1,23,-1
 655 791 l 1,24,-1
 524 791 l 1,25,-1
 524 922 l 1,22,-1
-7 128 m 1,26,-1
 124 128 l 1,27,-1
 124 -4 l 1,28,-1
 -7 -4 l 1,29,-1
 -7 128 l 1,26,-1
262 1180 m 1,30,-1
 524 1180 l 1,31,-1
 524 1049 l 1,32,-1
 262 1049 l 1,33,-1
 262 1180 l 1,30,-1
131 1311 m 1,34,-1
 393 1311 l 1,35,-1
 393 1180 l 1,36,-1
 131 1180 l 1,37,-1
 131 1311 l 1,34,-1
EndSplineSet
Validated: 5
EndChar

StartChar: eacute
Encoding: 233 233 144
Width: 786
Flags: W
LayerCount: 2
Fore
SplineSet
262 652 m 1,0,-1
 262 528 l 1,1,-1
 386 528 l 1,2,-1
 386 652 l 1,3,-1
 262 652 l 1,0,-1
124 -4 m 1,4,-1
 124 128 l 1,5,-1
 -7 128 l 1,6,-1
 -7 791 l 1,7,-1
 124 791 l 1,8,-1
 124 922 l 1,9,-1
 524 922 l 1,10,-1
 524 791 l 1,11,-1
 655 791 l 1,12,-1
 655 390 l 1,13,-1
 262 390 l 1,14,-1
 262 266 l 1,15,-1
 655 266 l 1,16,-1
 655 -4 l 1,17,-1
 124 -4 l 1,4,-1
0 918 m 1,18,-1
 124 918 l 1,19,-1
 124 791 l 1,20,-1
 0 791 l 1,21,-1
 0 918 l 1,18,-1
524 922 m 1,22,-1
 655 922 l 1,23,-1
 655 791 l 1,24,-1
 524 791 l 1,25,-1
 524 922 l 1,22,-1
-7 128 m 1,26,-1
 124 128 l 1,27,-1
 124 -4 l 1,28,-1
 -7 -4 l 1,29,-1
 -7 128 l 1,26,-1
131 1180 m 1,30,-1
 393 1180 l 1,31,-1
 393 1049 l 1,32,-1
 131 1049 l 1,33,-1
 131 1180 l 1,30,-1
262 1311 m 1,34,-1
 524 1311 l 1,35,-1
 524 1180 l 1,36,-1
 262 1180 l 1,37,-1
 262 1311 l 1,34,-1
EndSplineSet
Validated: 5
EndChar

StartChar: ecircumflex
Encoding: 234 234 145
Width: 786
Flags: W
LayerCount: 2
Fore
SplineSet
262 652 m 1,0,-1
 262 528 l 1,1,-1
 386 528 l 1,2,-1
 386 652 l 1,3,-1
 262 652 l 1,0,-1
124 -4 m 1,4,-1
 124 128 l 1,5,-1
 -7 128 l 1,6,-1
 -7 791 l 1,7,-1
 124 791 l 1,8,-1
 124 922 l 1,9,-1
 524 922 l 1,10,-1
 524 791 l 1,11,-1
 655 791 l 1,12,-1
 655 390 l 1,13,-1
 262 390 l 1,14,-1
 262 266 l 1,15,-1
 655 266 l 1,16,-1
 655 -4 l 1,17,-1
 124 -4 l 1,4,-1
0 918 m 1,18,-1
 124 918 l 1,19,-1
 124 791 l 1,20,-1
 0 791 l 1,21,-1
 0 918 l 1,18,-1
524 922 m 1,22,-1
 655 922 l 1,23,-1
 655 791 l 1,24,-1
 524 791 l 1,25,-1
 524 922 l 1,22,-1
-7 128 m 1,26,-1
 124 128 l 1,27,-1
 124 -4 l 1,28,-1
 -7 -4 l 1,29,-1
 -7 128 l 1,26,-1
0 1180 m 1,30,-1
 262 1180 l 1,31,-1
 262 1049 l 1,32,-1
 0 1049 l 1,33,-1
 0 1180 l 1,30,-1
131 1311 m 1,34,-1
 524 1311 l 1,35,-1
 524 1180 l 1,36,-1
 131 1180 l 1,37,-1
 131 1311 l 1,34,-1
393 1180 m 1,38,-1
 655 1180 l 1,39,-1
 655 1049 l 1,40,-1
 393 1049 l 1,41,-1
 393 1180 l 1,38,-1
EndSplineSet
Validated: 5
EndChar

StartChar: edieresis
Encoding: 235 235 146
Width: 786
Flags: W
LayerCount: 2
Fore
SplineSet
262 652 m 1,0,-1
 262 528 l 1,1,-1
 386 528 l 1,2,-1
 386 652 l 1,3,-1
 262 652 l 1,0,-1
124 -4 m 1,4,-1
 124 128 l 1,5,-1
 -7 128 l 1,6,-1
 -7 791 l 1,7,-1
 124 791 l 1,8,-1
 124 922 l 1,9,-1
 524 922 l 1,10,-1
 524 791 l 1,11,-1
 655 791 l 1,12,-1
 655 390 l 1,13,-1
 262 390 l 1,14,-1
 262 266 l 1,15,-1
 655 266 l 1,16,-1
 655 -4 l 1,17,-1
 124 -4 l 1,4,-1
0 918 m 1,18,-1
 124 918 l 1,19,-1
 124 791 l 1,20,-1
 0 791 l 1,21,-1
 0 918 l 1,18,-1
524 922 m 1,22,-1
 655 922 l 1,23,-1
 655 791 l 1,24,-1
 524 791 l 1,25,-1
 524 922 l 1,22,-1
-7 128 m 1,26,-1
 124 128 l 1,27,-1
 124 -4 l 1,28,-1
 -7 -4 l 1,29,-1
 -7 128 l 1,26,-1
131 1311 m 1,30,-1
 262 1311 l 1,31,-1
 262 1049 l 1,32,-1
 131 1049 l 1,33,-1
 131 1311 l 1,30,-1
393 1311 m 1,34,-1
 524 1311 l 1,35,-1
 524 1049 l 1,36,-1
 393 1049 l 1,37,-1
 393 1311 l 1,34,-1
EndSplineSet
Validated: 5
EndChar

StartChar: igrave
Encoding: 236 236 147
Width: 524
Flags: W
LayerCount: 2
Fore
SplineSet
393 1046 m 1,0,-1
 124 1046 l 1,1,-1
 124 1177 l 1,2,-1
 -7 1177 l 1,3,-1
 -7 1315 l 1,4,-1
 262 1315 l 1,5,-1
 262 1184 l 1,6,-1
 393 1184 l 1,7,-1
 393 1046 l 1,0,-1
393 -4 m 1,8,-1
 124 -4 l 1,9,-1
 124 922 l 1,10,-1
 393 922 l 1,11,-1
 393 -4 l 1,8,-1
EndSplineSet
Validated: 1
EndChar

StartChar: iacute
Encoding: 237 237 148
Width: 524
Flags: W
LayerCount: 2
Fore
SplineSet
262 1046 m 1,0,-1
 -7 1046 l 1,1,-1
 -7 1184 l 1,2,-1
 124 1184 l 1,3,-1
 124 1315 l 1,4,-1
 393 1315 l 1,5,-1
 393 1177 l 1,6,-1
 262 1177 l 1,7,-1
 262 1046 l 1,0,-1
262 -4 m 1,8,-1
 -7 -4 l 1,9,-1
 -7 922 l 1,10,-1
 262 922 l 1,11,-1
 262 -4 l 1,8,-1
EndSplineSet
Validated: 1
EndChar

StartChar: icircumflex
Encoding: 238 238 149
Width: 655
Flags: W
LayerCount: 2
Fore
SplineSet
262 1046 m 1,0,-1
 -7 1046 l 1,1,-1
 -7 1184 l 1,2,-1
 124 1184 l 1,3,-1
 124 1315 l 1,4,-1
 524 1315 l 1,5,-1
 524 1184 l 1,6,-1
 655 1184 l 1,7,-1
 655 1046 l 1,8,-1
 386 1046 l 1,9,-1
 386 1177 l 1,10,-1
 262 1177 l 1,11,-1
 262 1046 l 1,0,-1
393 -4 m 1,12,-1
 124 -4 l 1,13,-1
 124 922 l 1,14,-1
 393 922 l 1,15,-1
 393 -4 l 1,12,-1
EndSplineSet
Validated: 1
EndChar

StartChar: idieresis
Encoding: 239 239 150
Width: 655
Flags: W
LayerCount: 2
Fore
SplineSet
524 1046 m 1,0,-1
 386 1046 l 1,1,-1
 386 1315 l 1,2,-1
 524 1315 l 1,3,-1
 524 1046 l 1,0,-1
131 1046 m 1,4,-1
 -7 1046 l 1,5,-1
 -7 1315 l 1,6,-1
 131 1315 l 1,7,-1
 131 1046 l 1,4,-1
393 -4 m 1,8,-1
 124 -4 l 1,9,-1
 124 922 l 1,10,-1
 393 922 l 1,11,-1
 393 -4 l 1,8,-1
EndSplineSet
Validated: 1
EndChar

StartChar: ntilde
Encoding: 241 241 151
Width: 786
Flags: W
LayerCount: 2
Fore
SplineSet
262 -4 m 1,0,-1
 -7 -4 l 1,1,-1
 -7 922 l 1,2,-1
 524 922 l 1,3,-1
 524 791 l 1,4,-1
 655 791 l 1,5,-1
 655 -4 l 1,6,-1
 386 -4 l 1,7,-1
 386 652 l 1,8,-1
 262 652 l 1,9,-1
 262 -4 l 1,0,-1
524 922 m 1,10,-1
 655 922 l 1,11,-1
 655 791 l 1,12,-1
 524 791 l 1,13,-1
 524 922 l 1,10,-1
0 1180 m 1,14,-1
 131 1180 l 1,15,-1
 131 1049 l 1,16,-1
 0 1049 l 1,17,-1
 0 1180 l 1,14,-1
131 1311 m 1,18,-1
 393 1311 l 1,19,-1
 393 1180 l 1,20,-1
 131 1180 l 1,21,-1
 131 1311 l 1,18,-1
262 1180 m 1,22,-1
 524 1180 l 1,23,-1
 524 1049 l 1,24,-1
 262 1049 l 1,25,-1
 262 1180 l 1,22,-1
524 1311 m 1,26,-1
 655 1311 l 1,27,-1
 655 1180 l 1,28,-1
 524 1180 l 1,29,-1
 524 1311 l 1,26,-1
EndSplineSet
Validated: 5
EndChar

StartChar: ograve
Encoding: 242 242 152
Width: 786
Flags: W
LayerCount: 2
Fore
SplineSet
262 266 m 1,0,-1
 386 266 l 1,1,-1
 386 652 l 1,2,-1
 262 652 l 1,3,-1
 262 266 l 1,0,-1
124 -4 m 1,4,-1
 124 128 l 1,5,-1
 -7 128 l 1,6,-1
 -7 791 l 1,7,-1
 124 791 l 1,8,-1
 124 922 l 1,9,-1
 524 922 l 1,10,-1
 524 791 l 1,11,-1
 655 791 l 1,12,-1
 655 128 l 1,13,-1
 524 128 l 1,14,-1
 524 -4 l 1,15,-1
 124 -4 l 1,4,-1
0 918 m 1,16,-1
 131 918 l 1,17,-1
 131 786 l 1,18,-1
 0 786 l 1,19,-1
 0 918 l 1,16,-1
524 922 m 1,20,-1
 655 922 l 1,21,-1
 655 786 l 1,22,-1
 524 786 l 1,23,-1
 524 922 l 1,20,-1
524 128 m 1,24,-1
 655 128 l 1,25,-1
 655 0 l 1,26,-1
 524 0 l 1,27,-1
 524 128 l 1,24,-1
-7 128 m 1,28,-1
 124 128 l 1,29,-1
 124 -4 l 1,30,-1
 -7 -4 l 1,31,-1
 -7 128 l 1,28,-1
131 1180 m 1,32,-1
 393 1180 l 1,33,-1
 393 1049 l 1,34,-1
 131 1049 l 1,35,-1
 131 1180 l 1,32,-1
0 1311 m 1,36,-1
 262 1311 l 1,37,-1
 262 1180 l 1,38,-1
 0 1180 l 1,39,-1
 0 1311 l 1,36,-1
EndSplineSet
Validated: 5
EndChar

StartChar: oacute
Encoding: 243 243 153
Width: 786
Flags: W
LayerCount: 2
Fore
SplineSet
262 266 m 1,0,-1
 386 266 l 1,1,-1
 386 652 l 1,2,-1
 262 652 l 1,3,-1
 262 266 l 1,0,-1
124 -4 m 1,4,-1
 124 128 l 1,5,-1
 -7 128 l 1,6,-1
 -7 791 l 1,7,-1
 124 791 l 1,8,-1
 124 922 l 1,9,-1
 524 922 l 1,10,-1
 524 791 l 1,11,-1
 655 791 l 1,12,-1
 655 128 l 1,13,-1
 524 128 l 1,14,-1
 524 -4 l 1,15,-1
 124 -4 l 1,4,-1
0 918 m 1,16,-1
 131 918 l 1,17,-1
 131 786 l 1,18,-1
 0 786 l 1,19,-1
 0 918 l 1,16,-1
524 922 m 1,20,-1
 655 922 l 1,21,-1
 655 786 l 1,22,-1
 524 786 l 1,23,-1
 524 922 l 1,20,-1
524 128 m 1,24,-1
 655 128 l 1,25,-1
 655 0 l 1,26,-1
 524 0 l 1,27,-1
 524 128 l 1,24,-1
-7 128 m 1,28,-1
 124 128 l 1,29,-1
 124 -4 l 1,30,-1
 -7 -4 l 1,31,-1
 -7 128 l 1,28,-1
262 1180 m 1,32,-1
 524 1180 l 1,33,-1
 524 1049 l 1,34,-1
 262 1049 l 1,35,-1
 262 1180 l 1,32,-1
393 1311 m 1,36,-1
 655 1311 l 1,37,-1
 655 1180 l 1,38,-1
 393 1180 l 1,39,-1
 393 1311 l 1,36,-1
EndSplineSet
Validated: 5
EndChar

StartChar: ocircumflex
Encoding: 244 244 154
Width: 786
Flags: W
LayerCount: 2
Fore
SplineSet
262 266 m 1,0,-1
 386 266 l 1,1,-1
 386 652 l 1,2,-1
 262 652 l 1,3,-1
 262 266 l 1,0,-1
124 -4 m 1,4,-1
 124 128 l 1,5,-1
 -7 128 l 1,6,-1
 -7 791 l 1,7,-1
 124 791 l 1,8,-1
 124 922 l 1,9,-1
 524 922 l 1,10,-1
 524 791 l 1,11,-1
 655 791 l 1,12,-1
 655 128 l 1,13,-1
 524 128 l 1,14,-1
 524 -4 l 1,15,-1
 124 -4 l 1,4,-1
0 918 m 1,16,-1
 131 918 l 1,17,-1
 131 786 l 1,18,-1
 0 786 l 1,19,-1
 0 918 l 1,16,-1
524 922 m 1,20,-1
 655 922 l 1,21,-1
 655 786 l 1,22,-1
 524 786 l 1,23,-1
 524 922 l 1,20,-1
524 128 m 1,24,-1
 655 128 l 1,25,-1
 655 0 l 1,26,-1
 524 0 l 1,27,-1
 524 128 l 1,24,-1
-7 128 m 1,28,-1
 124 128 l 1,29,-1
 124 -4 l 1,30,-1
 -7 -4 l 1,31,-1
 -7 128 l 1,28,-1
0 1180 m 1,32,-1
 131 1180 l 1,33,-1
 131 1049 l 1,34,-1
 0 1049 l 1,35,-1
 0 1180 l 1,32,-1
131 1180 m 1,36,-1
 262 1180 l 1,37,-1
 262 1049 l 1,38,-1
 131 1049 l 1,39,-1
 131 1180 l 1,36,-1
393 1180 m 1,40,-1
 524 1180 l 1,41,-1
 524 1049 l 1,42,-1
 393 1049 l 1,43,-1
 393 1180 l 1,40,-1
524 1180 m 1,44,-1
 655 1180 l 1,45,-1
 655 1049 l 1,46,-1
 524 1049 l 1,47,-1
 524 1180 l 1,44,-1
131 1311 m 1,48,-1
 524 1311 l 1,49,-1
 524 1180 l 1,50,-1
 131 1180 l 1,51,-1
 131 1311 l 1,48,-1
EndSplineSet
Validated: 5
EndChar

StartChar: otilde
Encoding: 245 245 155
Width: 786
Flags: W
LayerCount: 2
Fore
SplineSet
262 266 m 1,0,-1
 386 266 l 1,1,-1
 386 652 l 1,2,-1
 262 652 l 1,3,-1
 262 266 l 1,0,-1
124 -4 m 1,4,-1
 124 128 l 1,5,-1
 -7 128 l 1,6,-1
 -7 791 l 1,7,-1
 124 791 l 1,8,-1
 124 922 l 1,9,-1
 524 922 l 1,10,-1
 524 791 l 1,11,-1
 655 791 l 1,12,-1
 655 128 l 1,13,-1
 524 128 l 1,14,-1
 524 -4 l 1,15,-1
 124 -4 l 1,4,-1
0 918 m 1,16,-1
 131 918 l 1,17,-1
 131 786 l 1,18,-1
 0 786 l 1,19,-1
 0 918 l 1,16,-1
524 922 m 1,20,-1
 655 922 l 1,21,-1
 655 786 l 1,22,-1
 524 786 l 1,23,-1
 524 922 l 1,20,-1
524 128 m 1,24,-1
 655 128 l 1,25,-1
 655 0 l 1,26,-1
 524 0 l 1,27,-1
 524 128 l 1,24,-1
-7 128 m 1,28,-1
 124 128 l 1,29,-1
 124 -4 l 1,30,-1
 -7 -4 l 1,31,-1
 -7 128 l 1,28,-1
0 1180 m 1,32,-1
 131 1180 l 1,33,-1
 131 1049 l 1,34,-1
 0 1049 l 1,35,-1
 0 1180 l 1,32,-1
262 1311 m 1,36,-1
 393 1311 l 1,37,-1
 393 1180 l 1,38,-1
 262 1180 l 1,39,-1
 262 1311 l 1,36,-1
131 1311 m 1,40,-1
 262 1311 l 1,41,-1
 262 1180 l 1,42,-1
 131 1180 l 1,43,-1
 131 1311 l 1,40,-1
262 1180 m 1,44,-1
 524 1180 l 1,45,-1
 524 1049 l 1,46,-1
 262 1049 l 1,47,-1
 262 1180 l 1,44,-1
524 1311 m 1,48,-1
 655 1311 l 1,49,-1
 655 1180 l 1,50,-1
 524 1180 l 1,51,-1
 524 1311 l 1,48,-1
EndSplineSet
Validated: 5
EndChar

StartChar: odieresis
Encoding: 246 246 156
Width: 786
Flags: W
LayerCount: 2
Fore
SplineSet
262 266 m 1,0,-1
 386 266 l 1,1,-1
 386 652 l 1,2,-1
 262 652 l 1,3,-1
 262 266 l 1,0,-1
124 -4 m 1,4,-1
 124 128 l 1,5,-1
 -7 128 l 1,6,-1
 -7 791 l 1,7,-1
 124 791 l 1,8,-1
 124 922 l 1,9,-1
 524 922 l 1,10,-1
 524 791 l 1,11,-1
 655 791 l 1,12,-1
 655 128 l 1,13,-1
 524 128 l 1,14,-1
 524 -4 l 1,15,-1
 124 -4 l 1,4,-1
0 918 m 1,16,-1
 131 918 l 1,17,-1
 131 786 l 1,18,-1
 0 786 l 1,19,-1
 0 918 l 1,16,-1
524 922 m 1,20,-1
 655 922 l 1,21,-1
 655 786 l 1,22,-1
 524 786 l 1,23,-1
 524 922 l 1,20,-1
524 128 m 1,24,-1
 655 128 l 1,25,-1
 655 0 l 1,26,-1
 524 0 l 1,27,-1
 524 128 l 1,24,-1
-7 128 m 1,28,-1
 124 128 l 1,29,-1
 124 -4 l 1,30,-1
 -7 -4 l 1,31,-1
 -7 128 l 1,28,-1
131 1311 m 1,32,-1
 262 1311 l 1,33,-1
 262 1049 l 1,34,-1
 131 1049 l 1,35,-1
 131 1311 l 1,32,-1
393 1311 m 1,36,-1
 524 1311 l 1,37,-1
 524 1049 l 1,38,-1
 393 1049 l 1,39,-1
 393 1311 l 1,36,-1
EndSplineSet
Validated: 5
EndChar

StartChar: oslash
Encoding: 248 248 157
Width: 786
Flags: W
LayerCount: 2
Fore
SplineSet
-7 -4 m 1,0,-1
 -7 791 l 1,1,-1
 0 791 l 1,2,-1
 0 918 l 1,3,-1
 124 918 l 1,4,-1
 124 922 l 1,5,-1
 655 922 l 1,6,-1
 655 0 l 1,7,-1
 524 0 l 1,8,-1
 524 -4 l 1,9,-1
 -7 -4 l 1,0,-1
386 393 m 1,10,-1
 262 393 l 1,11,-1
 262 266 l 1,12,-1
 386 266 l 1,13,-1
 386 393 l 1,10,-1
262 524 m 1,14,-1
 386 524 l 1,15,-1
 386 652 l 1,16,-1
 262 652 l 1,17,-1
 262 524 l 1,14,-1
EndSplineSet
Validated: 1
EndChar

StartChar: ugrave
Encoding: 249 249 158
Width: 786
Flags: W
LayerCount: 2
Fore
SplineSet
124 -4 m 1,0,-1
 124 128 l 1,1,-1
 -7 128 l 1,2,-1
 -7 922 l 1,3,-1
 262 922 l 1,4,-1
 262 266 l 1,5,-1
 386 266 l 1,6,-1
 386 922 l 1,7,-1
 655 922 l 1,8,-1
 655 128 l 1,9,-1
 524 128 l 1,10,-1
 524 -4 l 1,11,-1
 124 -4 l 1,0,-1
-7 128 m 1,12,-1
 124 128 l 1,13,-1
 124 -4 l 1,14,-1
 -7 -4 l 1,15,-1
 -7 128 l 1,12,-1
524 128 m 1,16,-1
 655 128 l 1,17,-1
 655 0 l 1,18,-1
 524 0 l 1,19,-1
 524 128 l 1,16,-1
131 1180 m 1,20,-1
 393 1180 l 1,21,-1
 393 1049 l 1,22,-1
 131 1049 l 1,23,-1
 131 1180 l 1,20,-1
0 1311 m 1,24,-1
 262 1311 l 1,25,-1
 262 1180 l 1,26,-1
 0 1180 l 1,27,-1
 0 1311 l 1,24,-1
EndSplineSet
Validated: 5
EndChar

StartChar: uacute
Encoding: 250 250 159
Width: 786
Flags: W
LayerCount: 2
Fore
SplineSet
124 -4 m 1,0,-1
 124 128 l 1,1,-1
 -7 128 l 1,2,-1
 -7 922 l 1,3,-1
 262 922 l 1,4,-1
 262 266 l 1,5,-1
 386 266 l 1,6,-1
 386 922 l 1,7,-1
 655 922 l 1,8,-1
 655 128 l 1,9,-1
 524 128 l 1,10,-1
 524 -4 l 1,11,-1
 124 -4 l 1,0,-1
-7 128 m 1,12,-1
 124 128 l 1,13,-1
 124 -4 l 1,14,-1
 -7 -4 l 1,15,-1
 -7 128 l 1,12,-1
524 128 m 1,16,-1
 655 128 l 1,17,-1
 655 0 l 1,18,-1
 524 0 l 1,19,-1
 524 128 l 1,16,-1
262 1180 m 1,20,-1
 524 1180 l 1,21,-1
 524 1049 l 1,22,-1
 262 1049 l 1,23,-1
 262 1180 l 1,20,-1
393 1311 m 1,24,-1
 655 1311 l 1,25,-1
 655 1180 l 1,26,-1
 393 1180 l 1,27,-1
 393 1311 l 1,24,-1
EndSplineSet
Validated: 5
EndChar

StartChar: ucircumflex
Encoding: 251 251 160
Width: 786
Flags: W
LayerCount: 2
Fore
SplineSet
124 -4 m 1,0,-1
 124 128 l 1,1,-1
 -7 128 l 1,2,-1
 -7 922 l 1,3,-1
 262 922 l 1,4,-1
 262 266 l 1,5,-1
 386 266 l 1,6,-1
 386 922 l 1,7,-1
 655 922 l 1,8,-1
 655 128 l 1,9,-1
 524 128 l 1,10,-1
 524 -4 l 1,11,-1
 124 -4 l 1,0,-1
-7 128 m 1,12,-1
 124 128 l 1,13,-1
 124 -4 l 1,14,-1
 -7 -4 l 1,15,-1
 -7 128 l 1,12,-1
524 128 m 1,16,-1
 655 128 l 1,17,-1
 655 0 l 1,18,-1
 524 0 l 1,19,-1
 524 128 l 1,16,-1
0 1180 m 1,20,-1
 262 1180 l 1,21,-1
 262 1049 l 1,22,-1
 0 1049 l 1,23,-1
 0 1180 l 1,20,-1
131 1311 m 1,24,-1
 524 1311 l 1,25,-1
 524 1180 l 1,26,-1
 131 1180 l 1,27,-1
 131 1311 l 1,24,-1
393 1180 m 1,28,-1
 655 1180 l 1,29,-1
 655 1049 l 1,30,-1
 393 1049 l 1,31,-1
 393 1180 l 1,28,-1
EndSplineSet
Validated: 5
EndChar

StartChar: udieresis
Encoding: 252 252 161
Width: 786
Flags: W
LayerCount: 2
Fore
SplineSet
124 -4 m 1,0,-1
 124 128 l 1,1,-1
 -7 128 l 1,2,-1
 -7 922 l 1,3,-1
 262 922 l 1,4,-1
 262 266 l 1,5,-1
 386 266 l 1,6,-1
 386 922 l 1,7,-1
 655 922 l 1,8,-1
 655 128 l 1,9,-1
 524 128 l 1,10,-1
 524 -4 l 1,11,-1
 124 -4 l 1,0,-1
-7 128 m 1,12,-1
 124 128 l 1,13,-1
 124 -4 l 1,14,-1
 -7 -4 l 1,15,-1
 -7 128 l 1,12,-1
524 128 m 1,16,-1
 655 128 l 1,17,-1
 655 0 l 1,18,-1
 524 0 l 1,19,-1
 524 128 l 1,16,-1
131 1311 m 1,20,-1
 262 1311 l 1,21,-1
 262 1049 l 1,22,-1
 131 1049 l 1,23,-1
 131 1311 l 1,20,-1
393 1311 m 1,24,-1
 524 1311 l 1,25,-1
 524 1049 l 1,26,-1
 393 1049 l 1,27,-1
 393 1311 l 1,24,-1
EndSplineSet
Validated: 5
EndChar

StartChar: yacute
Encoding: 253 253 162
Width: 786
Flags: W
LayerCount: 2
Fore
SplineSet
524 -397 m 1,0,-1
 124 -397 l 1,1,-1
 124 -128 l 1,2,-1
 386 -128 l 1,3,-1
 386 -4 l 1,4,-1
 124 -4 l 1,5,-1
 124 128 l 1,6,-1
 -7 128 l 1,7,-1
 -7 922 l 1,8,-1
 262 922 l 1,9,-1
 262 266 l 1,10,-1
 386 266 l 1,11,-1
 386 922 l 1,12,-1
 655 922 l 1,13,-1
 655 -266 l 1,14,-1
 524 -266 l 1,15,-1
 524 -397 l 1,0,-1
0 -131 m 1,16,-1
 124 -131 l 1,17,-1
 124 -397 l 1,18,-1
 0 -397 l 1,19,-1
 0 -131 l 1,16,-1
-7 128 m 1,20,-1
 124 128 l 1,21,-1
 124 -4 l 1,22,-1
 -7 -4 l 1,23,-1
 -7 128 l 1,20,-1
524 -266 m 1,24,-1
 655 -266 l 1,25,-1
 655 -393 l 1,26,-1
 524 -393 l 1,27,-1
 524 -266 l 1,24,-1
262 1180 m 1,28,-1
 524 1180 l 1,29,-1
 524 1049 l 1,30,-1
 262 1049 l 1,31,-1
 262 1180 l 1,28,-1
393 1311 m 1,32,-1
 655 1311 l 1,33,-1
 655 1180 l 1,34,-1
 393 1180 l 1,35,-1
 393 1311 l 1,32,-1
EndSplineSet
Validated: 5
EndChar

